<svg xmlns="http://www.w3.org/2000/svg" xmlns:xlink="http://www.w3.org/1999/xlink" id="Layer_1" x="0" y="0" version="1.1" viewBox="0 0 11.5 32" xml:space="preserve" style="enable-background:new 0 0 11.5 32"><title>arrowdown</title><path fill="#5e686c" d="M5.8,31.8c-0.1,0-0.2-0.1-0.2-0.2V0.5c0-0.1,0.1-0.2,0.2-0.2S6,0.4,6,0.5v31.1C6,31.7,5.9,31.8,5.8,31.8z"/><path id="svg-ico" d="M11.1,25.9c-0.1-0.1-0.3-0.1-0.4,0l-4.9,5.3l-5-5.3c-0.1-0.1-0.3-0.1-0.4,0c-0.1,0.1-0.1,0.3,0,0.4l5.2,5.5	c0,0,0,0,0,0c0,0,0,0,0,0c0,0,0.1,0.1,0.2,0.1c0.1,0,0.1,0,0.2-0.1c0,0,0,0,0,0c0,0,0,0,0,0l5.1-5.5C11.2,26.2,11.2,26,11.1,25.9z"/></svg>