<svg xmlns="http://www.w3.org/2000/svg" xmlns:xlink="http://www.w3.org/1999/xlink" id="Layer_1" width="512" height="512" x="0" y="0" enable-background="new 0 0 512 512" version="1.1" viewBox="0 0 512 512" xml:space="preserve"><path fill="#5E686B" d="M500.357,89.734H11.733c-4.501,0-8.144-3.642-8.144-8.144c0-4.501,3.642-8.144,8.144-8.144h488.624	c4.501,0,8.145,3.643,8.145,8.144C508.5,86.092,504.858,89.734,500.357,89.734z"/><path fill="#69C299" d="M500.357,268.895H11.733c-4.501,0-8.144-3.644-8.144-8.145s3.642-8.144,8.144-8.144h488.624	c4.501,0,8.145,3.642,8.145,8.144C508.5,265.251,504.858,268.895,500.357,268.895z"/><path fill="#5E686B" d="M500.357,448.053H11.733c-4.501,0-8.144-3.643-8.144-8.144s3.642-8.145,8.144-8.145h488.624	c4.501,0,8.145,3.644,8.145,8.145S504.858,448.053,500.357,448.053z"/></svg>