<svg xmlns="http://www.w3.org/2000/svg" xmlns:xlink="http://www.w3.org/1999/xlink" id="Layer_1" width="512" height="512" x="0" y="0" enable-background="new 0 0 512 512" version="1.1" viewBox="0 0 512 512" xml:space="preserve"><path fill="#5E686C" d="M500.567,403.905H11.388c-3.755,0-6.793-3.038-6.793-6.793V303.79c0-3.755,3.038-6.793,6.793-6.793	c3.754,0,6.793,3.038,6.793,6.793v86.529h475.593V303.79c0-3.755,3.038-6.793,6.793-6.793s6.793,3.038,6.793,6.793v93.322	C507.36,400.867,504.322,403.905,500.567,403.905z"/><path fill="#5E686C" d="M255.977,490.972c-3.754,0-6.793-3.038-6.793-6.793v-67.936c0-3.754,3.039-6.792,6.793-6.792	s6.792,3.038,6.792,6.792v67.936C262.77,487.934,259.732,490.972,255.977,490.972z"/><path fill="#5E686C" d="M375.628,490.972H136.359c-3.754,0-6.792-3.038-6.792-6.793s3.038-6.793,6.792-6.793h239.269	c3.755,0,6.793,3.038,6.793,6.793S379.383,490.972,375.628,490.972z"/><path fill="#69C299" d="M500.567,310.583H11.388c-3.755,0-6.793-3.038-6.793-6.793V42.477c0-3.755,3.038-6.793,6.793-6.793h489.179	c3.755,0,6.793,3.038,6.793,6.793V303.79C507.36,307.545,504.322,310.583,500.567,310.583z M18.181,296.997h475.593V49.27H18.181	V296.997z"/></svg>