<svg xmlns="http://www.w3.org/2000/svg" xmlns:xlink="http://www.w3.org/1999/xlink" id="Layer_1" width="512" height="512" x="0" y="0" enable-background="new 0 0 512 512" version="1.1" viewBox="0 0 512 512" xml:space="preserve"><path fill="#5E686B" d="M494.449,212.554c3.813,0,6.898-3.084,6.897-6.897c0-3.813-3.085-6.897-6.897-6.897h-86.953V97.703h86.953	c3.813,0,6.897-3.085,6.897-6.897s-3.085-6.897-6.897-6.897h-86.953V8.762c0-3.813-3.085-6.897-6.896-6.897H105.254	c-3.813,0-6.897,3.085-6.897,6.897v75.147H15.997c-3.813,0-6.897,3.085-6.897,6.897s3.085,6.897,6.897,6.897h82.358V198.76H15.997	c-3.813,0-6.897,3.085-6.897,6.897c0,3.813,3.085,6.897,6.897,6.897h82.358v101.072H15.997c-3.813,0-6.897,3.085-6.897,6.898	c0,3.812,3.085,6.896,6.897,6.896h82.358v101.071H15.997c-3.813,0-6.897,3.086-6.897,6.896c0,3.812,3.085,6.896,6.897,6.896h82.358	v58.732c0,3.812,3.084,6.896,6.897,6.896H400.6c3.812,0,6.896-3.085,6.896-6.896v-58.732h86.953c3.813,0,6.898-3.085,6.897-6.896	c0-3.812-3.085-6.896-6.897-6.896h-86.953V327.42h86.953c3.813,0,6.898-3.084,6.897-6.896c0-3.813-3.085-6.898-6.897-6.898h-86.953	V212.554H494.449z M393.704,494.121H112.151V15.659h281.555L393.704,494.121L393.704,494.121z"/><path fill="#69C299" d="M318.551,116.723h-131.26c-3.812,0-6.897,3.085-6.897,6.897v262.533c0,3.811,3.085,6.896,6.897,6.896h131.26	c3.812,0,6.896-3.086,6.896-6.896V123.62C325.447,119.808,322.363,116.723,318.551,116.723z M311.653,379.256H194.188V130.517	h117.465V379.256z"/></svg>