<svg xmlns="http://www.w3.org/2000/svg" xmlns:xlink="http://www.w3.org/1999/xlink" id="Layer_1" width="113.142" height="42" x="0" y="0" enable-background="new 0 0 113.142 42" version="1.1" viewBox="0 0 113.142 42" xml:space="preserve"><rect width="111.143" height="40.001" x="1" y=".999" fill="#2F3D4A"/><g><defs><rect id="SVGID_1_" width="113.142" height="42"/></defs><clipPath id="SVGID_2_"><use overflow="visible" xlink:href="#SVGID_1_"/></clipPath><rect width="111.143" height="40" x=".999" y="1" fill="none" stroke="#FFF" stroke-miterlimit="10" stroke-width="2" clip-path="url(#SVGID_2_)"/><path fill="#EEF5F9" d="M101.688,26.593c0-1.106,0.894-2,2.001-2c1.106,0,2.001,0.894,2.001,2 c0,1.107-0.895,2-2.001,2C102.581,28.593,101.688,27.7,101.688,26.593" clip-path="url(#SVGID_2_)"/><path fill="#EEF5F9" d="M93.686,26.593c0-1.106,0.894-2,2.001-2c1.105,0,2,0.894,2,2 c0,1.107-0.895,2-2,2C94.579,28.593,93.686,27.7,93.686,26.593" clip-path="url(#SVGID_2_)"/><path fill="#EEF5F9" d="M85.684,26.593c0-1.106,0.894-2,2-2s2.001,0.894,2.001,2 c0,1.107-0.895,2-2.001,2S85.684,27.7,85.684,26.593" clip-path="url(#SVGID_2_)"/><path fill="#EEF5F9" d="M77.681,26.593c0-1.106,0.894-2,2.001-2c1.106,0,2.001,0.894,2.001,2 c0,1.107-0.895,2-2.001,2C78.574,28.593,77.681,27.7,77.681,26.593" clip-path="url(#SVGID_2_)"/><path fill="#EEF5F9" d="M69.679,26.593c0-1.106,0.894-2,2-2c1.107,0,2.001,0.894,2.001,2 c0,1.107-0.894,2-2.001,2C70.572,28.593,69.679,27.7,69.679,26.593" clip-path="url(#SVGID_2_)"/><path fill="#EEF5F9" d="M61.677,26.593c0-1.106,0.894-2,2-2s2.001,0.894,2.001,2 c0,1.107-0.895,2-2.001,2S61.677,27.7,61.677,26.593" clip-path="url(#SVGID_2_)"/><path fill="#EEF5F9" d="M53.674,26.593c0-1.106,0.908-2,2-2c1.108,0,2,0.894,2,2c0,1.107-0.893,2-2,2 C54.582,28.593,53.674,27.7,53.674,26.593" clip-path="url(#SVGID_2_)"/><path fill="#EEF5F9" d="M101.688,33.262c0-1.107,0.894-2,2.001-2c1.106,0,2.001,0.893,2.001,2 c0,1.106-0.895,2-2.001,2C102.581,35.262,101.688,34.368,101.688,33.262" clip-path="url(#SVGID_2_)"/><path fill="#EEF5F9" d="M93.686,33.262c0-1.107,0.894-2,2.001-2c1.105,0,2,0.893,2,2 c0,1.106-0.895,2-2,2C94.579,35.262,93.686,34.368,93.686,33.262" clip-path="url(#SVGID_2_)"/><path fill="#EEF5F9" d="M85.684,33.262c0-1.107,0.894-2,2-2s2.001,0.893,2.001,2 c0,1.106-0.895,2-2.001,2S85.684,34.368,85.684,33.262" clip-path="url(#SVGID_2_)"/><path fill="#F99A1A" d="M77.681,33.262c0-1.107,0.894-2,2.001-2c1.106,0,2.001,0.893,2.001,2 c0,1.106-0.895,2-2.001,2C78.574,35.262,77.681,34.368,77.681,33.262" clip-path="url(#SVGID_2_)"/><path fill="#EEF5F9" d="M69.679,33.262c0-1.107,0.894-2,2-2c1.107,0,2.001,0.893,2.001,2 c0,1.106-0.894,2-2.001,2C70.572,35.262,69.679,34.368,69.679,33.262" clip-path="url(#SVGID_2_)"/><path fill="#F99A1A" d="M61.677,33.262c0-1.107,0.894-2,2-2s2.001,0.893,2.001,2 c0,1.106-0.895,2-2.001,2S61.677,34.368,61.677,33.262" clip-path="url(#SVGID_2_)"/><path fill="#F99A1A" d="M53.674,33.262c0-1.107,0.908-2,2-2c1.108,0,2,0.893,2,2c0,1.106-0.893,2-2,2 C54.582,35.262,53.674,34.368,53.674,33.262" clip-path="url(#SVGID_2_)"/><rect width="40.003" height="11.42" x="7.165" y="24.215" fill="#FFF" clip-path="url(#SVGID_2_)"/><rect width="40.003" height="11.42" x="7.165" y="7.71" fill="#EEF5F9" clip-path="url(#SVGID_2_)"/></g><text transform="matrix(1 0 0 1 56.1758 18.271)"><tspan x="0" y="0" fill="#FFF" font-family="'OpenSans-Bold'" font-size="13.037" letter-spacing="1">VPS 0</tspan><tspan x="39.883" y="0" fill="#FFF" font-family="'OpenSans-Bold'" font-size="13.037">4</tspan></text></svg>