<svg xmlns="http://www.w3.org/2000/svg" xmlns:xlink="http://www.w3.org/1999/xlink" x="0" y="0" preserveAspectRatio="xMinYMin slice" version="1.1" viewBox="0 0 1920 907.9"><style type="text/css">.st2{enable-background:new}.st3{fill:#fff}.st4{fill:#43ce7c}.st6{display:none}.st7{display:inline}.st10,.st11,.st8,.st9{fill-rule:evenodd;clip-rule:evenodd}.st8{fill:#ff6e39}.st9{fill:#42cba2}.st10{fill:#195d9d}.st11{fill:#55d144}</style><g id="Banner_1_"><g id="Video_1_"><g id="Video_img_1_"><g id="Frame__x2B__Img_2_" class="st2"><path d="M10,533L10,533c0-89,32.5-170.8,86.1-234.1C161.7,210.1,265.6,145.3,387,115L766,0.9V0H0v908h1920v-12H373 C173.4,896,10,732.7,10,533z" class="st3"/><path d="M22,522c0-84,27.3-159.7,74.1-223.1C42.5,362.2,10,444,10,533v0c0,199.7,163.4,363,363,363h1547v-9H387 C185.4,887,22,723.6,22,522z" class="st4"/></g></g></g></g><g id="Image_xA0_438_1_" class="st6"><g id="Group_10_1_" class="st7"><g id="Shape_4"><g><rect width="81" height="81" x="-1135.9" y="5141" class="st8"/></g></g><g id="Shape_4_1_"><g><rect width="81" height="81" x="-1135.9" y="5066" class="st9"/></g></g><g id="Shape_4_2_"><g><rect width="81" height="81" x="-1135.9" y="5216" class="st10"/></g></g></g><g id="Group_11_1_" class="st7"><g id="Shape_4_3_"><g><rect width="81" height="81" x="-1099.9" y="3517" class="st11"/></g></g><g id="Shape_4_4_"><g><rect width="81" height="81" x="-1099.9" y="3442" class="st9"/></g></g><g id="Shape_4_5_"><g><rect width="81" height="81" x="-1099.9" y="3592" class="st10"/></g></g></g><g id="Group_12_1_" class="st7"><g id="Shape_4_6_"><g><rect width="81" height="81" x="-1099.9" y="1004" class="st8"/></g></g><g id="Shape_4_7_"><g><rect width="81" height="81" x="-1099.9" y="929" class="st9"/></g></g><g id="Shape_4_8_"><g><rect width="81" height="81" x="-1099.9" y="1079" class="st10"/></g></g></g></g></svg>