<svg xmlns="http://www.w3.org/2000/svg" xmlns:xlink="http://www.w3.org/1999/xlink" id="Layer_1" x="0" y="0" version="1.1" viewBox="0 0 1100.6 522.7" xml:space="preserve" style="enable-background:new 0 0 1100.6 522.7"><style type="text/css">.devices0,.devices1,.devices2{fill:none;stroke:gray;stroke-width:2;stroke-linecap:round;stroke-linejoin:round;stroke-miterlimit:10}.devices1,.devices2{stroke:#ee5586}.devices2{fill-rule:evenodd;clip-rule:evenodd;stroke:gray}.devices3,.devices4,.devices5,.devices6{fill:none}.devices3,.devices4,.devices5,.devices6,.devices7{stroke-linecap:round;stroke-linejoin:round;stroke-miterlimit:10}.devices3{fill-rule:evenodd;clip-rule:evenodd;stroke:#ee55865;stroke-width:2}.devices4{stroke:gray}.devices5{stroke-width:4}.devices5,.devices6,.devices7{stroke:#ee5586}.devices6{stroke-width:3}.devices7{fill:#fff;stroke-width:2}</style><path d="M807.5,83.9c0-0.3,0.2-0.5,0.5-0.5h80.2c0.3,0,0.5,0.2,0.5,0.5v1.6c0,0,0,2-4.1,2h-34.9h-38.1	c-4.1,0-4.1-2-4.1-2L807.5,83.9z" class="devices0"/><path d="M879.9,83.3V41.5c0-1.2-0.9-2.1-2.1-2.1H819c-1.2,0-2.1,1-2.1,2.1v41.8H879.9z" class="devices0"/><rect id="svg-concept" width="49.2" height="31.8" x="823.6" y="46.5" class="devices1"/><path d="M1037.8,203.1h-49.1c-2.9,0-5.3,2.4-5.3,5.3v91.3c0,2.9,2.4,5.3,5.3,5.3h49.1c2.9,0,5.3-2.4,5.3-5.3v-91.3	C1043,205.5,1040.7,203.1,1037.8,203.1z" class="devices2"/><rect id="svg-concept" width="43.2" height="73.7" x="991.6" y="213.6" class="devices3"/><line x1="1005.8" x2="1002.6" y1="224.4" y2="227.6" class="devices4"/><line x1="1018.6" x2="1001" y1="224.4" y2="241.9" class="devices4"/><path id="svg-concept" d="M228.8,308.2c-11.6,6.7-22.9,0.9-22.9-12.5v-78.2c0-13.4,11.4-19.2,23-12.5l67.9,39.4	c11.6,6.7,11.6,17.7,0,24.4L228.8,308.2z" class="devices5"/><circle id="svg-concept" cx="1013.2" cy="256.6" r="82.2" class="devices5"/><circle cx="847.3" cy="66.9" r="59.2" class="devices0"/><circle cx="847.3" cy="453.7" r="59.2" class="devices0"/><line id="svg-concept" x1="525.5" x2="931" y1="256.6" y2="256.6" class="devices6"/><path d="M387.6,469.7c-38.3,23.8-83.4,37.5-131.8,37.5C117.4,507.2,5.2,395,5.2,256.6	S117.3,6,255.6,6c37.7,0,73.4,8.3,105.4,23.3" class="devices0"/><line x1="813.3" x2="881.2" y1="462.7" y2="462.7" class="devices0"/><line x1="847.3" x2="847.3" y1="478.6" y2="488.2" class="devices0"/><line x1="862.4" x2="832.2" y1="488.2" y2="488.2" class="devices0"/><rect id="svg-concept" width="69.2" height="52.9" x="812.6" y="425.7" class="devices1"/><path d="M847.3,126.1c0,0-44.8,130.9-321.7,130.9" class="devices0"/><path d="M525.5,257c287.1-0.4,321.7,137.5,321.7,137.5" class="devices0"/><g><path id="svg-concept" d="M402,53.2c63.1,45.4,104.2,119.6,104.2,203.4c0,68.6-27.6,130.7-72.3,176.1" class="devices0"/><animate attributeName="opacity" begin="1s" dur="2s" repeatCount="indefinite" values="0;3;0"/></g><g><path id="svg-concept" d="M349.9,102.6c55.7,30.3,93.6,89.3,93.6,157.2c0,51.8-22,98.3-57.2,131" class="devices0"/><animate attributeName="opacity" begin="2s" dur="2s" repeatCount="indefinite" values="0;3;0"/></g><g><path id="svg-concept" d="M316.7,149.8c37.3,22.5,62.1,63.3,62.1,110c0,39.8-18.2,75.5-46.6,99.1" class="devices0"/><animate attributeName="opacity" begin="3s" dur="2s" repeatCount="indefinite" values="0;3;0"/></g><g><path id="svg-concept" d="M540.8,257c0,4.2-3.3,7.6-7.6,7.6c-4.2,0-7.6-3.3-7.6-7.6c0-4.3,3.3-7.6,7.6-7.6 C537.4,249.4,540.8,252.7,540.8,257z" class="devices7"/><animateMotion fill="remove" accumulate="none" additive="replace" begin="0s" calcMode="paced" dur="5s" path="M0, 0 390 0 0 0" repeatCount="indefinite" restart="always"/></g></svg>