<svg xmlns="http://www.w3.org/2000/svg" xmlns:xlink="http://www.w3.org/1999/xlink" style="enable-background:new 0 0 716.6 630.5" id="animaclock" x="0" y="0" version="1.1" viewBox="0 0 716.6 630.5" xml:space="preserve"><style type="text/css">.ba0,.ba1{fill:#fff;stroke:gray;stroke-miterlimit:10}.ba1{fill:none;stroke:#d8d8d8}.ba2,.ba3,.ba4,.ba5,.ba6,.ba7{stroke-linecap:round;stroke-linejoin:round;stroke-miterlimit:10}.ba2{fill:#fff;stroke:#ee5586;stroke-width:2}.ba3,.ba4,.ba5{fill:none}.ba3{stroke:#ee5586;stroke-width:3}.ba4{stroke:gray}.ba5{stroke:#ee5586}.ba6,.ba7{fill:#fff;stroke:gray}.ba7{stroke:#ee5586;stroke-width:1}</style><circle cx="371" cy="312.9" r="300" class="ba0"/><g><path id="svg-concept" d="M597.6,313.3c0,125.4-101.7,227.1-227.1,227.1S143.4,438.7,143.4,313.3S245.1,86.2,370.5,86.2 C495.9,86.1,597.6,187.8,597.6,313.3z" class="ba3"/><path d="M382.2,49.7c0,5.8-4.7,10.6-10.5,10.6s-10.5-4.7-10.5-10.6s4.7-10.5,10.5-10.5 C377.5,39.1,382.2,43.8,382.2,49.7z" class="ba0"/><path d="M375.6,49.7c0,2.2-1.8,3.9-3.9,3.9c-2.2,0-3.9-1.8-3.9-3.9s1.7-3.9,3.9-3.9C373.8,45.8,375.6,47.5,375.6,49.7z" class="ba0"/><line x1="382.2" x2="375.6" y1="49.7" y2="49.7" class="ba0"/><line x1="367.7" x2="361.1" y1="50.7" y2="50.7" class="ba0"/><path d="M361.1,577.4c0-5.8,4.7-10.6,10.5-10.6s10.5,4.7,10.5,10.6c0,5.8-4.7,10.5-10.5,10.5 C365.8,587.9,361.1,583.2,361.1,577.4z" class="ba0"/><path d="M367.7,577.4c0-2.2,1.8-3.9,3.9-3.9c2.2,0,3.9,1.8,3.9,3.9s-1.7,3.9-3.9,3.9 C369.5,581.3,367.7,579.5,367.7,577.4z" class="ba0"/><line x1="361.1" x2="367.7" y1="577.4" y2="577.4" class="ba0"/><line x1="375.6" x2="382.2" y1="576.4" y2="576.4" class="ba0"/><path d="M192.5,120.3c4.1,4.1,4.1,10.8,0,14.9c-4.1,4.1-10.8,4.1-14.9,0c-4.1-4.1-4.1-10.8,0-14.9 C181.7,116.2,188.3,116.2,192.5,120.3z" class="ba0"/><path d="M187.8,125c1.5,1.5,1.5,4,0,5.5s-4,1.5-5.5,0s-1.5-4,0-5.5S186.2,123.5,187.8,125z" class="ba0"/><line x1="192.5" x2="187.8" y1="120.3" y2="125" class="ba0"/><line x1="183" x2="178.3" y1="131.3" y2="135.9" class="ba0"/><path d="M564.9,492.8c4.1,4.1,4.1,10.8,0,14.9s-10.8,4.1-14.9,0c-4.1-4.1-4.1-10.8,0-14.9 C554.1,488.7,560.8,488.7,564.9,492.8z" class="ba0"/><path d="M560.2,497.5c1.5,1.5,1.5,4,0,5.5s-4,1.5-5.5,0s-1.5-4,0-5.5S558.7,495.9,560.2,497.5z" class="ba0"/><line x1="564.9" x2="560.3" y1="492.8" y2="497.5" class="ba0"/><line x1="555.4" x2="550.7" y1="503.7" y2="508.4" class="ba0"/><path d="M565.8,135.1c-4.1,4.1-10.8,4.1-14.9,0c-4.1-4.1-4.1-10.8,0-14.9s10.8-4.1,14.9,0S570,131,565.8,135.1z" class="ba0"/><path d="M561.1,130.4c-1.5,1.5-4,1.5-5.5,0s-1.5-4,0-5.5s4-1.5,5.5,0C562.7,126.4,562.7,128.9,561.1,130.4z" class="ba0"/><line x1="565.8" x2="561.1" y1="135.1" y2="130.5" class="ba0"/><line x1="554.9" x2="550.2" y1="125.6" y2="121" class="ba0"/><path d="M193.4,507.6c-4.1,4.1-10.8,4.1-14.9,0c-4.1-4.1-4.1-10.8,0-14.9s10.8-4.1,14.9,0 C197.5,496.8,197.5,503.5,193.4,507.6z" class="ba0"/><path d="M188.7,502.9c-1.5,1.5-4,1.5-5.5,0s-1.5-4,0-5.5s4-1.5,5.5,0S190.2,501.4,188.7,502.9z" class="ba0"/><line x1="193.4" x2="188.7" y1="507.6" y2="502.9" class="ba0"/><line x1="182.4" x2="177.7" y1="498.1" y2="493.4" class="ba0"/></g><g><path id="svg-concept" d="M677.1,313.4c0,2.8-2.2,5-5,5s-5-2.2-5-5s2.2-5,5-5C674.8,308.4,677.1,310.6,677.1,313.4z" class="ba2"/><animateTransform attributeName="transform" dur="2s" from="0 345 320" repeatCount="indefinite" to="-170 372 330" type="rotate"/></g><g><line x1="371.7" x2="371.7" y1="104.1" y2="124.8" class="ba0"/><line x1="414.3" x2="410.1" y1="108.9" y2="129" class="ba1"/><line x1="455.8" x2="447.5" y1="122.4" y2="141.2" class="ba1"/><line x1="493.4" x2="481.4" y1="144.2" y2="160.9" class="ba1"/><line x1="525.8" x2="510.6" y1="173.4" y2="187.2" class="ba1"/><line x1="551.4" x2="533.7" y1="208.6" y2="218.9" class="ba1"/><line x1="569.2" x2="549.7" y1="248.5" y2="254.8" class="ba1"/><line x1="578.2" x2="557.9" y1="291" y2="293.2" class="ba1"/><line x1="578.2" x2="559.4" y1="334.4" y2="332.5" class="ba0"/><line x1="569.1" x2="549.9" y1="377.5" y2="371.2" class="ba1"/><line x1="551.4" x2="534" y1="417.1" y2="407.1" class="ba1"/><line x1="525.7" x2="510.8" y1="452.4" y2="439" class="ba1"/><line x1="493.3" x2="481.6" y1="481.6" y2="465.4" class="ba1"/><line x1="455.7" x2="447.7" y1="503.3" y2="485.2" class="ba1"/><line x1="414.3" x2="410.3" y1="516.8" y2="497.5" class="ba1"/><line x1="163.4" x2="183.1" y1="291" y2="293.1" class="ba1"/><line x1="172.5" x2="191.5" y1="248" y2="254.1" class="ba1"/><line x1="190.2" x2="207.6" y1="208.3" y2="218.4" class="ba1"/><line x1="215.9" x2="231" y1="173" y2="186.6" class="ba1"/><line x1="248.3" x2="260.2" y1="143.9" y2="160.4" class="ba1"/><line x1="285.9" x2="294.2" y1="122.1" y2="140.9" class="ba1"/><line x1="327.4" x2="331.7" y1="108.9" y2="128.8" class="ba1"/><line x1="370.5" x2="370.5" y1="521.4" y2="501.7" class="ba0"/><line x1="327.6" x2="331.5" y1="516.6" y2="497.7" class="ba1"/><line x1="286.1" x2="293.8" y1="503.1" y2="485.4" class="ba1"/><line x1="248.4" x2="259.6" y1="481.2" y2="465.6" class="ba1"/><line x1="216.1" x2="230.3" y1="452.1" y2="439.2" class="ba1"/><line x1="190.4" x2="207.1" y1="416.9" y2="407.2" class="ba1"/><line x1="172.7" x2="191.1" y1="377" y2="371" class="ba1"/><line x1="163.7" x2="183" y1="334.5" y2="332.4" class="ba0"/></g><g><line id="svg-concept" x1="462.3" x2="371" y1="313.3" y2="313.3" class="ba3"/><animateTransform fill="remove" attributeName="transform" dur="8s" from="0 370 315" repeatCount="indefinite" to="-360 371 311" type="rotate"/></g><g id="anima"><line id="svg-concept" x1="371.6" x2="371" y1="148.1" y2="313.3" class="ba3"/><animateTransform fill="remove" attributeName="transform" dur="1s" from="0 370 315" repeatCount="indefinite" to="-360 371 311" type="rotate"/></g><g><circle id="svg-concept" cx="61" cy="288.4" r="24.5" class="ba2"/><line x1="61" x2="61" y1="284.4" y2="295.7" class="ba4"/><path d="M49.4,260v-7.5c0-4.1,3.3-7.5,7.5-7.5h8.3c4.2,0,7.5,3.4,7.5,7.5v7.5" class="ba4"/></g><g><circle id="svg-concept" cx="72.4" cy="335.6" r="3.9" class="ba2"/><line id="svg-concept" x1="72.4" x2="72.4" y1="324.8" y2="331.5" class="ba2"/><line id="svg-concept" x1="41.6" x2="68.4" y1="335.6" y2="335.6" class="ba2"/><line id="svg-concept" x1="76.4" x2="103.2" y1="335.6" y2="335.6" class="ba2"/></g><path d="M35,300.8" class="ba4"/><g><path d="M135.6,318.9c0,2-1.5,3.7-3.4,3.7H12.6c-1.9,0-3.4-1.7-3.4-3.7v-13.1c0-2,1.5-3.7,3.4-3.7h119.6 c1.9,0,3.4,1.7,3.4,3.7L135.6,318.9L135.6,318.9z" class="ba6"/><line x1="16.2" x2="16.2" y1="302.1" y2="322.6" class="ba4"/><path id="svg-concept" d="M119.7,312.4c0,2.4-2,4.4-4.4,4.4s-4.4-2-4.4-4.4s2-4.4,4.4-4.4S119.7,310,119.7,312.4z" class="ba7"/><path id="svg-concept" d="M116.9,312.4c0,0.9-0.7,1.6-1.6,1.6s-1.6-0.7-1.6-1.6s0.7-1.6,1.6-1.6C116.2,310.8,116.9,311.5,116.9,312.4z" class="ba7"/><line id="svg-concept" x1="119.7" x2="116.9" y1="312.4" y2="312.4" class="ba5"/><line id="svg-concept" x1="113.7" x2="110.9" y1="312.4" y2="312.4" class="ba5"/></g><g><path d="M702.8,268.6v38.9v2.7c0,5.7-13.9,10.3-31.2,10.3c-17.2,0-31.2-4.6-31.2-10.3v-2.7v-38.9" class="ba6"/><path id="svg-concept" d="M691.2,288.1c0,1.4-1.2,2.6-2.6,2.6c-1.4,0-2.6-1.2-2.6-2.6s1.2-2.6,2.6-2.6S691.2,286.7,691.2,288.1z" class="ba5"/><path id="svg-concept" d="M691.2,309.1c0,1.4-1.2,2.6-2.6,2.6c-1.4,0-2.6-1.2-2.6-2.6s1.2-2.6,2.6-2.6S691.2,307.6,691.2,309.1z" class="ba5"/><path d="M702.8,268.6c0,5.7-13.9,10.3-31.2,10.3c-17.2,0-31.2-4.6-31.2-10.3c0-5.7,13.9-10.3,31.2-10.3 C688.8,258.3,702.8,262.9,702.8,268.6z" class="ba6"/><path d="M702.8,289.4c0,5.7-13.9,10.3-31.2,10.3c-17.2,0-31.2-4.6-31.2-10.3" class="ba4"/><path id="svg-concept" d="M674.1,334.5c0,1.8-1.4,3.2-3.2,3.2s-3.2-1.4-3.2-3.2c0-1.8,1.4-3.2,3.2-3.2 C672.6,331.3,674.1,332.7,674.1,334.5z" class="ba2"/><line id="svg-concept" x1="670.9" x2="670.9" y1="324.8" y2="331.3" class="ba2"/><line id="svg-concept" x1="649.7" x2="667.6" y1="334.5" y2="334.5" class="ba2"/><line id="svg-concept" x1="674.1" x2="692" y1="334.5" y2="334.5" class="ba2"/></g><path id="svg-concept" d="M376.1,313.3c0,2.8-2.2,5-5,5s-5-2.2-5-5s2.2-5,5-5C373.8,308.3,376.1,310.5,376.1,313.3z" class="ba2"/></svg>