<svg xmlns="http://www.w3.org/2000/svg" xmlns:xlink="http://www.w3.org/1999/xlink" id="Layer_1" x="0" y="0" version="1.1" viewBox="0 0 1063.1 259" xml:space="preserve" style="enable-background:new 0 0 1063.1 259"><style type="text/css">.bal0,.bal1{stroke-miterlimit:10}.bal0{fill:none;stroke:gray;stroke-linecap:round;stroke-linejoin:round}.bal1{fill:#fff;stroke:#ee5586;stroke-width:2}.bal1,.bal2{stroke-linecap:round;stroke-linejoin:round}.bal2,.bal3,.bal4{fill:none;stroke:gray;stroke-miterlimit:10}.bal4{stroke:#ee5586;stroke-width:1;stroke-linecap:round;stroke-linejoin:round}.bal5{fill:#ee5586}</style><rect width="55.7" height="37.1" x="112.6" y="41.6" class="bal0"/><line x1="107.9" x2="172.9" y1="87.4" y2="87.4" class="bal0"/><line id="svg-concept" x1="121.6" x2="134.7" y1="55.2" y2="55.2" class="bal1"/><line id="svg-concept" x1="121.6" x2="147.9" y1="64.7" y2="64.7" class="bal1"/><line id="svg-concept" x1="240.9" x2="254" y1="55.2" y2="55.2" class="bal1"/><line id="svg-concept" x1="240.9" x2="259" y1="64.7" y2="64.7" class="bal1"/><line id="svg-concept" x1="8.6" x2="21.8" y1="55.2" y2="55.2" class="bal1"/><line id="svg-concept" x1="8.6" x2="26.7" y1="64.7" y2="64.7" class="bal1"/><g><circle cx="514.2" cy="83.8" r="3.7" class="bal2"/><line x1="514.2" x2="514.2" y1="73.6" y2="79.9" class="bal2"/><line x1="485.1" x2="510.4" y1="83.8" y2="83.8" class="bal2"/><line x1="518" x2="543.2" y1="83.8" y2="83.8" class="bal2"/></g><g><circle cx="779.2" cy="83.8" r="3.7" class="bal2"/><line x1="779.2" x2="779.2" y1="73.6" y2="79.9" class="bal2"/><line x1="750.2" x2="775.4" y1="83.8" y2="83.8" class="bal2"/><line x1="783" x2="808.3" y1="83.8" y2="83.8" class="bal2"/></g><path d="M744,51" class="bal0"/><path d="M760.8,33.9c0-0.8-0.1-1.5,0-2.3c1.2-12.4,12.1-22.1,24.8-22.1h-0.4c13.5,0,24.4,10.9,24.4,24.4	c0,7-2.9,13.3-7.7,17.8" class="bal0"/><path d="M785.4,19.2c-7.6,0.1-14.2,6-14.9,13.3l0,0.2c0,0.4,0,0.8,0,1.1" class="bal0"/><path d="M753.5,24.1c-9.4,0-17.1,7.6-17.1,17.1c0,4.2,1.5,8,4,11" class="bal0"/><polyline points="37 74.5 .8 74.5 .8 36.5 37 36.5" class="bal0"/><line x1="25.7" x2="25.7" y1="74.5" y2="81.4" class="bal0"/><line x1="37" x2="13.6" y1="81.4" y2="81.4" class="bal0"/><path d="M57.4,27.9H40.4c-1.9,0-3.4,1.2-3.4,2.6v54.4c0,1.4,1.5,2.6,3.4,2.6h17.1c1.9,0,3.4-1.2,3.4-2.6V30.5	C60.8,29.1,59.3,27.9,57.4,27.9z" class="bal0"/><path d="M49.5,37.1c2.3,0.3,3.9,2.4,3.6,4.7c-0.3,2.3-2.4,3.9-4.7,3.6c-2.3-0.3-3.9-2.4-3.6-4.7	C45.1,38.4,47.2,36.8,49.5,37.1z" class="bal0"/><path d="M235.3,86.5V37c0-0.5,0.4-0.9,0.9-0.9h28.5c0.5,0,0.9,0.4,0.9,0.9v49.5c0,0.5-0.4,0.9-0.9,0.9h-28.5	C235.7,87.4,235.3,87,235.3,86.5" class="bal0"/><line x1="248.3" x2="252.6" y1="40.7" y2="40.7" class="bal0"/><path d="M252.6,80.8c0,1.2-1,2.1-2.1,2.1c-1.2,0-2.1-1-2.1-2.1c0-1.2,1-2.1,2.1-2.1C251.6,78.6,252.6,79.6,252.6,80.8z" class="bal0"/><line x1="140.7" x2="887.6" y1="211.8" y2="211.8" class="bal3"/><line x1="140.7" x2="140.7" y1="99" y2="167.6" class="bal3"/><g><g><line x1="130" x2="130" y1="256.1" y2="234.9" class="bal0"/><line x1="130" x2="134.7" y1="234.9" y2="234.9" class="bal0"/><line x1="130" x2="134.7" y1="256.1" y2="256.1" class="bal0"/></g><g><line x1="146.7" x2="151.4" y1="234.9" y2="234.9" class="bal0"/><line x1="151.4" x2="151.4" y1="234.9" y2="256.1" class="bal0"/><line x1="151.4" x2="146.7" y1="256.1" y2="256.1" class="bal0"/></g></g><g><line id="svg-concept" x1="140.7" x2="140.7" y1="251.4" y2="238.4" class="bal4"/><line id="svg-concept" x1="140.7" x2="137.1" y1="238.4" y2="238.4" class="bal4"/></g><g><g><line x1="877.4" x2="877.4" y1="256.1" y2="234.9" class="bal0"/><line x1="877.4" x2="882.1" y1="234.9" y2="234.9" class="bal0"/><line x1="877.4" x2="882.1" y1="256.1" y2="256.1" class="bal0"/></g><g><line x1="894.1" x2="898.8" y1="234.9" y2="234.9" class="bal0"/><line x1="898.8" x2="898.8" y1="234.9" y2="256.1" class="bal0"/><line x1="898.8" x2="894.1" y1="256.1" y2="256.1" class="bal0"/></g></g><line id="svg-concept" x1="891.3" x2="891.3" y1="252" y2="239" class="bal4"/><line id="svg-concept" x1="884.9" x2="891.3" y1="245.5" y2="245.5" class="bal4"/><line id="svg-concept" x1="891.3" x2="885" y1="239" y2="239" class="bal4"/><line id="svg-concept" x1="884.9" x2="891.1" y1="252" y2="252" class="bal4"/><g><g><line x1="503.4" x2="503.4" y1="256.1" y2="234.9" class="bal0"/><line x1="503.4" x2="508.2" y1="234.9" y2="234.9" class="bal0"/><line x1="503.4" x2="508.2" y1="256.1" y2="256.1" class="bal0"/></g><g><line x1="520.1" x2="524.9" y1="234.9" y2="234.9" class="bal0"/><line x1="524.9" x2="524.9" y1="234.9" y2="256.1" class="bal0"/><line x1="524.9" x2="520.1" y1="256.1" y2="256.1" class="bal0"/></g></g><g><line id="svg-concept" x1="517.4" x2="517.4" y1="245.5" y2="239" class="bal4"/><line id="svg-concept" x1="511" x2="517.4" y1="245.5" y2="245.5" class="bal4"/><line id="svg-concept" x1="517.4" x2="511.1" y1="239" y2="239" class="bal4"/><g><line id="svg-concept" x1="510.9" x2="510.9" y1="245.5" y2="252" class="bal4"/><line id="svg-concept" x1="510.9" x2="517.2" y1="252" y2="252" class="bal4"/></g></g><line x1="140.7" x2="140.7" y1="167.6" y2="211.8" class="bal3"/><line x1="250.7" x2="140.7" y1="99" y2="167.6" class="bal3"/><line x1="514.2" x2="514.2" y1="99" y2="211.8" class="bal3"/><line x1="888.1" x2="888.1" y1="167.6" y2="211.8" class="bal3"/><line x1="31.1" x2="140.7" y1="99" y2="167.6" class="bal3"/><line x1="998.1" x2="888.1" y1="99" y2="167.6" class="bal3"/><line x1="778.5" x2="888.1" y1="99" y2="167.6" class="bal3"/><path d="M573.7,16.7c0,1.9-1.4,3.5-3.2,3.5H457.8c-1.8,0-3.2-1.6-3.2-3.5V4.3c0-1.9,1.4-3.5,3.2-3.5h112.8	c1.8,0,3.2,1.6,3.2,3.5V16.7z" class="bal0"/><line x1="461.2" x2="461.2" y1=".9" y2="20.1" class="bal0"/><line x1="567.2" x2="567.2" y1=".9" y2="20.2" class="bal0"/><g><path id="svg-concept" d="M558.7,10.5c0,2.3-1.9,4.1-4.1,4.1c-2.3,0-4.1-1.9-4.1-4.1s1.8-4.1,4.1-4.1C556.9,6.4,558.7,8.2,558.7,10.5z" class="bal4"/><path id="svg-concept" d="M556.1,10.5c0,0.8-0.7,1.5-1.5,1.5c-0.8,0-1.5-0.7-1.5-1.5c0-0.8,0.7-1.5,1.5-1.5C555.5,9,556.1,9.7,556.1,10.5 z" class="bal4"/><line id="svg-concept" x1="558.7" x2="556.1" y1="10.5" y2="10.5" class="bal4"/><line id="svg-concept" x1="553.1" x2="550.5" y1="10.5" y2="10.5" class="bal4"/></g><path d="M573.7,42.4c0,1.9-1.4,3.5-3.2,3.5H457.8c-1.8,0-3.2-1.6-3.2-3.5V30c0-1.9,1.4-3.5,3.2-3.5h112.8	c1.8,0,3.2,1.6,3.2,3.5V42.4z" class="bal0"/><line x1="461.2" x2="461.2" y1="26.5" y2="45.8" class="bal0"/><line x1="567.2" x2="567.2" y1="26.5" y2="45.8" class="bal0"/><g><path id="svg-concept" d="M558.7,36.2c0,2.3-1.9,4.1-4.1,4.1c-2.3,0-4.1-1.9-4.1-4.1c0-2.3,1.8-4.1,4.1-4.1 C556.9,32.1,558.7,33.9,558.7,36.2z" class="bal4"/><path id="svg-concept" d="M556.1,36.2c0,0.8-0.7,1.5-1.5,1.5c-0.8,0-1.5-0.7-1.5-1.5s0.7-1.5,1.5-1.5C555.5,34.7,556.1,35.3,556.1,36.2z" class="bal4"/><line id="svg-concept" x1="558.7" x2="556.1" y1="36.2" y2="36.2" class="bal4"/><line id="svg-concept" x1="553.1" x2="550.5" y1="36.2" y2="36.2" class="bal4"/></g><path d="M573.7,68c0,1.9-1.4,3.5-3.2,3.5H457.8c-1.8,0-3.2-1.6-3.2-3.5V55.7c0-1.9,1.4-3.5,3.2-3.5h112.8	c1.8,0,3.2,1.6,3.2,3.5V68z" class="bal0"/><line x1="461.2" x2="461.2" y1="52.2" y2="71.4" class="bal0"/><line x1="567.2" x2="567.2" y1="52.2" y2="71.5" class="bal0"/><g><path id="svg-concept" d="M558.7,61.8c0,2.3-1.9,4.1-4.1,4.1c-2.3,0-4.1-1.9-4.1-4.1c0-2.3,1.8-4.1,4.1-4.1 C556.9,57.7,558.7,59.6,558.7,61.8z" class="bal4"/><path id="svg-concept" d="M556.1,61.9c0,0.8-0.7,1.5-1.5,1.5c-0.8,0-1.5-0.7-1.5-1.5c0-0.8,0.7-1.5,1.5-1.5 C555.5,60.3,556.1,61,556.1,61.9z" class="bal4"/><line id="svg-concept" x1="558.7" x2="556.1" y1="61.9" y2="61.9" class="bal4"/><line id="svg-concept" x1="553.1" x2="550.5" y1="61.9" y2="61.9" class="bal4"/></g><g><path d="M838.8,68c0,1.9-1.4,3.5-3.2,3.5H722.8c-1.8,0-3.2-1.6-3.2-3.5V55.7c0-1.9,1.4-3.5,3.2-3.5h112.8 c1.8,0,3.2,1.6,3.2,3.5V68z" class="bal0"/><line x1="726.2" x2="726.2" y1="52.2" y2="71.4" class="bal0"/><path id="svg-concept" d="M823.8,61.8c0,2.3-1.9,4.1-4.1,4.1c-2.3,0-4.1-1.9-4.1-4.1c0-2.3,1.8-4.1,4.1-4.1 C821.9,57.7,823.8,59.6,823.8,61.8z" class="bal4"/><path id="svg-concept" d="M821.2,61.9c0,0.8-0.7,1.5-1.5,1.5c-0.8,0-1.5-0.7-1.5-1.5c0-0.8,0.7-1.5,1.5-1.5 C820.5,60.3,821.2,61,821.2,61.9z" class="bal4"/><line id="svg-concept" x1="823.8" x2="821.2" y1="61.9" y2="61.9" class="bal4"/><line id="svg-concept" x1="818.1" x2="815.5" y1="61.9" y2="61.9" class="bal4"/></g><g><circle cx="998.1" cy="83.8" r="3.7" class="bal2"/><line x1="998.1" x2="998.1" y1="73.6" y2="79.9" class="bal2"/><line x1="969" x2="994.3" y1="83.8" y2="83.8" class="bal2"/><line x1="1001.9" x2="1027.1" y1="83.8" y2="83.8" class="bal2"/></g><path d="M962.8,51" class="bal0"/><path d="M979.7,33.9c0-0.8-0.1-1.5,0-2.3c1.2-12.4,12.1-22.1,24.8-22.1h-0.4c13.5,0,24.4,10.9,24.4,24.4	c0,7-2.9,13.3-7.7,17.8" class="bal0"/><path d="M1004.2,19.2c-7.6,0.1-14.2,6-14.9,13.3l0,0.2c0,0.4,0,0.8,0,1.1" class="bal0"/><path d="M972.4,24.1c-9.4,0-17.1,7.6-17.1,17.1c0,4.2,1.5,8,4,11" class="bal0"/><g><path d="M1057.6,68c0,1.9-1.4,3.5-3.2,3.5H941.7c-1.8,0-3.2-1.6-3.2-3.5V55.7c0-1.9,1.4-3.5,3.2-3.5h112.8 c1.8,0,3.2,1.6,3.2,3.5V68z" class="bal0"/><line x1="945.1" x2="945.1" y1="52.2" y2="71.4" class="bal0"/><path id="svg-concept" d="M1042.6,61.8c0,2.3-1.9,4.1-4.1,4.1c-2.3,0-4.1-1.9-4.1-4.1c0-2.3,1.8-4.1,4.1-4.1 C1040.8,57.7,1042.6,59.6,1042.6,61.8z" class="bal4"/><path id="svg-concept" d="M1040,61.9c0,0.8-0.7,1.5-1.5,1.5c-0.8,0-1.5-0.7-1.5-1.5c0-0.8,0.7-1.5,1.5-1.5 C1039.4,60.3,1040,61,1040,61.9z" class="bal4"/><line id="svg-concept" x1="1042.6" x2="1040" y1="61.9" y2="61.9" class="bal4"/><line id="svg-concept" x1="1037" x2="1034.4" y1="61.9" y2="61.9" class="bal4"/></g><circle id="svg-ico" cx="140.7" cy="211.8" r="3" class="bal5"/><circle id="svg-ico" cx="888.1" cy="211.8" r="3" class="bal5"/><g><path id="svg-concept" d="M35.1,99c0,2.2-1.8,4-4,4c-2.2,0-4-1.8-4-4c0-2.2,1.8-4,4-4C33.3,95,35.1,96.8,35.1,99z" class="bal1"/><animateMotion begin="0s" dur="4s" path="M0 0 105 66 0 0" repeatCount="indefinite"/></g><g><path id="svg-concept" d="M144.7,136.9c0,2.2-1.8,4-4,4c-2.2,0-4-1.8-4-4s1.8-4,4-4C142.9,132.9,144.7,134.7,144.7,136.9z" class="bal1"/><animateMotion begin="0s" dur="3s" path="M0, 67 0 -35 0 67" repeatCount="indefinite"/></g><g><path id="svg-concept" d="M254.8,99c0,2.2-1.8,4-4,4c-2.2,0-4-1.8-4-4c0-2.2,1.8-4,4-4C253,95,254.8,96.8,254.8,99z" class="bal1"/><animateMotion begin="0s" dur="3s" path="M0 0 -105 66 0 0" repeatCount="indefinite"/></g><g><path id="svg-concept" d="M317,211.8c0,2.2-1.8,4-4,4c-2.2,0-4-1.8-4-4c0-2.2,1.8-4,4-4C315.2,207.8,317,209.6,317,211.8z" class="bal1"/><animateMotion begin="0s" dur="12s" path="M570, 0 -165 0 570 0" repeatCount="indefinite"/></g><g><path id="svg-concept" d="M518.2,139.9c0,2.2-1.8,4-4,4c-2.2,0-4-1.8-4-4c0-2.2,1.8-4,4-4C516.4,135.9,518.2,137.7,518.2,139.9z" class="bal1"/><animateMotion begin="0s" dur="4s" path="M0, 67 0 -35 0 67" repeatCount="indefinite"/></g><g><path id="svg-concept" d="M783.2,99c0,2.2-1.8,4-4,4c-2.2,0-4-1.8-4-4s1.8-4,4-4C781.4,95,783.2,96.8,783.2,99z" class="bal1"/><animateMotion begin="0s" dur="3s" path="M0 0 105 66 0 0" repeatCount="indefinite"/></g><g><path id="svg-concept" d="M1002.1,99c0,2.2-1.8,4-4,4c-2.2,0-4-1.8-4-4s1.8-4,4-4C1000.3,95,1002.1,96.8,1002.1,99z" class="bal1"/><animateMotion begin="0s" dur="4s" path="M0 0 -105 66 0 0" repeatCount="indefinite"/></g></svg>