<svg xmlns="http://www.w3.org/2000/svg" xmlns:xlink="http://www.w3.org/1999/xlink" id="Layer_1" x="0" y="0" version="1.1" viewBox="0 0 408.8 419.6" xml:space="preserve" style="enable-background:new 0 0 408.8 419.6"><style type="text/css">.cock0,.cock1,.cock2{fill:none;stroke:gray;stroke-linecap:round;stroke-linejoin:round;stroke-miterlimit:10}.cock1,.cock2{stroke:#ee5586;stroke-width:2}.cock2{stroke-width:3}</style><circle cx="198.1" cy="236.6" r="34.9" class="cock0"/><circle cx="293" cy="236.6" r="34.9" class="cock0"/><path d="M221.4,234.7c1,2.1,1.5,4.5,1.5,7c0,9.2-7.4,16.6-16.6,16.6c-9.2,0-16.6-7.4-16.6-16.6c0-6.3,3.6-11.9,8.8-14.7" class="cock0"/><path d="M293.4,226.7c5.5,2.7,9.4,8.4,9.4,15c0,9.2-7.4,16.6-16.6,16.6c-9.2,0-16.6-7.4-16.6-16.6	c0-2.8,0.7-5.4,1.9-7.7" class="cock0"/><line x1="169" x2="233" y1="217.3" y2="238.4" class="cock0"/><line x1="258.1" x2="322" y1="238.4" y2="217.3" class="cock0"/><circle cx="207.4" cy="241.7" r="7.9" class="cock0"/><circle cx="286.2" cy="241.7" r="7.9" class="cock0"/><path d="M246.4,324.6c6.7-21.6,60.5-41.9,0-83.7l-0.3-0.2c-61.5,42.4-5.3,62.9,0,84.9L246.4,324.6z" class="cock0"/><path id="svg-concept" d="M219.6,287.6c-15.1,5.3-15.6,39.7-61.7,35.6c1.6,7.5,46.5,34.4,76.5-15.2" class="cock1"/><path id="svg-concept" d="M273.2,287.6c15.1,5.3,15.6,39.7,61.9,35.6c-1.6,7.5-46.6,34.4-76.7-15.2" class="cock1"/><path id="svg-concept" d="M276,327.6c2.6,7,4,14.9,4,23.4c0,27.1-14.9,49-33.2,49c-18.3,0-33.2-21.9-33.2-49c0-8.5,1.5-16.4,4-23.4" class="cock1"/><path d="M177.3,265.4c-6.4,39.2-49.1,112-51.9,116.7c-2.8,4.7,1.1,5.9,6.2,0c44.3-38.3,9.7,43.4,25,22.6	c11.6-15.3,35.2-58.1,33.7-37.5c-1.6,20.6-16.5,57.6-3.8,45.5c12.7-12.1,20.9-33,30.3-41.1" class="cock0"/><path d="M316.1,265.4c6.4,39.2,49.1,112,51.9,116.7c2.8,4.7-1.1,5.9-6.2,0c-44.3-38.3-9.7,43.4-25,22.6	c-11.6-15.3-35.2-58.1-33.7-37.5c1.6,20.6,16.5,57.6,3.8,45.5c-12.7-12.1-20.9-33-30.3-41.1" class="cock0"/><path d="M219.6,287.6c-8.5-3.5-16.1-8.7-22.5-15.2" class="cock0"/><path d="M296.1,271.5c-6.4,6.8-14.2,12.2-23,15.9" class="cock0"/><path d="M297.6,178.2c7.5,8.4,12.9,18.6,15.6,29.9" class="cock0"/><path id="svg-concept" d="M297.6,178c15.2-11,24.9-28.9,24.9-49.1c0-33.6-27.2-60.8-60.8-60.8c-11.5,0-22.2,3.2-31.4,8.7l-0.9,0.4	c-5.4-42.1-41.3-74.2-84.8-74.2c-47.2,0-85.5,38.3-85.5,85.5c0,5.4,0.5,10.5,1.4,15.7l0,0.2c-18,3.8-31.5,19.8-31.5,39	c0,22,17.8,39.8,39.8,39.8c5.5,0,10.8-1.1,15.5-3.1l-0.2,0.1c-19.5,8.5-30.5,26.7-30.5,49.3c0,30.4,24.6,55.1,55.1,55.1	c28,0,50.9-20.6,54.4-47.6v-0.3c0-12.4,6.4-23.2,16.1-29.4l0.1,0c7.5-29.9,34.6-52,66.8-52c20.4,0,38.7,8.9,51.3,22.9L297.6,178z" class="cock2"/></svg>