<svg xmlns="http://www.w3.org/2000/svg" xmlns:xlink="http://www.w3.org/1999/xlink" id="Layer_1" x="0" y="0" version="1.1" viewBox="0 0 480.8 419.6" xml:space="preserve" style="enable-background:new 0 0 480.8 419.6"><style type="text/css">.dbscale0{fill:#fff;stroke:gray}.dbscale0,.dbscale1,.dbscale2{stroke-linecap:round;stroke-linejoin:round;stroke-miterlimit:10}.dbscale1{fill:none;stroke:#ee5586}.dbscale2{fill:none;stroke:gray}.dbscale3{fill:#fff}.dbscale4,.dbscale5,.dbscale6{fill:#fff;stroke:#ee5586;stroke-width:2;stroke-linecap:round;stroke-linejoin:round;stroke-miterlimit:10}.dbscale5,.dbscale6{fill:none}</style><g><path d="M3.9,94.5C3.9,77.1,46.5,63,99.1,63s95.2,14.1,95.2,31.5v127c0,17.4-42.6,31.5-95.2,31.5S3.9,238.9,3.9,221.5 V94.5z" class="dbscale0"/><g><path id="svg-concept" d="M159.6,154c0,4.9-3.9,8.8-8.8,8.8c-4.9,0-8.8-3.9-8.8-8.8c0-4.9,3.9-8.8,8.8-8.8 C155.6,145.2,159.6,149.2,159.6,154z" class="dbscale1"/><path id="svg-concept" d="M154,154c0,1.8-1.5,3.3-3.3,3.3c-1.8,0-3.3-1.5-3.3-3.3s1.5-3.3,3.3-3.3C152.6,150.8,154,152.2,154,154z" class="dbscale1"/><line id="svg-concept" x1="159.6" x2="154" y1="154" y2="154" class="dbscale1"/><line id="svg-concept" x1="147.5" x2="142" y1="154" y2="154" class="dbscale1"/></g><g><path id="svg-concept" d="M159.6,217.8c0,4.9-3.9,8.8-8.8,8.8c-4.9,0-8.8-3.9-8.8-8.8s3.9-8.8,8.8-8.8 C155.6,209.1,159.6,213,159.6,217.8z" class="dbscale1"/><path id="svg-concept" d="M154,217.9c0,1.8-1.5,3.3-3.3,3.3c-1.8,0-3.3-1.5-3.3-3.3c0-1.8,1.5-3.3,3.3-3.3 C152.6,214.6,154,216,154,217.9z" class="dbscale1"/><line id="svg-concept" x1="159.6" x2="154" y1="217.9" y2="217.9" class="dbscale1"/><line id="svg-concept" x1="147.5" x2="142" y1="217.9" y2="217.9" class="dbscale1"/></g><path d="M194.2,94.5c0,17.4-42.6,31.5-95.2,31.5S3.9,111.9,3.9,94.5" class="dbscale2"/><path d="M194.2,158c0,17.4-42.6,31.5-95.2,31.5S3.9,175.4,3.9,158" class="dbscale2"/><path id="svg-concept" d="M106.6,295.7c0,5.4-4.4,9.8-9.8,9.8c-5.4,0-9.8-4.4-9.8-9.8c0-5.4,4.4-9.8,9.8-9.8 C102.2,285.8,106.6,290.2,106.6,295.7z" class="dbscale1"/><line id="svg-concept" x1="96.7" x2="96.7" y1="266.2" y2="285.8" class="dbscale1"/><line id="svg-concept" x1="32.1" x2="86.9" y1="295.7" y2="295.7" class="dbscale1"/><line id="svg-concept" x1="106.6" x2="161.4" y1="295.7" y2="295.7" class="dbscale1"/></g><g><path d="M285.9,83.7c0-17.4,42.6-31.5,95.2-31.5s95.2,14.1,95.2,31.5v127c0,17.4-42.6,31.5-95.2,31.5 s-95.2-14.1-95.2-31.5V83.7z" class="dbscale0"/><g><path d="M441.6,143.2c0,4.9-3.9,8.8-8.8,8.8c-4.9,0-8.8-3.9-8.8-8.8s3.9-8.8,8.8-8.8 C437.7,134.4,441.6,138.4,441.6,143.2z" class="dbscale0"/><path d="M436.1,143.2c0,1.8-1.5,3.3-3.3,3.3c-1.8,0-3.3-1.5-3.3-3.3s1.5-3.3,3.3-3.3 C434.6,140,436.1,141.4,436.1,143.2z" class="dbscale0"/><line x1="441.6" x2="436.1" y1="143.2" y2="143.2" class="dbscale0"/><line x1="429.6" x2="424" y1="143.2" y2="143.2" class="dbscale0"/></g><g><path d="M441.6,207c0,4.9-3.9,8.8-8.8,8.8c-4.9,0-8.8-3.9-8.8-8.8s3.9-8.8,8.8-8.8C437.7,198.3,441.6,202.2,441.6,207 z" class="dbscale0"/><path d="M436.1,207c0,1.8-1.5,3.3-3.3,3.3c-1.8,0-3.3-1.5-3.3-3.3c0-1.8,1.5-3.3,3.3-3.3 C434.6,203.8,436.1,205.2,436.1,207z" class="dbscale0"/><line x1="441.6" x2="436.1" y1="207.1" y2="207.1" class="dbscale0"/><line x1="429.6" x2="424" y1="207.1" y2="207.1" class="dbscale0"/></g><path d="M476.3,83.7c0,17.4-42.6,31.5-95.2,31.5s-95.2-14.1-95.2-31.5" class="dbscale2"/><path d="M476.3,147.2c0,17.4-42.6,31.5-95.2,31.5s-95.2-14.1-95.2-31.5" class="dbscale2"/><path id="svg-concept" d="M388.6,284.8c0,5.4-4.4,9.8-9.8,9.8s-9.8-4.4-9.8-9.8c0-5.4,4.4-9.8,9.8-9.8S388.6,279.4,388.6,284.8z" class="dbscale1"/><line id="svg-concept" x1="378.8" x2="378.8" y1="255.4" y2="275" class="dbscale1"/><line id="svg-concept" x1="314.1" x2="369" y1="284.9" y2="284.9" class="dbscale1"/><line id="svg-concept" x1="388.6" x2="443.4" y1="284.9" y2="284.9" class="dbscale1"/></g><g><path d="M120.7,162c0-20.8,51-37.7,113.8-37.7s113.8,16.9,113.8,37.7v151.9c0,20.8-51,37.7-113.8,37.7 s-113.8-16.9-113.8-37.7V162z" class="dbscale0"/><path id="svg-concept" d="M306.9,233.2c0,5.8-4.7,10.5-10.5,10.5c-5.8,0-10.5-4.7-10.5-10.5s4.7-10.5,10.5-10.5 C302.2,222.7,306.9,227.4,306.9,233.2z" class="dbscale1"/><path id="svg-concept" d="M300.3,233.2c0,2.2-1.7,3.9-3.9,3.9c-2.2,0-3.9-1.8-3.9-3.9s1.7-3.9,3.9-3.9 C298.5,229.3,300.3,231,300.3,233.2z" class="dbscale1"/><line id="svg-concept" x1="306.9" x2="300.3" y1="233.2" y2="233.2" class="dbscale1"/><line id="svg-concept" x1="292.5" x2="285.9" y1="233.2" y2="233.2" class="dbscale1"/><path id="svg-concept" d="M306.9,309.5c0,5.8-4.7,10.5-10.5,10.5c-5.8,0-10.5-4.7-10.5-10.5s4.7-10.5,10.5-10.5 C302.2,299,306.9,303.7,306.9,309.5z" class="dbscale1"/><path id="svg-concept" d="M300.3,309.5c0,2.2-1.7,3.9-3.9,3.9c-2.2,0-3.9-1.8-3.9-3.9s1.7-3.9,3.9-3.9 C298.5,305.6,300.3,307.4,300.3,309.5z" class="dbscale1"/><line id="svg-concept" x1="306.9" x2="300.3" y1="309.5" y2="309.5" class="dbscale1"/><line id="svg-concept" x1="292.5" x2="285.9" y1="309.5" y2="309.5" class="dbscale1"/><path d="M348.4,238c0,20.8-51,37.7-113.8,37.7S120.7,258.8,120.7,238" class="dbscale2"/><path id="svg-concept" d="M243.5,402.6c0,6.5-5.3,11.8-11.8,11.8S220,409,220,402.6c0-6.5,5.3-11.7,11.8-11.7S243.5,396.1,243.5,402.6z" class="dbscale6"/><line id="svg-concept" x1="231.8" x2="231.8" y1="367.3" y2="390.8" class="dbscale6"/><line id="svg-concept" x1="154.4" x2="220" y1="402.6" y2="402.6" class="dbscale6"/><line id="svg-concept" x1="243.5" x2="309.1" y1="402.6" y2="402.6" class="dbscale6"/><path d="M348.4,162c0,20.8-51,37.7-113.8,37.7S120.7,182.8,120.7,162" class="dbscale2"/></g><path d="M120.7,53.3c0-20.8,36.6-50.6,113.8-50.6c57,0,113.8,20.7,113.8,50.6v66.9c0,29-51,50.6-113.8,50.6	s-113.8-22.3-113.8-50.6V53.3z" class="dbscale3"/><path d="M234.7,53.3" class="dbscale0"/><path d="M348.7,53.3" class="dbscale0"/><g><g><path d="M234.7,103.9c-62.9,0-114-22.6-114-50.6c0-29.9,51.7-50.6,114-50.6c62.9,0,114,22.7,114,50.6" class="dbscale0"/><path d="M234.7,170.8c-62.9,0-114-22.6-114-50.6" class="dbscale0"/><line x1="234.7" x2="234.7" y1="2.7" y2="53.3" class="dbscale0"/><line x1="234.7" x2="120.7" y1="53.3" y2="53.3" class="dbscale0"/><line x1="161.7" x2="307.7" y1="92.1" y2="14.4" class="dbscale0"/><line x1="161.7" x2="161.7" y1="92.1" y2="159.1" class="dbscale0"/><line x1="348.4" x2="234.7" y1="53.3" y2="53.3" class="dbscale0"/><line x1="161.7" x2="234.7" y1="14.4" y2="53.3" class="dbscale0"/></g><line x1="120.7" x2="120.7" y1="120.2" y2="53.3" class="dbscale0"/></g><g><path id="svg-concept" d="M396.8,53.3H282.8v50.6l72.9,55.2c25-9.3,41-23.2,41-38.8V53.3" class="dbscale4"/><path id="svg-concept" d="M396.8,53.3c0.9,15.4-15.2,28.7-41,38.8" class="dbscale5"/><line id="svg-concept" x1="282.8" x2="355.8" y1="53.3" y2="92.4" class="dbscale5"/><line id="svg-concept" x1="355.8" x2="355.8" y1="92.4" y2="159.1" class="dbscale5"/><animateMotion fill="freeze" begin="0s" dur="3s" path="M8, 0 -48 0 48"/></g><g><path d="M307.7,159.1c-19.8,7.3-45.2,11.7-73,11.7V53.3l73,38.9L307.7,159.1z" class="dbscale0"/><path d="M307.7,92.1c-19.8,7.3-45.2,11.7-73,11.7" class="dbscale0"/></g></svg>