<svg xmlns="http://www.w3.org/2000/svg" xmlns:xlink="http://www.w3.org/1999/xlink" id="Layer_1" x="0" y="0" version="1.1" viewBox="0 0 496.8 498" xml:space="preserve" style="enable-background:new 0 0 496.8 498"><style type="text/css">.ddosa0{fill:none;stroke:gray;stroke-linecap:round;stroke-linejoin:round;stroke-miterlimit:10}.ddosa1{fill:none;stroke:#d7d7d7}.ddosa1,.ddosa2,.ddosa3,.ddosa4,.ddosa5{stroke-linecap:round;stroke-linejoin:round;stroke-miterlimit:10}.ddosa2{fill:none;stroke:gray}.ddosa3,.ddosa4,.ddosa5{stroke:#ee5586}.ddosa3{fill:#fff;stroke-width:2}.ddosa4,.ddosa5{fill:none}.ddosa5{stroke-width:3}</style><g><path d="M490.9,248.5c0,133.9-108.6,242.5-242.5,242.5C114.5,491,5.9,382.4,5.9,248.5C5.9,114.5,114.5,6,248.4,6 C382.3,6,490.9,114.5,490.9,248.5z" class="ddosa0"/><line x1="248.4" x2="248.4" y1="19.7" y2="477.2" class="ddosa1"/><line x1="19.6" x2="477.2" y1="248.2" y2="248.2" class="ddosa1"/><line x1="76.5" x2="410" y1="419.9" y2="86.5" class="ddosa1"/><line x1="86.7" x2="410.2" y1="86.6" y2="410.2" class="ddosa1"/><path d="M433.7,248.5c0,102.4-83,185.3-185.3,185.3c-102.4,0-185.3-83-185.3-185.3c0-102.4,83-185.3,185.3-185.3 C350.8,63.1,433.7,146.1,433.7,248.5z" class="ddosa2"/><path d="M477.2,248.5c0,126.4-102.4,228.8-228.8,228.8C122,477.2,19.6,374.8,19.6,248.5 C19.6,122.1,122,19.7,248.4,19.7C374.8,19.7,477.2,122.1,477.2,248.5z" class="ddosa2"/><path d="M372.4,248.5c0,68.5-55.5,124-124,124c-68.5,0-124-55.5-124-124c0-68.5,55.5-124,124-124 C316.9,124.5,372.4,180,372.4,248.5z" class="ddosa2"/><path d="M315.3,248.5c0,36.9-29.9,66.9-66.9,66.9c-36.9,0-66.9-29.9-66.9-66.9c0-36.9,29.9-66.9,66.9-66.9 C285.3,181.6,315.3,211.5,315.3,248.5z" class="ddosa2"/><g><line x1="249" x2="249" y1="63.1" y2="81.4" class="ddosa1"/><line x1="286.8" x2="283" y1="67.3" y2="85.1" class="ddosa1"/><line x1="323.5" x2="316.2" y1="79.3" y2="96" class="ddosa1"/><line x1="356.9" x2="346.3" y1="98.7" y2="113.4" class="ddosa1"/><line x1="385.6" x2="372.1" y1="124.5" y2="136.7" class="ddosa1"/><line x1="408.3" x2="392.6" y1="155.7" y2="164.8" class="ddosa1"/><line x1="424" x2="406.8" y1="191" y2="196.7" class="ddosa1"/><line x1="432" x2="414" y1="228.7" y2="230.7" class="ddosa1"/><line x1="432" x2="415.4" y1="267.2" y2="265.5" class="ddosa1"/><line x1="424" x2="406.9" y1="305.4" y2="299.8" class="ddosa1"/><line x1="408.3" x2="392.8" y1="340.5" y2="331.6" class="ddosa1"/><line x1="385.5" x2="372.3" y1="371.8" y2="359.9" class="ddosa1"/><line x1="356.8" x2="346.5" y1="397.6" y2="383.3" class="ddosa1"/><line x1="323.4" x2="316.3" y1="416.9" y2="400.9" class="ddosa1"/><line x1="286.8" x2="283.2" y1="428.8" y2="411.7" class="ddosa1"/><line x1="64.4" x2="81.9" y1="228.8" y2="230.5" class="ddosa1"/><line x1="72.5" x2="89.3" y1="190.6" y2="196.1" class="ddosa1"/><line x1="88.2" x2="103.6" y1="155.4" y2="164.4" class="ddosa1"/><line x1="111" x2="124.3" y1="124.1" y2="136.2" class="ddosa1"/><line x1="139.6" x2="150.2" y1="98.3" y2="113" class="ddosa1"/><line x1="173" x2="180.4" y1="79" y2="95.7" class="ddosa1"/><line x1="209.7" x2="213.5" y1="67.4" y2="85" class="ddosa1"/><line x1="248" x2="248" y1="432.9" y2="415.5" class="ddosa1"/><line x1="209.9" x2="213.4" y1="428.6" y2="411.9" class="ddosa1"/><line x1="173.1" x2="180" y1="416.7" y2="401.1" class="ddosa1"/><line x1="139.7" x2="149.7" y1="397.3" y2="383.5" class="ddosa1"/><line x1="111.1" x2="123.7" y1="371.5" y2="360.1" class="ddosa1"/><line x1="88.4" x2="103.1" y1="340.3" y2="331.7" class="ddosa1"/><line x1="72.6" x2="88.9" y1="305" y2="299.6" class="ddosa1"/><line x1="64.6" x2="81.8" y1="267.3" y2="265.4" class="ddosa1"/></g><path id="svg-concept" d="M437.8,256.6c0,2.3-1.8,4.1-4.1,4.1c-2.3,0-4.1-1.8-4.1-4.1c0-2.3,1.8-4.1,4.1-4.1 C436,252.5,437.8,254.4,437.8,256.6z" class="ddosa3"/><path id="svg-concept" d="M293.7,132c0,2.3-1.8,4.1-4.1,4.1c-2.3,0-4.1-1.8-4.1-4.1c0-2.3,1.8-4.1,4.1-4.1 C291.9,127.9,293.7,129.7,293.7,132z" class="ddosa3"/><path id="svg-concept" d="M225.2,309.4c0,2.3-1.8,4.1-4.1,4.1c-2.3,0-4.1-1.8-4.1-4.1c0-2.3,1.8-4.1,4.1-4.1 C223.3,305.4,225.2,307.2,225.2,309.4z" class="ddosa3"/><path id="svg-concept" d="M298.4,363.6c0,2.3-1.8,4.1-4.1,4.1c-2.3,0-4.1-1.8-4.1-4.1s1.8-4.1,4.1-4.1 C296.5,359.5,298.4,361.3,298.4,363.6z" class="ddosa3"/><path id="svg-concept" d="M73.5,201.9c0,2.3-1.8,4.1-4.1,4.1c-2.3,0-4.1-1.8-4.1-4.1c0-2.3,1.8-4.1,4.1-4.1 C71.7,197.9,73.5,199.7,73.5,201.9z" class="ddosa3"/></g><g><path id="svg-concept" d="M248.4,6C316,6,372,32.9,419.5,77L248.4,248.4L248.4,6z" class="ddosa5"/><animateTransform attributeName="transform" dur="3s" from="0 248 249" repeatCount="indefinite" to="360 248 249" type="rotate"/></g><g><path id="svg-concept" d="M258.9,248.2c0,5.8-4.7,10.5-10.5,10.5c-5.8,0-10.5-4.7-10.5-10.5c0-5.8,4.7-10.5,10.5-10.5 C254.2,237.7,258.9,242.4,258.9,248.2z" class="ddosa3"/><path id="svg-concept" d="M252.3,248.2c0,2.2-1.7,3.9-3.9,3.9c-2.2,0-3.9-1.8-3.9-3.9s1.7-3.9,3.9-3.9 C250.6,244.3,252.3,246,252.3,248.2z" class="ddosa4"/><line id="svg-concept" x1="258.9" x2="252.3" y1="248.2" y2="248.2" class="ddosa4"/><line id="svg-concept" x1="244.5" x2="237.9" y1="248.2" y2="248.2" class="ddosa4"/></g></svg>