<svg xmlns="http://www.w3.org/2000/svg" xmlns:xlink="http://www.w3.org/1999/xlink" style="enable-background:new 0 0 646.6 652.5" id="Layer_1" x="0" y="0" version="1.1" viewBox="0 0 646.6 652.5" xml:space="preserve"><style type="text/css">.dmanage0,.dmanage1{fill:none;stroke:gray;stroke-linecap:round;stroke-linejoin:round;stroke-miterlimit:10}.dmanage1{fill:#fff}.dmanage2{fill:url(#SVGID_1_)}.dmanage3{fill:none;stroke:#ee5586;stroke-linecap:round;stroke-linejoin:round;stroke-miterlimit:10}.dmanage4{fill:#fff}.dmanage4,.dmanage5,.dmanage6,.dmanage7{stroke:#ee5586;stroke-linecap:round;stroke-linejoin:round;stroke-miterlimit:10}.dmanage5{fill:#fff;stroke-width:2}.dmanage6{fill:none}.dmanage7{fill:#fff;stroke-width:2}</style><g><path d="M361.3,587c-36.6,23.4-81.5,40.5-128.9,40.5c-126.5,0-229.1-97.3-229.1-217.2c0-46.6-7.3-108.1,44.1-129.4" class="dmanage0"/><path d="M361.3,587c-42,45.7-81.5,62.4-128.9,62.4C107.8,649.4,3.6,548.8,3.6,420.9" class="dmanage0"/><path d="M58.4,286.6h-8.6c-1.3,0-2.3-1-2.3-2.3v-5.1c0-1.3,1-2.3,2.3-2.3h8.7" class="dmanage1"/><path d="M80.7,295.7h-13c-5.1,0-9.3-4.2-9.3-9.3v-9.1c0-5.1,4.2-9.3,9.3-9.3h13" class="dmanage1"/><g><path d="M295.6,31.7c-2.1,0-3.7-1.7-3.7-3.7c0-2,1.7-3.7,3.7-3.7c2.1,0,3.7,1.7,3.7,3.7 C299.3,30,297.6,31.7,295.6,31.7z" class="dmanage0"/><path d="M642.3,282.4c0,155.2-125.8,281-281,281c-155.2,0-281-125.8-281-281c0-155.2,125.8-281,281-281 C516.5,1.4,642.3,127.2,642.3,282.4z" class="dmanage1"/><radialGradient id="SVGID_1_" cx="210.003" cy="201.55" r=".035" gradientUnits="userSpaceOnUse"><stop style="stop-color:#27a8e0" offset="0"/><stop style="stop-color:#2aa9e0" offset=".199"/><stop style="stop-color:#33ace0" offset=".347"/><stop style="stop-color:#44b1e1" offset=".479"/><stop style="stop-color:#5ab9e2" offset=".601"/><stop style="stop-color:#78c2e3" offset=".717"/><stop style="stop-color:#9ccee4" offset=".828"/><stop style="stop-color:#c6dce5" offset=".932"/><stop style="stop-color:#e5e6e6" offset="1"/></radialGradient><path d="M210,201.5L210,201.5C210,201.6,209.9,201.6,210,201.5z" class="dmanage2"/><g><path d="M384,412.9c0,2.7-2.2,5-4.9,5c-2.7,0-4.9-2.2-4.9-5c0-2.7,2.2-4.9,4.9-4.9C381.8,407.9,384,410.1,384,412.9z" class="dmanage0"/><path d="M369.3,401.2c0,2.7-2.2,5-4.9,5c-2.7,0-4.9-2.2-4.9-5c0-2.7,2.2-4.9,4.9-4.9 C367.1,396.3,369.3,398.5,369.3,401.2z" class="dmanage0"/><path d="M410.5,368.9c0,2.7-2.2,5-4.9,5c-2.7,0-4.9-2.2-4.9-5c0-2.7,2.2-4.9,4.9-4.9 C408.3,364,410.5,366.2,410.5,368.9z" class="dmanage0"/><path d="M417,330c0,2.7-2.2,5-4.9,5c-2.7,0-4.9-2.2-4.9-5c0-2.7,2.2-4.9,4.9-4.9C414.8,325,417,327.2,417,330z" class="dmanage0"/><path d="M437.2,297.2c0,2.7-2.2,5-4.9,5c-2.7,0-4.9-2.2-4.9-5c0-2.7,2.2-4.9,4.9-4.9 C435,292.3,437.2,294.5,437.2,297.2z" class="dmanage0"/><path d="M421.9,294.7c0,2.7-2.2,5-4.9,5c-2.7,0-4.9-2.2-4.9-5c0-2.7,2.2-4.9,4.9-4.9 C419.7,289.7,421.9,292,421.9,294.7z" class="dmanage0"/><path d="M405.7,254.6c0,2.7-2.2,5-4.9,5c-2.7,0-4.9-2.2-4.9-5s2.2-4.9,4.9-4.9C403.5,249.7,405.7,251.9,405.7,254.6z" class="dmanage0"/><path d="M430.2,283.2c0,2.7-2.2,5-4.9,5c-2.7,0-4.9-2.2-4.9-5c0-2.7,2.2-4.9,4.9-4.9 C428,278.3,430.2,280.5,430.2,283.2z" class="dmanage0"/><path d="M456.1,266.7c0,2.7-2.2,5-4.9,5c-2.7,0-4.9-2.2-4.9-5c0-2.7,2.2-4.9,4.9-4.9 C453.9,261.8,456.1,264,456.1,266.7z" class="dmanage0"/><path d="M408.2,237.1c0,2.7-2.2,5-4.9,5c-2.7,0-4.9-2.2-4.9-5s2.2-4.9,4.9-4.9C406,232.1,408.2,234.3,408.2,237.1z" class="dmanage0"/><path d="M405.7,223.8c0,2.7-2.2,5-4.9,5c-2.7,0-4.9-2.2-4.9-5s2.2-4.9,4.9-4.9C403.5,218.8,405.7,221,405.7,223.8z" class="dmanage0"/><path d="M389.6,222.8c0,2.7-2.2,5-4.9,5c-2.7,0-4.9-2.2-4.9-5s2.2-4.9,4.9-4.9C387.4,217.9,389.6,220.1,389.6,222.8z" class="dmanage0"/><path d="M374.2,244.8c0,2.7-2.2,5-4.9,5c-2.7,0-4.9-2.2-4.9-5s2.2-4.9,4.9-4.9C372,239.8,374.2,242,374.2,244.8z" class="dmanage0"/><path d="M322.7,232.1c0,2.7-2.2,5-4.9,5c-2.7,0-4.9-2.2-4.9-5s2.2-4.9,4.9-4.9C320.5,227.2,322.7,229.4,322.7,232.1z" class="dmanage0"/><path d="M351.8,205.5c0,2.7-2.2,5-4.9,5c-2.7,0-4.9-2.2-4.9-5s2.2-4.9,4.9-4.9C349.6,200.5,351.8,202.7,351.8,205.5z" class="dmanage0"/><path d="M365,214.6c0,2.7-2.2,5-4.9,5c-2.7,0-4.9-2.2-4.9-5c0-2.7,2.2-4.9,4.9-4.9C362.8,209.7,365,211.9,365,214.6z" class="dmanage0"/><path d="M354.2,170.9c0,2.7-2.2,5-4.9,5c-2.7,0-4.9-2.2-4.9-5s2.2-4.9,4.9-4.9C352,166,354.2,168.2,354.2,170.9z" class="dmanage0"/><path d="M349,141.8c0,2.7-2.2,5-4.9,5c-2.7,0-4.9-2.2-4.9-5s2.2-4.9,4.9-4.9C346.7,136.8,349,139,349,141.8z" class="dmanage0"/><path d="M383.7,109.5c0,2.7-2.2,5-4.9,5c-2.7,0-4.9-2.2-4.9-5s2.2-4.9,4.9-4.9C381.5,104.5,383.7,106.7,383.7,109.5z" class="dmanage0"/><path d="M414.6,124.1c0,2.7-2.2,5-4.9,5c-2.7,0-4.9-2.2-4.9-5s2.2-4.9,4.9-4.9C412.4,119.2,414.6,121.4,414.6,124.1z" class="dmanage0"/><path d="M446.2,116c0,2.7-2.2,5-4.9,5c-2.7,0-4.9-2.2-4.9-5s2.2-4.9,4.9-4.9C444,111,446.2,113.2,446.2,116z" class="dmanage0"/><path d="M465.8,105.7c0,2.7-2.2,5-4.9,5c-2.7,0-4.9-2.2-4.9-5s2.2-4.9,4.9-4.9C463.6,100.8,465.8,103,465.8,105.7z" class="dmanage0"/><path d="M493,96.9c0,2.7-2.2,5-4.9,5c-2.7,0-4.9-2.2-4.9-5c0-2.7,2.2-4.9,4.9-4.9C490.8,92,493,94.2,493,96.9z" class="dmanage0"/><path d="M481.9,106.6c0,2.7-2.2,5-4.9,5c-2.7,0-4.9-2.2-4.9-5s2.2-4.9,4.9-4.9C479.7,101.7,481.9,103.9,481.9,106.6z" class="dmanage0"/><path d="M521.2,84.7c0,2.7-2.2,5-4.9,5c-2.7,0-4.9-2.2-4.9-5s2.2-4.9,4.9-4.9C518.9,79.8,521.2,82,521.2,84.7z" class="dmanage0"/><path d="M547.6,100.6c0,2.7-2.2,5-4.9,5c-2.7,0-4.9-2.2-4.9-5c0-2.7,2.2-4.9,4.9-4.9 C545.4,95.7,547.6,97.9,547.6,100.6z" class="dmanage0"/><path d="M607.4,197.3c0,2.7-2.2,5-4.9,5c-2.7,0-4.9-2.2-4.9-5s2.2-4.9,4.9-4.9C605.2,192.3,607.4,194.6,607.4,197.3z" class="dmanage0"/><path d="M599.9,225.3c0,2.7-2.2,5-4.9,5c-2.7,0-4.9-2.2-4.9-5s2.2-4.9,4.9-4.9C597.7,220.3,599.9,222.5,599.9,225.3z" class="dmanage0"/><path d="M586.3,214.1c0,2.7-2.2,5-4.9,5c-2.7,0-4.9-2.2-4.9-5s2.2-4.9,4.9-4.9C584,209.2,586.3,211.4,586.3,214.1z" class="dmanage0"/><path d="M586.3,246.5c0,2.7-2.2,5-4.9,5c-2.7,0-4.9-2.2-4.9-5s2.2-4.9,4.9-4.9C584,241.5,586.3,243.7,586.3,246.5z" class="dmanage0"/><path d="M567.1,269.2c0,2.7-2.2,5-4.9,5c-2.7,0-4.9-2.2-4.9-5c0-2.7,2.2-4.9,4.9-4.9 C564.9,264.2,567.1,266.5,567.1,269.2z" class="dmanage0"/><path d="M559.5,295.9c0,2.7-2.2,5-4.9,5c-2.7,0-4.9-2.2-4.9-5c0-2.7,2.2-4.9,4.9-4.9 C557.3,291,559.5,293.2,559.5,295.9z" class="dmanage0"/><path d="M543.4,285.3c0,2.7-2.2,5-4.9,5c-2.7,0-4.9-2.2-4.9-5c0-2.7,2.2-4.9,4.9-4.9 C541.2,280.3,543.4,282.5,543.4,285.3z" class="dmanage0"/><path d="M524.5,262.8c0,2.7-2.2,5-4.9,5c-2.7,0-4.9-2.2-4.9-5c0-2.7,2.2-4.9,4.9-4.9 C522.3,257.9,524.5,260.1,524.5,262.8z" class="dmanage0"/><path d="M477.7,255.7c0,2.7-2.2,5-4.9,5c-2.7,0-4.9-2.2-4.9-5s2.2-4.9,4.9-4.9C475.5,250.8,477.7,253,477.7,255.7z" class="dmanage0"/><path d="M515.8,216.8c0,2.7-2.2,5-4.9,5c-2.7,0-4.9-2.2-4.9-5s2.2-4.9,4.9-4.9C513.6,211.9,515.8,214.1,515.8,216.8z" class="dmanage0"/><path d="M554.6,177.1c0,2.7-2.2,5-4.9,5c-2.7,0-4.9-2.2-4.9-5c0-2.7,2.2-4.9,4.9-4.9 C552.3,172.2,554.6,174.4,554.6,177.1z" class="dmanage0"/><path d="M409.7,162.2c0,2.7-2.2,5-4.9,5c-2.7,0-4.9-2.2-4.9-5c0-2.7,2.2-4.9,4.9-4.9 C407.5,157.2,409.7,159.4,409.7,162.2z" class="dmanage0"/><path d="M477.7,175.9c0,2.7-2.2,5-4.9,5c-2.7,0-4.9-2.2-4.9-5s2.2-4.9,4.9-4.9C475.5,170.9,477.7,173.1,477.7,175.9z" class="dmanage0"/><path d="M461,253.1c0,2.7-2.2,5-4.9,5c-2.7,0-4.9-2.2-4.9-5s2.2-4.9,4.9-4.9C458.8,248.2,461,250.4,461,253.1z" class="dmanage0"/><path d="M552.1,313.7c0,2.7-2.2,5-4.9,5c-2.7,0-4.9-2.2-4.9-5s2.2-4.9,4.9-4.9C549.9,308.8,552.1,311,552.1,313.7z" class="dmanage0"/><path d="M610.3,359.1c0,2.7-2.2,5-4.9,5c-2.7,0-4.9-2.2-4.9-5c0-2.7,2.2-4.9,4.9-4.9 C608.1,354.2,610.3,356.4,610.3,359.1z" class="dmanage0"/><path d="M430.7,390.3c0,2.7-2.2,5-4.9,5c-2.7,0-4.9-2.2-4.9-5c0-2.7,2.2-4.9,4.9-4.9 C428.4,385.3,430.7,387.5,430.7,390.3z" class="dmanage0"/><path d="M435.2,362.3c0,2.7-2.2,5-4.9,5c-2.7,0-4.9-2.2-4.9-5c0-2.7,2.2-4.9,4.9-4.9 C433,357.4,435.2,359.6,435.2,362.3z" class="dmanage0"/><path d="M603.7,292.6c0,2.7-2.2,5-4.9,5c-2.7,0-4.9-2.2-4.9-5c0-2.7,2.2-4.9,4.9-4.9 C601.4,287.6,603.7,289.9,603.7,292.6z" class="dmanage0"/><path d="M613,237.9c0,2.7-2.2,5-4.9,5c-2.7,0-4.9-2.2-4.9-5s2.2-4.9,4.9-4.9C610.8,232.9,613,235.1,613,237.9z" class="dmanage0"/><path d="M617.1,324.5c0,2.7-2.2,5-4.9,5c-2.7,0-4.9-2.2-4.9-5c0-2.7,2.2-4.9,4.9-4.9 C614.8,319.6,617.1,321.8,617.1,324.5z" class="dmanage0"/><path d="M596.8,329c0,2.7-2.2,5-4.9,5c-2.7,0-4.9-2.2-4.9-5c0-2.7,2.2-4.9,4.9-4.9C594.6,324,596.8,326.2,596.8,329z" class="dmanage0"/><path d="M567.1,342.9c0,2.7-2.2,5-4.9,5c-2.7,0-4.9-2.2-4.9-5c0-2.7,2.2-4.9,4.9-4.9 C564.9,338,567.1,340.2,567.1,342.9z" class="dmanage0"/><path d="M552.1,329.8c0,2.7-2.2,5-4.9,5c-2.7,0-4.9-2.2-4.9-5c0-2.7,2.2-4.9,4.9-4.9 C549.9,324.9,552.1,327.1,552.1,329.8z" class="dmanage0"/><path d="M595.4,276.8c0,2.7-2.2,5-4.9,5c-2.7,0-4.9-2.2-4.9-5c0-2.7,2.2-4.9,4.9-4.9 C593.2,271.9,595.4,274.1,595.4,276.8z" class="dmanage0"/><path d="M590,261.7c0,2.7-2.2,5-4.9,5c-2.7,0-4.9-2.2-4.9-5c0-2.7,2.2-4.9,4.9-4.9C587.8,256.7,590,258.9,590,261.7z" class="dmanage0"/><path d="M588.7,373.9c0,2.7-2.2,5-4.9,5c-2.7,0-4.9-2.2-4.9-5c0-2.7,2.2-4.9,4.9-4.9 C586.5,368.9,588.7,371.1,588.7,373.9z" class="dmanage0"/><path d="M602.2,384.8c0,2.7-2.2,5-4.9,5c-2.7,0-4.9-2.2-4.9-5c0-2.7,2.2-4.9,4.9-4.9 C600,379.8,602.2,382,602.2,384.8z" class="dmanage0"/><path d="M326.4,176.9c0,2.7-2.2,5-4.9,5c-2.7,0-4.9-2.2-4.9-5c0-2.7,2.2-4.9,4.9-4.9 C324.2,171.9,326.4,174.1,326.4,176.9z" class="dmanage0"/><path d="M311.8,166.8c0,2.7-2.2,5-4.9,5c-2.7,0-4.9-2.2-4.9-5s2.2-4.9,4.9-4.9C309.6,161.8,311.8,164,311.8,166.8z" class="dmanage0"/><path d="M306.3,259.6c0,2.7-2.2,5-4.9,5c-2.7,0-4.9-2.2-4.9-5c0-2.7,2.2-4.9,4.9-4.9 C304.1,254.6,306.3,256.8,306.3,259.6z" class="dmanage0"/><path d="M302.7,290.6c0,2.7-2.2,5-4.9,5c-2.7,0-4.9-2.2-4.9-5c0-2.7,2.2-4.9,4.9-4.9 C300.4,285.6,302.7,287.8,302.7,290.6z" class="dmanage0"/><path d="M329.6,264.5c0,2.7-2.2,5-4.9,5c-2.7,0-4.9-2.2-4.9-5c0-2.7,2.2-4.9,4.9-4.9 C327.3,259.6,329.6,261.8,329.6,264.5z" class="dmanage0"/><path d="M369.3,281.2c0,2.7-2.2,5-4.9,5c-2.7,0-4.9-2.2-4.9-5c0-2.7,2.2-4.9,4.9-4.9 C367.1,276.2,369.3,278.4,369.3,281.2z" class="dmanage0"/><path d="M388.1,319.4c0,2.7-2.2,5-4.9,5c-2.7,0-4.9-2.2-4.9-5c0-2.7,2.2-4.9,4.9-4.9 C385.8,314.4,388.1,316.6,388.1,319.4z" class="dmanage0"/><path d="M385.7,367.5c0,2.7-2.2,5-4.9,5c-2.7,0-4.9-2.2-4.9-5c0-2.7,2.2-4.9,4.9-4.9 C383.5,362.6,385.7,364.8,385.7,367.5z" class="dmanage0"/><path d="M359.9,371.3c0,2.7-2.2,5-4.9,5c-2.7,0-4.9-2.2-4.9-5c0-2.7,2.2-4.9,4.9-4.9 C357.7,366.4,359.9,368.6,359.9,371.3z" class="dmanage0"/><path d="M363.3,352.6c0,2.7-2.2,5-4.9,5c-2.7,0-4.9-2.2-4.9-5c0-2.7,2.2-4.9,4.9-4.9 C361,347.6,363.3,349.8,363.3,352.6z" class="dmanage0"/><path d="M355,314.4c0,2.7-2.2,5-4.9,5c-2.7,0-4.9-2.2-4.9-5c0-2.7,2.2-4.9,4.9-4.9C352.8,309.5,355,311.7,355,314.4z" class="dmanage0"/><path d="M314.8,129.4c0,2.7-2.2,5-4.9,5c-2.7,0-4.9-2.2-4.9-5c0-2.7,2.2-4.9,4.9-4.9 C312.6,124.4,314.8,126.7,314.8,129.4z" class="dmanage0"/><path d="M362.9,83.6c0,2.7-2.2,5-4.9,5c-2.7,0-4.9-2.2-4.9-5c0-2.7,2.2-4.9,4.9-4.9 C360.7,78.7,362.9,80.9,362.9,83.6z" class="dmanage0"/><path d="M358,69.4c0,2.7-2.2,5-4.9,5c-2.7,0-4.9-2.2-4.9-5s2.2-4.9,4.9-4.9C355.8,64.4,358,66.6,358,69.4z" class="dmanage0"/><path d="M379.7,64.4c0,2.7-2.2,5-4.9,5c-2.7,0-4.9-2.2-4.9-5c0-2.7,2.2-4.9,4.9-4.9 C377.5,59.5,379.7,61.7,379.7,64.4z" class="dmanage0"/><path d="M439.7,66.5c0,2.7-2.2,5-4.9,5c-2.7,0-4.9-2.2-4.9-5c0-2.7,2.2-4.9,4.9-4.9 C437.5,61.5,439.7,63.7,439.7,66.5z" class="dmanage0"/><path d="M453.4,83.4c0,2.7-2.2,5-4.9,5c-2.7,0-4.9-2.2-4.9-5s2.2-4.9,4.9-4.9C451.1,78.5,453.4,80.7,453.4,83.4z" class="dmanage0"/><line x1="354.4" x2="356.3" y1="74.1" y2="79" class="dmanage0"/><line x1="433" x2="445.1" y1="100.1" y2="87.2" class="dmanage0"/><path d="M261.3,142.9c0,2.7-2.2,5-4.9,5c-2.7,0-4.9-2.2-4.9-5s2.2-4.9,4.9-4.9C259.1,137.9,261.3,140.1,261.3,142.9z" class="dmanage0"/><path d="M231.9,425.2c0,2.7-2.2,5-4.9,5c-2.7,0-4.9-2.2-4.9-5c0-2.7,2.2-4.9,4.9-4.9 C229.7,420.3,231.9,422.5,231.9,425.2z" class="dmanage0"/><path d="M198.9,411.6c0,2.7-2.2,5-4.9,5c-2.7,0-4.9-2.2-4.9-5c0-2.7,2.2-4.9,4.9-4.9 C196.7,406.6,198.9,408.8,198.9,411.6z" class="dmanage0"/><path d="M220.7,397.4c0,2.7-2.2,5-4.9,5c-2.7,0-4.9-2.2-4.9-5c0-2.7,2.2-4.9,4.9-4.9 C218.5,392.5,220.7,394.7,220.7,397.4z" class="dmanage0"/><path d="M239.8,327.3c0,2.7-2.2,5-4.9,5c-2.7,0-4.9-2.2-4.9-5c0-2.7,2.2-4.9,4.9-4.9 C237.6,322.3,239.8,324.5,239.8,327.3z" class="dmanage0"/><path d="M210.1,301.2c0,2.7-2.2,5-4.9,5c-2.7,0-4.9-2.2-4.9-5c0-2.7,2.2-4.9,4.9-4.9 C207.9,296.2,210.1,298.5,210.1,301.2z" class="dmanage0"/><path d="M181.3,303c0,2.7-2.2,5-4.9,5c-2.7,0-4.9-2.2-4.9-5c0-2.7,2.2-4.9,4.9-4.9C179.1,298,181.3,300.2,181.3,303z" class="dmanage0"/><path d="M163.5,291.7c0,2.7-2.2,5-4.9,5c-2.7,0-4.9-2.2-4.9-5c0-2.7,2.2-4.9,4.9-4.9 C161.3,286.7,163.5,288.9,163.5,291.7z" class="dmanage0"/><path d="M110.2,252.4c0,2.7-2.2,5-4.9,5c-2.7,0-4.9-2.2-4.9-5s2.2-4.9,4.9-4.9C108,247.4,110.2,249.7,110.2,252.4z" class="dmanage0"/><path d="M140.2,247.4c0,2.7-2.2,5-4.9,5c-2.7,0-4.9-2.2-4.9-5s2.2-4.9,4.9-4.9C138,242.5,140.2,244.7,140.2,247.4z" class="dmanage0"/><path d="M176.4,252.4c0,2.7-2.2,5-4.9,5c-2.7,0-4.9-2.2-4.9-5s2.2-4.9,4.9-4.9C174.2,247.4,176.4,249.7,176.4,252.4z" class="dmanage0"/><path d="M190.3,225.9c0,2.7-2.2,5-4.9,5c-2.7,0-4.9-2.2-4.9-5s2.2-4.9,4.9-4.9C188.1,221,190.3,223.2,190.3,225.9z" class="dmanage0"/><path d="M199.4,145c0,2.7-2.2,5-4.9,5c-2.7,0-4.9-2.2-4.9-5s2.2-4.9,4.9-4.9C197.2,140.1,199.4,142.3,199.4,145z" class="dmanage0"/><path d="M189,177.2c0,2.7-2.2,5-4.9,5c-2.7,0-4.9-2.2-4.9-5s2.2-4.9,4.9-4.9C186.8,172.2,189,174.4,189,177.2z" class="dmanage0"/><path d="M163.8,155c0,2.7-2.2,5-4.9,5c-2.7,0-4.9-2.2-4.9-5s2.2-4.9,4.9-4.9C161.6,150,163.8,152.2,163.8,155z" class="dmanage0"/><path d="M189.1,100.1c0,2.7-2.2,5-4.9,5c-2.7,0-4.9-2.2-4.9-5s2.2-4.9,4.9-4.9C186.9,95.2,189.1,97.4,189.1,100.1z" class="dmanage0"/><path d="M184.8,123.7c0,2.7-2.2,5-4.9,5c-2.7,0-4.9-2.2-4.9-5s2.2-4.9,4.9-4.9C182.5,118.7,184.8,120.9,184.8,123.7z" class="dmanage0"/><path d="M216.3,109.9c0,2.7-2.2,5-4.9,5c-2.7,0-4.9-2.2-4.9-5c0-2.7,2.2-4.9,4.9-4.9 C214.1,105,216.3,107.2,216.3,109.9z" class="dmanage0"/><path d="M216.3,134.9c0,2.7-2.2,5-4.9,5c-2.7,0-4.9-2.2-4.9-5s2.2-4.9,4.9-4.9C214.1,129.9,216.3,132.1,216.3,134.9z" class="dmanage0"/><path d="M129.3,181.3c0,2.7-2.2,5-4.9,5c-2.7,0-4.9-2.2-4.9-5s2.2-4.9,4.9-4.9C127.1,176.4,129.3,178.6,129.3,181.3z" class="dmanage0"/><path d="M153.7,200.3c0,2.7-2.2,5-4.9,5c-2.7,0-4.9-2.2-4.9-5s2.2-4.9,4.9-4.9C151.5,195.4,153.7,197.6,153.7,200.3z" class="dmanage0"/><path d="M203.8,329.3c0,2.7-2.2,5-4.9,5c-2.7,0-4.9-2.2-4.9-5c0-2.7,2.2-4.9,4.9-4.9 C201.6,324.3,203.8,326.6,203.8,329.3z" class="dmanage0"/><path d="M234.8,358.1c0,2.7-2.2,5-4.9,5c-2.7,0-4.9-2.2-4.9-5c0-2.7,2.2-4.9,4.9-4.9 C232.6,353.1,234.8,355.3,234.8,358.1z" class="dmanage0"/><path d="M254.9,120.7c0,2.7-2.2,5-4.9,5c-2.7,0-4.9-2.2-4.9-5s2.2-4.9,4.9-4.9C252.7,115.7,254.9,118,254.9,120.7z" class="dmanage0"/><path d="M292.7,114c0,2.7-2.2,5-4.9,5c-2.7,0-4.9-2.2-4.9-5s2.2-4.9,4.9-4.9C290.4,109,292.7,111.2,292.7,114z" class="dmanage0"/><path d="M309.9,78.9c0,2.7-2.2,5-4.9,5c-2.7,0-4.9-2.2-4.9-5s2.2-4.9,4.9-4.9C307.7,73.9,309.9,76.1,309.9,78.9z" class="dmanage0"/><path d="M322.2,64.2c0,2.7-2.2,5-4.9,5c-2.7,0-4.9-2.2-4.9-5s2.2-4.9,4.9-4.9C320,59.3,322.2,61.5,322.2,64.2z" class="dmanage0"/><path d="M312.3,53.4c0,2.7-2.2,5-4.9,5c-2.7,0-4.9-2.2-4.9-5c0-2.7,2.2-4.9,4.9-4.9C310,48.5,312.3,50.7,312.3,53.4z" class="dmanage0"/><path d="M274.6,56c0,2.7-2.2,5-4.9,5c-2.7,0-4.9-2.2-4.9-5s2.2-4.9,4.9-4.9C272.3,51.1,274.6,53.3,274.6,56z" class="dmanage0"/><path d="M237.7,69.2c0,2.7-2.2,5-4.9,5c-2.7,0-4.9-2.2-4.9-5s2.2-4.9,4.9-4.9C235.4,64.2,237.7,66.4,237.7,69.2z" class="dmanage0"/><path d="M226.1,83c0,2.7-2.2,5-4.9,5c-2.7,0-4.9-2.2-4.9-5s2.2-4.9,4.9-4.9C223.8,78,226.1,80.2,226.1,83z" class="dmanage0"/><path d="M247.6,92.6c0,2.7-2.2,5-4.9,5c-2.7,0-4.9-2.2-4.9-5s2.2-4.9,4.9-4.9C245.4,87.7,247.6,89.9,247.6,92.6z" class="dmanage0"/><path d="M281.2,78c0,2.7-2.2,5-4.9,5c-2.7,0-4.9-2.2-4.9-5s2.2-4.9,4.9-4.9C279,73.1,281.2,75.3,281.2,78z" class="dmanage0"/><line x1="255.4" x2="252.1" y1="137.9" y2="125.2" class="dmanage0"/><line x1="253" x2="262.5" y1="116.8" y2="106.6" class="dmanage0"/><line x1="261.3" x2="247.1" y1="99.6" y2="94.7" class="dmanage0"/><line x1="260.4" x2="284.6" y1="139.5" y2="117.8" class="dmanage0"/><line x1="291" x2="297.2" y1="110.3" y2="101.6" class="dmanage0"/><line x1="302.1" x2="304" y1="93.1" y2="83.8" class="dmanage0"/><line x1="300" x2="281.2" y1="78.9" y2="78" class="dmanage0"/><line x1="307.7" x2="314" y1="74.8" y2="67.9" class="dmanage0"/><line x1="302.5" x2="274.4" y1="54.3" y2="54.8" class="dmanage0"/><line x1="271" x2="275.2" y1="61" y2="73.1" class="dmanage0"/><line x1="265.3" x2="237.7" y1="58.4" y2="67" class="dmanage0"/><line x1="229.7" x2="224.4" y1="73.1" y2="78.9" class="dmanage0"/><line x1="238.5" x2="225.3" y1="90" y2="85.5" class="dmanage0"/><line x1="272.5" x2="246.2" y1="81.1" y2="89.2" class="dmanage0"/><line x1="274.6" x2="268.1" y1="83" y2="97.2" class="dmanage0"/><line x1="204.5" x2="192.4" y1="474.5" y2="449.8" class="dmanage0"/><line x1="194.3" x2="222" y1="442.3" y2="425.2" class="dmanage0"/><line x1="222" x2="197.7" y1="425.2" y2="414.7" class="dmanage0"/><line x1="196.8" x2="212.1" y1="407.5" y2="400.8" class="dmanage0"/><line x1="212.8" x2="192" y1="393.4" y2="369.6" class="dmanage0"/><line x1="220.7" x2="248.2" y1="395.4" y2="385.9" class="dmanage0"/><line x1="248.2" x2="233" y1="385.9" y2="362.7" class="dmanage0"/><line x1="233.9" x2="260" y1="355.2" y2="344.1" class="dmanage0"/><line x1="260.6" x2="239.4" y1="339.2" y2="329.9" class="dmanage0"/><line x1="190.3" x2="196.1" y1="361" y2="333.4" class="dmanage0"/><line x1="196.1" x2="178.2" y1="333.4" y2="335.8" class="dmanage0"/><line x1="173.5" x2="175.5" y1="329.3" y2="307.9" class="dmanage0"/><line x1="181.3" x2="200.2" y1="303" y2="301.2" class="dmanage0"/><line x1="209" x2="230.9" y1="304.3" y2="324.3" class="dmanage0"/><line x1="202.4" x2="225.5" y1="332.7" y2="355.7" class="dmanage0"/><line x1="171.4" x2="161.9" y1="303" y2="295.3" class="dmanage0"/><line x1="156.2" x2="152.5" y1="286.7" y2="276.9" class="dmanage0"/><line x1="145.7" x2="129.3" y1="272.3" y2="273.4" class="dmanage0"/><line x1="125.5" x2="133" y1="268.5" y2="251.9" class="dmanage0"/><line x1="130.3" x2="110.1" y1="247.4" y2="251.3" class="dmanage0"/><line x1="105.2" x2="122.6" y1="247.4" y2="186" class="dmanage0"/><line x1="127" x2="155.6" y1="177.2" y2="158.7" class="dmanage0"/><line x1="163" x2="180.2" y1="159.9" y2="174" class="dmanage0"/><line x1="186.3" x2="194.4" y1="172.8" y2="150" class="dmanage0"/><line x1="197.7" x2="228.3" y1="148.8" y2="186.3" class="dmanage0"/><line x1="209.1" x2="197.7" y1="191.5" y2="148.8" class="dmanage0"/><line x1="184.1" x2="185.3" y1="182.1" y2="221" class="dmanage0"/><line x1="182.5" x2="173.9" y1="230" y2="248.1" class="dmanage0"/><line x1="139" x2="167.1" y1="244.2" y2="250.1" class="dmanage0"/><line x1="128" x2="144.6" y1="184.7" y2="197.6" class="dmanage0"/><line x1="152.2" x2="180.4" y1="196.8" y2="180.4" class="dmanage0"/><line x1="152" x2="181.2" y1="204" y2="223.2" class="dmanage0"/><line x1="146.7" x2="135.3" y1="204.8" y2="242.5" class="dmanage0"/><line x1="158.9" x2="158.1" y1="150" y2="127.7" class="dmanage0"/><line x1="163" x2="174.9" y1="122.7" y2="123.7" class="dmanage0"/><line x1="179.8" x2="184.1" y1="118.7" y2="105.1" class="dmanage0"/><line x1="189.1" x2="206.4" y1="100.1" y2="107.4" class="dmanage0"/><line x1="211.3" x2="211.3" y1="114.9" y2="129.9" class="dmanage0"/><line x1="368.1" x2="375" y1="404.4" y2="410.1" class="dmanage0"/><line x1="383.1" x2="388.1" y1="407.9" y2="398.7" class="dmanage0"/><line x1="388.1" x2="380.7" y1="390.1" y2="372.5" class="dmanage0"/><line x1="393.9" x2="403.3" y1="388.8" y2="373.9" class="dmanage0"/><line x1="364.3" x2="355" y1="396.3" y2="376.3" class="dmanage0"/><line x1="355" x2="358.3" y1="366.4" y2="357.5" class="dmanage0"/><line x1="363.3" x2="375.8" y1="355.1" y2="364" class="dmanage0"/><line x1="358.3" x2="380.7" y1="347.6" y2="323.7" class="dmanage0"/><line x1="350" x2="358.3" y1="319.4" y2="347.6" class="dmanage0"/><line x1="388.1" x2="407.1" y1="321.9" y2="330" class="dmanage0"/><line x1="383.1" x2="412" y1="363.2" y2="334.9" class="dmanage0"/><line x1="405.5" x2="412" y1="364" y2="334.9" class="dmanage0"/><line x1="412" x2="432.2" y1="325" y2="302.2" class="dmanage0"/><line x1="422.1" x2="427.3" y1="295.9" y2="296.5" class="dmanage0"/><line x1="414.1" x2="403.7" y1="290.7" y2="258.6" class="dmanage0"/><line x1="421.5" x2="403.7" y1="280" y2="258.6" class="dmanage0"/><line x1="429.4" x2="447.6" y1="280.6" y2="270.1" class="dmanage0"/><line x1="447.2" x2="436.5" y1="262.8" y2="245.6" class="dmanage0"/><line x1="452" x2="436.5" y1="250.3" y2="245.6" class="dmanage0"/><line x1="461" x2="468.1" y1="253.1" y2="254.2" class="dmanage0"/><line x1="475.4" x2="490.4" y1="259.9" y2="296.9" class="dmanage0"/><line x1="496.2" x2="516.2" y1="298" y2="266.5" class="dmanage0"/><line x1="523.3" x2="534.8" y1="266" y2="281.9" class="dmanage0"/><line x1="541.4" x2="544.3" y1="289.3" y2="309.7" class="dmanage0"/><line x1="550.9" x2="541.4" y1="292.7" y2="289.3" class="dmanage0"/><line x1="556.3" x2="560.9" y1="291" y2="274" class="dmanage0"/><line x1="564.6" x2="578.6" y1="264.9" y2="250.6" class="dmanage0"/><line x1="579.7" x2="581.3" y1="241.8" y2="219.1" class="dmanage0"/><line x1="585.5" x2="591.4" y1="216.7" y2="221.8" class="dmanage0"/><line x1="596.4" x2="600.8" y1="220.5" y2="201.9" class="dmanage0"/><line x1="600.1" x2="576.6" y1="192.9" y2="144.4" class="dmanage0"/><line x1="571.8" x2="545.8" y1="135.8" y2="104.5" class="dmanage0"/><line x1="539.1" x2="519.8" y1="97.3" y2="88.1" class="dmanage0"/><line x1="516.2" x2="510" y1="89.7" y2="127.1" class="dmanage0"/><line x1="510.7" x2="491.8" y1="87" y2="93.7" class="dmanage0"/><line x1="484.1" x2="480.2" y1="99.9" y2="103" class="dmanage0"/><line x1="479.8" x2="504.9" y1="110.7" y2="129.1" class="dmanage0"/><line x1="472" x2="465.8" y1="106.6" y2="105.7" class="dmanage0"/><line x1="455.9" x2="445.4" y1="108.5" y2="113.4" class="dmanage0"/><line x1="436.5" x2="414.4" y1="117.6" y2="122.6" class="dmanage0"/><line x1="405.2" x2="382.9" y1="122" y2="112.2" class="dmanage0"/><line x1="374.6" x2="347.2" y1="112.2" y2="138" class="dmanage0"/><line x1="344.9" x2="348" y1="146.6" y2="166.1" class="dmanage0"/><line x1="320" x2="320.9" y1="153.1" y2="157.2" class="dmanage0"/><line x1="322.7" x2="321.5" y1="167.1" y2="171.9" class="dmanage0"/><line x1="333.8" x2="346.4" y1="185.8" y2="175" class="dmanage0"/><line x1="329.9" x2="329.9" y1="194.8" y2="200.4" class="dmanage0"/><line x1="324.9" x2="315.8" y1="206.3" y2="208.4" class="dmanage0"/><line x1="315.5" x2="317.9" y1="213.3" y2="215.6" class="dmanage0"/><line x1="351" x2="356.2" y1="208.2" y2="211.6" class="dmanage0"/><line x1="364" x2="370.9" y1="211.6" y2="209.7" class="dmanage0"/><line x1="378.1" x2="381.7" y1="210.4" y2="218.8" class="dmanage0"/><line x1="389.6" x2="395.9" y1="222.8" y2="223.8" class="dmanage0"/><line x1="401.3" x2="403.3" y1="229.5" y2="232.1" class="dmanage0"/><line x1="398.9" x2="374" y1="239.2" y2="243.3" class="dmanage0"/><line x1="365" x2="350.4" y1="242.3" y2="231.5" class="dmanage0"/><line x1="342.2" x2="322.5" y1="227.8" y2="230.8" class="dmanage0"/><line x1="315.4" x2="303.9" y1="236.5" y2="255.3" class="dmanage0"/><line x1="319.7" x2="324.6" y1="236.9" y2="259.6" class="dmanage0"/><line x1="328.9" x2="360.1" y1="267" y2="278.7" class="dmanage0"/><line x1="369.3" x2="364.3" y1="249.7" y2="276.2" class="dmanage0"/><line x1="395.9" x2="369.3" y1="258.1" y2="278.3" class="dmanage0"/><line x1="366.8" x2="379.9" y1="285.6" y2="313.6" class="dmanage0"/><line x1="361.5" x2="352.1" y1="286.1" y2="309.5" class="dmanage0"/><line x1="344.4" x2="326.2" y1="313.6" y2="308.7" class="dmanage0"/><line x1="315.7" x2="301.4" y1="306.3" y2="293.9" class="dmanage0"/><line x1="297.7" x2="301.4" y1="285.6" y2="264.5" class="dmanage0"/><line x1="305.8" x2="319.7" y1="261.8" y2="263" class="dmanage0"/><line x1="354.2" x2="399.8" y1="170.9" y2="162.2" class="dmanage0"/><line x1="409.7" x2="404.7" y1="129.1" y2="157.2" class="dmanage0"/><line x1="409.7" x2="467.8" y1="162.2" y2="175.9" class="dmanage0"/><line x1="404.7" x2="400.8" y1="167.1" y2="218.8" class="dmanage0"/><line x1="476.2" x2="508.8" y1="179.4" y2="211.6" class="dmanage0"/><line x1="514.6" x2="546.1" y1="213.6" y2="180.8" class="dmanage0"/><line x1="552.9" x2="577.3" y1="180.8" y2="211.2" class="dmanage0"/><line x1="570.4" x2="551.7" y1="142.7" y2="172.2" class="dmanage0"/><line x1="537.7" x2="513.1" y1="104.6" y2="128.6" class="dmanage0"/><line x1="512.8" x2="544.7" y1="135" y2="173.2" class="dmanage0"/><line x1="504.9" x2="475.2" y1="135" y2="170.9" class="dmanage0"/><line x1="475.2" x2="506.2" y1="251.4" y2="220.3" class="dmanage0"/><line x1="510.9" x2="519.5" y1="221.8" y2="257.9" class="dmanage0"/><line x1="515.2" x2="558.6" y1="219.3" y2="265.7" class="dmanage0"/><line x1="477.7" x2="514.6" y1="255.7" y2="262.8" class="dmanage0"/><line x1="524.5" x2="557.2" y1="262.8" y2="269.2" class="dmanage0"/><line x1="515.8" x2="576.4" y1="216.8" y2="214.1" class="dmanage0"/><line x1="430.2" x2="407.2" y1="236.9" y2="166.5" class="dmanage0"/><line x1="408.2" x2="428.1" y1="237.1" y2="242" class="dmanage0"/><line x1="571.8" x2="568.7" y1="410.9" y2="392.9" class="dmanage0"/><line x1="572.2" x2="580.2" y1="384.5" y2="377.3" class="dmanage0"/><line x1="587.8" x2="602.2" y1="371" y2="363" class="dmanage0"/><line x1="605.4" x2="598.7" y1="364.1" y2="379.8" class="dmanage0"/><line x1="595" x2="590" y1="389.2" y2="400.2" class="dmanage0"/><line x1="578.8" x2="583.8" y1="413.7" y2="409" class="dmanage0"/><line x1="583.8" x2="572.7" y1="400.2" y2="390.8" class="dmanage0"/><line x1="592.3" x2="572.7" y1="384.8" y2="390.8" class="dmanage0"/><line x1="593.3" x2="587.6" y1="381.8" y2="377" class="dmanage0"/><line x1="571.6" x2="578.2" y1="324.3" y2="315.3" class="dmanage0"/><line x1="430.2" x2="425.7" y1="367.2" y2="385.3" class="dmanage0"/><line x1="209" x2="224.9" y1="474.8" y2="429.8" class="dmanage0"/><line x1="190.3" x2="192.7" y1="440.4" y2="416.4" class="dmanage0"/><line x1="193.9" x2="192" y1="406.6" y2="369.6" class="dmanage0"/><line x1="229.9" x2="250" y1="421.3" y2="392.3" class="dmanage0"/><line x1="254.5" x2="265" y1="383.2" y2="346.4" class="dmanage0"/><line x1="175.6" x2="186.1" y1="339.2" y2="361.7" class="dmanage0"/><line x1="188.6" x2="207.7" y1="222.2" y2="199.2" class="dmanage0"/><line x1="124.3" x2="155.6" y1="176.4" y2="127" class="dmanage0"/></g><path id="svg-concept" d="M269.9,341.4c0,2.7-2.2,5-4.9,5c-2.7,0-4.9-2.2-4.9-5c0-2.7,2.2-4.9,4.9-4.9 C267.7,336.5,269.9,338.7,269.9,341.4z" class="dmanage3"/><path id="svg-concept" d="M257.6,388.1c0,2.7-2.2,5-4.9,5c-2.7,0-4.9-2.2-4.9-5c0-2.7,2.2-4.9,4.9-4.9 C255.4,383.2,257.6,385.4,257.6,388.1z" class="dmanage3"/><path id="svg-concept" d="M211.5,479c0,2.7-2.2,5-4.9,5c-2.7,0-4.9-2.2-4.9-5c0-2.7,2.2-4.9,4.9-4.9C209.2,474.1,211.5,476.3,211.5,479 z" class="dmanage3"/><path id="svg-concept" d="M195.3,445.3c0,2.7-2.2,5-4.9,5c-2.7,0-4.9-2.2-4.9-5c0-2.7,2.2-4.9,4.9-4.9 C193.1,440.4,195.3,442.6,195.3,445.3z" class="dmanage3"/><path id="svg-concept" d="M178.4,334.2c0,2.7-2.2,5-4.9,5c-2.7,0-4.9-2.2-4.9-5c0-2.7,2.2-4.9,4.9-4.9 C176.2,329.3,178.4,331.5,178.4,334.2z" class="dmanage3"/><path id="svg-concept" d="M193.9,365.7c0,2.7-2.2,5-4.9,5c-2.7,0-4.9-2.2-4.9-5c0-2.7,2.2-4.9,4.9-4.9 C191.7,360.8,193.9,363,193.9,365.7z" class="dmanage3"/><path id="svg-concept" d="M234.9,190.9c0,2.7-2.2,5-4.9,5c-2.7,0-4.9-2.2-4.9-5s2.2-4.9,4.9-4.9C232.7,186,234.9,188.2,234.9,190.9z" class="dmanage3"/><path id="svg-concept" d="M163,122.7c0,2.7-2.2,5-4.9,5c-2.7,0-4.9-2.2-4.9-5s2.2-4.9,4.9-4.9C160.8,117.8,163,120,163,122.7z" class="dmanage3"/><path id="svg-concept" d="M216.3,195.9c0,2.7-2.2,5-4.9,5c-2.7,0-4.9-2.2-4.9-5s2.2-4.9,4.9-4.9C214.1,191,216.3,193.2,216.3,195.9z" class="dmanage3"/><path id="svg-concept" d="M155.6,272.3c0,2.7-2.2,5-4.9,5c-2.7,0-4.9-2.2-4.9-5c0-2.7,2.2-4.9,4.9-4.9 C153.4,267.4,155.6,269.6,155.6,272.3z" class="dmanage3"/><path id="svg-concept" d="M129.3,273.4c0,2.7-2.2,5-4.9,5c-2.7,0-4.9-2.2-4.9-5s2.2-4.9,4.9-4.9C127.1,268.5,129.3,270.7,129.3,273.4z" class="dmanage3"/><path id="svg-concept" d="M304.9,97.6c0,2.7-2.2,5-4.9,5c-2.7,0-4.9-2.2-4.9-5s2.2-4.9,4.9-4.9C302.7,92.6,304.9,94.8,304.9,97.6z" class="dmanage3"/><path id="svg-concept" d="M270.3,102.5c0,2.7-2.2,5-4.9,5c-2.7,0-4.9-2.2-4.9-5s2.2-4.9,4.9-4.9C268,97.6,270.3,99.8,270.3,102.5z" class="dmanage3"/><path id="svg-concept" d="M396.3,393.7c0,2.7-2.2,5-4.9,5c-2.7,0-4.9-2.2-4.9-5c0-2.7,2.2-4.9,4.9-4.9 C394.1,388.8,396.3,391,396.3,393.7z" class="dmanage3"/><path id="svg-concept" d="M352.1,227.8c0,2.7-2.2,5-4.9,5c-2.7,0-4.9-2.2-4.9-5s2.2-4.9,4.9-4.9C349.9,222.8,352.1,225,352.1,227.8z" class="dmanage3"/><path id="svg-concept" d="M325.6,308.5c0,2.7-2.2,5-4.9,5c-2.7,0-4.9-2.2-4.9-5c0-2.7,2.2-4.9,4.9-4.9 C323.4,303.6,325.6,305.8,325.6,308.5z" class="dmanage3"/><path id="svg-concept" d="M316.3,210.6c0,2.7-2.2,5-4.9,5c-2.7,0-4.9-2.2-4.9-5s2.2-4.9,4.9-4.9C314.1,205.7,316.3,207.9,316.3,210.6z" class="dmanage3"/><path id="svg-concept" d="M327.7,216.8c0,2.7-2.2,5-4.9,5c-2.7,0-4.9-2.2-4.9-5s2.2-4.9,4.9-4.9C325.5,211.8,327.7,214,327.7,216.8z" class="dmanage3"/><path id="svg-concept" d="M334.8,205.3c0,2.7-2.2,5-4.9,5c-2.7,0-4.9-2.2-4.9-5s2.2-4.9,4.9-4.9C332.6,200.4,334.8,202.6,334.8,205.3z" class="dmanage3"/><path id="svg-concept" d="M336.2,190c0,2.7-2.2,5-4.9,5c-2.7,0-4.9-2.2-4.9-5s2.2-4.9,4.9-4.9C333.9,185,336.2,187.3,336.2,190z" class="dmanage3"/><line id="svg-concept" x1="334.6" x2="342.2" y1="203.9" y2="203.8" class="dmanage3"/><path id="svg-concept" d="M579.3,415.8c0,2.7-2.2,5-4.9,5c-2.7,0-4.9-2.2-4.9-5c0-2.7,2.2-4.9,4.9-4.9 C577.1,410.9,579.3,413.1,579.3,415.8z" class="dmanage3"/><path id="svg-concept" d="M591.9,405.1c0,2.7-2.2,5-4.9,5c-2.7,0-4.9-2.2-4.9-5c0-2.7,2.2-4.9,4.9-4.9 C589.6,400.2,591.9,402.4,591.9,405.1z" class="dmanage3"/><path id="svg-concept" d="M573.6,387.9c0,2.7-2.2,5-4.9,5c-2.7,0-4.9-2.2-4.9-5c0-2.7,2.2-4.9,4.9-4.9 C571.4,383,573.6,385.2,573.6,387.9z" class="dmanage3"/><path id="svg-concept" d="M379.8,206.7c0,2.7-2.2,5-4.9,5c-2.7,0-4.9-2.2-4.9-5s2.2-4.9,4.9-4.9C377.6,201.7,379.8,203.9,379.8,206.7z" class="dmanage3"/><path id="svg-concept" d="M498,301.8c0,2.7-2.2,5-4.9,5c-2.7,0-4.9-2.2-4.9-5c0-2.7,2.2-4.9,4.9-4.9C495.8,296.9,498,299.1,498,301.8z" class="dmanage3"/><path id="svg-concept" d="M438,242c0,2.7-2.2,5-4.9,5c-2.7,0-4.9-2.2-4.9-5s2.2-4.9,4.9-4.9C435.8,237.1,438,239.3,438,242z" class="dmanage3"/><path id="svg-concept" d="M574.7,329c0,2.7-2.2,5-4.9,5c-2.7,0-4.9-2.2-4.9-5c0-2.7,2.2-4.9,4.9-4.9C572.5,324,574.7,326.2,574.7,329z" class="dmanage3"/><path id="svg-concept" d="M585.1,310.8c0,2.7-2.2,5-4.9,5c-2.7,0-4.9-2.2-4.9-5c0-2.7,2.2-4.9,4.9-4.9 C582.9,305.8,585.1,308,585.1,310.8z" class="dmanage3"/><path id="svg-concept" d="M327.7,162.2c0,2.7-2.2,5-4.9,5c-2.7,0-4.9-2.2-4.9-5c0-2.7,2.2-4.9,4.9-4.9 C325.5,157.2,327.7,159.4,327.7,162.2z" class="dmanage3"/><path id="svg-concept" d="M323.8,148.3c0,2.7-2.2,5-4.9,5c-2.7,0-4.9-2.2-4.9-5s2.2-4.9,4.9-4.9C321.6,143.4,323.8,145.6,323.8,148.3z" class="dmanage3"/><path id="svg-concept" d="M579.5,139.9c0,2.7-2.2,5-4.9,5c-2.7,0-4.9-2.2-4.9-5s2.2-4.9,4.9-4.9C577.2,135,579.5,137.2,579.5,139.9z" class="dmanage3"/><path id="svg-concept" d="M513.8,132c0,2.7-2.2,5-4.9,5c-2.7,0-4.9-2.2-4.9-5s2.2-4.9,4.9-4.9C511.6,127.1,513.8,129.3,513.8,132z" class="dmanage3"/><path id="svg-concept" d="M434.8,103.9c0,2.7-2.2,5-4.9,5c-2.7,0-4.9-2.2-4.9-5s2.2-4.9,4.9-4.9C432.5,99,434.8,101.2,434.8,103.9z" class="dmanage3"/><path id="svg-concept" d="M501.8,69.4c0,2.7-2.2,5-4.9,5c-2.7,0-4.9-2.2-4.9-5s2.2-4.9,4.9-4.9C499.6,64.4,501.8,66.6,501.8,69.4z" class="dmanage3"/><path id="svg-concept" d="M276.4,184.6c0,3.4-2.8,6.2-6.2,6.2c-3.4,0-6.2-2.8-6.2-6.2s2.8-6.2,6.2-6.2 C273.7,178.5,276.4,181.2,276.4,184.6z" class="dmanage4"/></g></g><g><path id="svg-concept" d="M167.7,317.7h387.2c8.2,0,14.9,6.7,14.9,14.9v239.7c0,8.2-6.7,14.9-14.9,14.9H167.7c-8.2,0-14.9-6.7-14.9-14.9 V332.5C152.9,324.3,159.5,317.7,167.7,317.7z" class="dmanage5"/><line id="svg-concept" x1="202.4" x2="261.6" y1="442.7" y2="442.7" class="dmanage6"/><line x1="445.6" x2="504.8" y1="442.7" y2="442.7" class="dmanage0"/><line x1="324" x2="383.2" y1="442.7" y2="442.7" class="dmanage0"/><line x1="202.4" x2="261.6" y1="479.6" y2="479.6" class="dmanage0"/><line id="svg-concept" x1="445.6" x2="504.8" y1="479.6" y2="479.6" class="dmanage6"/><line x1="324" x2="383.2" y1="479.6" y2="479.6" class="dmanage0"/><line x1="202.4" x2="261.6" y1="516.4" y2="516.4" class="dmanage0"/><line x1="445.6" x2="504.8" y1="516.4" y2="516.4" class="dmanage0"/><line id="svg-concept" x1="324" x2="383.2" y1="516.4" y2="516.4" class="dmanage6"/><line x1="202.4" x2="261.6" y1="553.3" y2="553.3" class="dmanage0"/><line x1="445.6" x2="504.8" y1="553.3" y2="553.3" class="dmanage0"/><line x1="324" x2="383.2" y1="553.3" y2="553.3" class="dmanage0"/><path d="M472.2,398.2H235c-1.6,0-3-1.4-3-3v-17.6c0-1.6,1.4-3,3-3h237.2c1.6,0,3,1.4,3,3v17.6 C475.2,396.9,473.9,398.2,472.2,398.2z" class="dmanage0"/><path id="svg-concept" d="M196.2,335c0,1.8-1.4,3.2-3.2,3.2c-1.8,0-3.2-1.4-3.2-3.2s1.4-3.2,3.2-3.2C194.8,331.7,196.2,333.2,196.2,335z" class="dmanage4"/><path d="M211.6,335c0,1.8-1.4,3.2-3.2,3.2c-1.8,0-3.2-1.4-3.2-3.2s1.4-3.2,3.2-3.2C210.1,331.7,211.6,333.2,211.6,335z" class="dmanage0"/><path d="M226.9,335c0,1.8-1.4,3.2-3.2,3.2c-1.8,0-3.2-1.4-3.2-3.2s1.4-3.2,3.2-3.2C225.5,331.7,226.9,333.2,226.9,335z" class="dmanage0"/><path d="M152.9,349.8h416.9" class="dmanage0"/></g><g><path id="svg-concept" d="M328.5,442.7c0,2.5-2,4.5-4.5,4.5c-2.5,0-4.5-2-4.5-4.5c0-2.5,2-4.5,4.5-4.5	C326.5,438.3,328.5,440.3,328.5,442.7z" class="dmanage7"/><animateMotion begin="0s" dur="2s" path="M55, 0 0 0 0 0 55 0" repeatCount="indefinite"/></g><g><path id="svg-concept" d="M206.9,516.4c0,2.5-2,4.5-4.5,4.5c-2.5,0-4.5-2-4.5-4.5c0-2.5,2-4.5,4.5-4.5	C204.9,511.9,206.9,513.9,206.9,516.4z" class="dmanage7"/><animateMotion begin="1s" dur="3s" path="M55, 0 0 0 0 0 55 0" repeatCount="indefinite"/></g><g><path id="svg-concept" d="M509.3,553.2c0,2.5-2,4.5-4.5,4.5c-2.5,0-4.5-2-4.5-4.5s2-4.5,4.5-4.5C507.3,548.8,509.3,550.8,509.3,553.2z" class="dmanage7"/><animateMotion begin="2s" dur="2s" path="M0, 0 -55 0 0 0 0 0" repeatCount="indefinite"/></g></svg>