<svg xmlns="http://www.w3.org/2000/svg" xmlns:xlink="http://www.w3.org/1999/xlink" style="enable-background:new 0 0 657.3 652.5" id="Layer_1" x="0" y="0" version="1.1" viewBox="0 0 657.3 652.5" xml:space="preserve"><style type="text/css">.drenewal0{fill:#fff;stroke:#ee5586;stroke-width:2}.drenewal0,.drenewal1,.drenewal2,.drenewal3,.drenewal4{stroke-linecap:round;stroke-linejoin:round;stroke-miterlimit:10}.drenewal1{fill:none;stroke:gray}.drenewal2,.drenewal3,.drenewal4{stroke:#ee5586}.drenewal2{fill:#fff;stroke-width:3}.drenewal3{fill:none}.drenewal4{fill:#fff;stroke-width:2}</style><line x1="464.8" x2="218.2" y1="533.1" y2="533.1" class="drenewal1"/><line x1="218.3" x2="218.2" y1="434.1" y2="533.1" class="drenewal1"/><line x1="533" x2="533" y1="408.4" y2="225.3" class="drenewal1"/><line x1="434" x2="533" y1="225.3" y2="225.3" class="drenewal1"/><g><path id="svg-concept" d="M408.6,533.1c0,2.5-2.1,4.6-4.6,4.6c-2.5,0-4.6-2.1-4.6-4.6c0-2.5,2.1-4.6,4.6-4.6	C406.6,528.5,408.6,530.6,408.6,533.1z" class="drenewal0"/><animateMotion begin="0s" dur="2s" path="M0, 0 -185 0 -185 -185 -185" repeatCount="indefinite"/></g><g><path id="svg-concept" d="M448.5,225.3c0,2.5-2.1,4.6-4.6,4.6c-2.5,0-4.6-2.1-4.6-4.6s2.1-4.6,4.6-4.6	C446.4,220.7,448.5,222.7,448.5,225.3z" class="drenewal0"/><animateMotion begin="0s" dur="2s" path="M0, 0 90 0 90 370 90" repeatCount="indefinite"/></g><g><path id="svg-concept" d="M434,218.3C434,99.2,337.4,2.5,218.2,2.5C99.1,2.5,2.4,99.2,2.4,218.3c0,119.2,96.6,215.8,215.8,215.8 C337.4,434.1,434,337.5,434,218.3z" class="drenewal2"/><path id="svg-concept" d="M337.5,218.3c0-119.2-53.4-215.8-119.3-215.8c-65.9,0-119.3,96.6-119.3,215.8c0,119.2,53.4,215.8,119.3,215.8 C284.1,434.1,337.5,337.5,337.5,218.3z" class="drenewal3"/><g><path d="M46.6,90.2c42.8,31.7,103.8,51.6,171.6,51.6c67.8,0,128.9-19.9,171.6-51.6" class="drenewal1"/><path d="M389.8,346.5c-42.8-31.7-103.8-51.6-171.6-51.6c-67.8,0-128.9,19.9-171.6,51.6" class="drenewal1"/></g><line x1="4.3" x2="432" y1="225.3" y2="225.3" class="drenewal1"/><line x1="218.2" x2="218.2" y1="4.1" y2="431.8" class="drenewal1"/><path id="svg-concept" d="M653.8,529.2c0-66.7-54.1-120.8-120.8-120.8c-66.7,0-120.8,54.1-120.8,120.8c0,66.7,54.1,120.8,120.8,120.8 C599.7,650,653.8,595.9,653.8,529.2z" class="drenewal4"/><path id="svg-concept" d="M599.8,529.2c0-66.7-29.9-120.8-66.8-120.8c-36.9,0-66.8,54.1-66.8,120.8c0,66.7,29.9,120.8,66.8,120.8 C569.9,650,599.8,595.9,599.8,529.2z" class="drenewal3"/><g><path d="M437,457.5c23.9,17.8,58.1,28.9,96.1,28.9c37.9,0,72.1-11.1,96.1-28.9" class="drenewal1"/><path d="M629.1,600.9c-23.9-17.8-58.1-28.9-96.1-28.9c-37.9,0-72.1,11.1-96.1,28.9" class="drenewal1"/></g><line x1="412.2" x2="653.8" y1="533.1" y2="533.1" class="drenewal1"/><line x1="533" x2="533" y1="408.4" y2="650" class="drenewal1"/></g></svg>