<svg xmlns="http://www.w3.org/2000/svg" xmlns:xlink="http://www.w3.org/1999/xlink" id="Layer_1" x="0" y="0" version="1.1" viewBox="0 0 1105.7 406" xml:space="preserve" style="enable-background:new 0 0 1105.7 406"><style type="text/css">.emailsecurity0{fill:none;stroke:gray;stroke-linecap:round;stroke-linejoin:round;stroke-miterlimit:10}.emailsecurity1{fill:#fff}.emailsecurity2{fill:none;stroke:#ee5586;stroke-width:3}.emailsecurity2,.emailsecurity3,.emailsecurity4{stroke-linecap:round;stroke-linejoin:round}.emailsecurity3{fill:none;stroke:#ee5586;stroke-width:3;stroke-dasharray:12.0166,12.0166}.emailsecurity4{fill:#fff;stroke:gray;stroke-width:2;stroke-miterlimit:10}.emailsecurity5{stroke:gray}.emailsecurity5,.emailsecurity6,.emailsecurity7{fill:#fff;stroke-linecap:round;stroke-linejoin:round;stroke-miterlimit:10}.emailsecurity6{fill-opacity:.75;stroke:gray}.emailsecurity7{stroke:#ee5586;stroke-width:3}</style><g><line x1=".1" x2="1105.6" y1="265.1" y2="265.1" class="emailsecurity0"/><g><line x1=".1" x2="1105.6" y1="274.3" y2="274.3" class="emailsecurity1"/><g><line id="svg-concept" x1=".1" x2="6.1" y1="274.3" y2="274.3" class="emailsecurity2"/><line id="svg-concept" x1="18.1" x2="1093.6" y1="274.3" y2="274.3" class="emailsecurity3"/><line id="svg-concept" x1="1099.6" x2="1105.6" y1="274.3" y2="274.3" class="emailsecurity2"/><animateMotion begin="0s" dur="3s" path="M0, 0 20 0 0 0" repeatCount="indefinite"/></g></g><line x1=".1" x2="1105.6" y1="324.3" y2="324.3" class="emailsecurity0"/><g><line x1=".1" x2="1105.6" y1="314" y2="314" class="emailsecurity1"/><g><line id="svg-concept" x1=".1" x2="6.1" y1="314" y2="314" class="emailsecurity2"/><line id="svg-concept" x1="18.1" x2="1093.6" y1="314" y2="314" class="emailsecurity3"/><line id="svg-concept" x1="1099.6" x2="1105.6" y1="314" y2="314" class="emailsecurity2"/></g><animateMotion begin="0s" dur="3s" path="M0, 0 -20 0 0 0" repeatCount="indefinite"/></g></g><g><g><path d="M40.6,131.3c0-4.6,3.7-8.3,8.4-8.3h158.9c4.6,0,8.3,3.8,8.3,8.3v104.6c0,4.6-3.7,8.3-8.3,8.3H49 c-4.6,0-8.4-3.8-8.4-8.3V131.3z" class="emailsecurity4"/><polyline points="207.9 122.9 128.4 181.5 49 122.9" class="emailsecurity0"/><line x1="103.3" x2="44.8" y1="164.7" y2="240" class="emailsecurity0"/><line x1="153.5" x2="212" y1="164.7" y2="240" class="emailsecurity0"/><path d="M245.3,255.7H15.8c-1.7,0-3-1.4-3-3l-5-38.5c0-1.6,1.3-3,3-3h239.5c1.6,0,3,1.4,3,3l-5,38.5 C248.3,254.4,246.9,255.7,245.3,255.7z" class="emailsecurity5"/></g><g><path d="M463,131.3c0-4.6,3.7-8.3,8.4-8.3h158.9c4.6,0,8.3,3.8,8.3,8.3v104.6c0,4.6-3.7,8.3-8.3,8.3H471.3 c-4.6,0-8.4-3.8-8.4-8.3V131.3z" class="emailsecurity4"/><polyline points="630.2 122.9 550.7 181.5 471.3 122.9" class="emailsecurity0"/><line x1="525.7" x2="467.1" y1="164.7" y2="240" class="emailsecurity0"/><line x1="575.8" x2="634.4" y1="164.7" y2="240" class="emailsecurity0"/><path d="M667.6,255.7H438.1c-1.6,0-3-1.4-3-3l-5-38.5c0-1.6,1.4-3,3-3h239.5c1.6,0,3,1.4,3,3l-5,38.5 C670.6,254.4,669.3,255.7,667.6,255.7z" class="emailsecurity5"/></g><g><path d="M885.3,131.3c0-4.6,3.7-8.3,8.4-8.3h158.9c4.6,0,8.3,3.8,8.3,8.3v104.6c0,4.6-3.7,8.3-8.3,8.3H893.6 c-4.6,0-8.4-3.8-8.4-8.3V131.3z" class="emailsecurity4"/><polyline points="1052.5 122.9 973.1 181.5 893.6 122.9" class="emailsecurity0"/><line x1="948" x2="889.5" y1="164.7" y2="240" class="emailsecurity0"/><line x1="998.2" x2="1056.7" y1="164.7" y2="240" class="emailsecurity0"/><path d="M1089.9,255.7H860.4c-1.7,0-3-1.4-3-3l-5-38.5c0-1.6,1.3-3,3-3h239.5c1.7,0,3,1.4,3,3l-5,38.5 C1092.9,254.4,1091.6,255.7,1089.9,255.7z" class="emailsecurity5"/></g><animateMotion fill="freeze" begin="0s" dur="5s" path="M0, 0 1440 0"/><animateMotion begin="6s" dur="6s" path="M-1000, 0 1440 0" repeatCount="indefinite"/></g><g><path d="M756.4,394.2H349.3c-10.9,0-19.9-9-19.9-19.9V29c0-10.9,9-19.9,19.9-19.9h407.1c10.9,0,19.9,9,19.9,19.9v345.3 C776.3,385.2,767.4,394.2,756.4,394.2z" class="emailsecurity6"/><path d="M366.5,54c-4-1.1-6.3-5.1-5.3-9.1c1.1-4,5.1-6.3,9.1-5.3s6.3,5.1,5.3,9.1C374.5,52.7,370.4,55,366.5,54z" class="emailsecurity5"/><path d="M367.7,49.5c-1.5-0.4-2.4-1.9-2-3.4c0.4-1.5,1.9-2.3,3.4-2c1.5,0.4,2.3,1.9,2,3.4 C370.7,49,369.2,49.9,367.7,49.5z" class="emailsecurity5"/><line x1="366.5" x2="367.7" y1="54" y2="49.5" class="emailsecurity5"/><line x1="369.1" x2="370.3" y1="44.1" y2="39.6" class="emailsecurity5"/><path d="M366.5,363.4c-4-1.1-6.3-5.1-5.3-9.1c1.1-4,5.1-6.3,9.1-5.3s6.3,5.1,5.3,9.1 C374.5,362.1,370.4,364.4,366.5,363.4z" class="emailsecurity5"/><path d="M367.7,358.9c-1.5-0.4-2.4-1.9-2-3.4c0.4-1.5,1.9-2.3,3.4-2c1.5,0.4,2.3,1.9,2,3.4 C370.7,358.4,369.2,359.2,367.7,358.9z" class="emailsecurity5"/><line x1="366.5" x2="367.7" y1="363.4" y2="358.8" class="emailsecurity5"/><line x1="369.1" x2="370.3" y1="353.5" y2="349" class="emailsecurity5"/><path d="M734.3,54c-4-1.1-6.3-5.1-5.3-9.1c1.1-4,5.1-6.3,9.1-5.3c4,1.1,6.3,5.1,5.3,9.1C742.3,52.7,738.3,55,734.3,54z" class="emailsecurity5"/><path d="M735.5,49.5c-1.5-0.4-2.4-1.9-2-3.4c0.4-1.5,1.9-2.3,3.4-2c1.5,0.4,2.3,1.9,2,3.4 C738.5,49,737,49.9,735.5,49.5z" class="emailsecurity5"/><line x1="734.3" x2="735.5" y1="54" y2="49.5" class="emailsecurity5"/><line x1="736.9" x2="738.1" y1="44.1" y2="39.6" class="emailsecurity5"/><path d="M734.3,363.4c-4-1.1-6.3-5.1-5.3-9.1c1.1-4,5.1-6.3,9.1-5.3c4,1.1,6.3,5.1,5.3,9.1 C742.3,362.1,738.3,364.4,734.3,363.4z" class="emailsecurity5"/><path d="M735.5,358.9c-1.5-0.4-2.4-1.9-2-3.4c0.4-1.5,1.9-2.3,3.4-2c1.5,0.4,2.3,1.9,2,3.4 C738.5,358.4,737,359.2,735.5,358.9z" class="emailsecurity5"/><line x1="734.3" x2="735.5" y1="363.4" y2="358.8" class="emailsecurity5"/><line x1="736.9" x2="738.1" y1="353.5" y2="349" class="emailsecurity5"/></g><g><line id="svg-concept" x1="401.1" x2="704.6" y1="83.3" y2="83.3" class="emailsecurity7"/><animateMotion begin="0s" dur="4s" path="M0, 250 0 0 0 250" repeatCount="indefinite"/></g></svg>