<svg xmlns="http://www.w3.org/2000/svg" xmlns:xlink="http://www.w3.org/1999/xlink" id="Layer_1" x="0" y="0" version="1.1" viewBox="0 0 603.8 423.8" xml:space="preserve" style="enable-background:new 0 0 603.8 423.8"><style type="text/css">.gpull0,.gpull1{fill:none;stroke:#d7d7d7;stroke-miterlimit:10}.gpull1{stroke:gray;stroke-linecap:round;stroke-linejoin:round}.gpull2,.gpull3{stroke:#ee5586;stroke-miterlimit:10}.gpull2{fill:#fff;stroke-width:2}.gpull2,.gpull3,.gpull4{stroke-linecap:round;stroke-linejoin:round}.gpull3{fill:none}.gpull4{stroke:gray}.gpull4,.gpull5{fill:#fff;stroke-miterlimit:10}.gpull5,.gpull6{stroke:gray}.gpull6,.gpull7{stroke-miterlimit:10}.gpull6,.gpull7{fill:none}.gpull7{stroke:#d7d7d7;stroke-linecap:round}</style><path d="M117.7,146.4" class="gpull0"/><line x1="257.6" x2="117.7" y1="272.4" y2="272.4" class="gpull1"/><line x1="117.5" x2="117.5" y1="346.1" y2="146.4" class="gpull1"/><line x1="257.6" x2="117.5" y1="346.1" y2="346.1" class="gpull1"/><g><path id="svg-concept" d="M122.4,140.5c0,2.5-2,4.5-4.5,4.5c-2.5,0-4.5-2-4.5-4.5s2-4.5,4.5-4.5C120.4,136,122.4,138,122.4,140.5z" class="gpull2"/><animateMotion begin="0s" dur="3s" path="M0, 0 0 205 205 205" repeatCount="indefinite"/></g><g><path id="svg-concept" d="M269.3,272.4c0,2.5-2,4.5-4.5,4.5c-2.5,0-4.5-2-4.5-4.5s2-4.5,4.5-4.5C267.3,267.9,269.3,269.9,269.3,272.4z" class="gpull2"/><animateMotion begin="1s" dur="2s" path="M0, 0 -147 0 -147 -130 130" repeatCount="indefinite"/></g><g><g><circle id="svg-concept" cx="428.5" cy="408.9" r="10.5" class="gpull2"/><line id="svg-concept" x1="428.5" x2="428.5" y1="379.6" y2="397.7" class="gpull3"/><line id="svg-concept" x1="345.1" x2="417.6" y1="408.9" y2="408.9" class="gpull3"/><line id="svg-concept" x1="439.4" x2="511.9" y1="408.9" y2="408.9" class="gpull3"/></g><path d="M599.4,216.5c0,5.5-4.1,10-9.1,10H266.7c-5,0-9.1-4.5-9.1-10V181c0-5.5,4.1-10,9.1-10h323.5 c5,0,9.1,4.5,9.1,10V216.5z" class="gpull4"/><line x1="276.4" x2="276.4" y1="171" y2="226.2" class="gpull1"/><line x1="580.6" x2="580.6" y1="171" y2="226.5" class="gpull1"/><path id="svg-concept" d="M556.3,198.7c0,6.6-5.3,11.9-11.9,11.9c-6.5,0-11.8-5.3-11.8-11.9s5.3-11.8,11.8-11.8 C551,186.9,556.3,192.2,556.3,198.7z" class="gpull3"/><path id="svg-concept" d="M548.9,198.7c0,2.4-2,4.4-4.4,4.4c-2.4,0-4.4-2-4.4-4.4s2-4.4,4.4-4.4C546.9,194.3,548.9,196.3,548.9,198.7z" class="gpull3"/><line id="svg-concept" x1="556.3" x2="548.9" y1="198.8" y2="198.8" class="gpull3"/><line id="svg-concept" x1="540.1" x2="532.6" y1="198.8" y2="198.8" class="gpull3"/><path d="M599.4,290.1c0,5.5-4.1,10-9.1,10H266.7c-5,0-9.1-4.5-9.1-10v-35.4c0-5.5,4.1-10,9.1-10h323.5 c5,0,9.1,4.5,9.1,10V290.1z" class="gpull4"/><line x1="276.4" x2="276.4" y1="244.7" y2="299.9" class="gpull1"/><line x1="580.6" x2="580.6" y1="244.7" y2="300.1" class="gpull1"/><path id="svg-concept" d="M556.3,272.4c0,6.6-5.3,11.9-11.9,11.9c-6.5,0-11.8-5.3-11.8-11.9c0-6.6,5.3-11.8,11.8-11.8 C551,260.5,556.3,265.8,556.3,272.4z" class="gpull3"/><path id="svg-concept" d="M548.9,272.4c0,2.4-2,4.4-4.4,4.4c-2.4,0-4.4-2-4.4-4.4s2-4.4,4.4-4.4C546.9,268,548.9,270,548.9,272.4z" class="gpull3"/><line id="svg-concept" x1="556.3" x2="548.9" y1="272.4" y2="272.4" class="gpull3"/><line id="svg-concept" x1="540.1" x2="532.6" y1="272.4" y2="272.4" class="gpull3"/><path d="M599.4,363.8c0,5.5-4.1,10-9.1,10H266.7c-5,0-9.1-4.5-9.1-10v-35.4c0-5.5,4.1-10,9.1-10h323.5 c5,0,9.1,4.5,9.1,10V363.8z" class="gpull4"/><line x1="276.4" x2="276.4" y1="318.3" y2="373.5" class="gpull1"/><line x1="580.6" x2="580.6" y1="318.3" y2="373.8" class="gpull1"/><path id="svg-concept" d="M556.3,346c0,6.6-5.3,11.9-11.9,11.9c-6.5,0-11.8-5.3-11.8-11.9c0-6.6,5.3-11.8,11.8-11.8 C551,334.2,556.3,339.5,556.3,346z" class="gpull3"/><path id="svg-concept" d="M548.9,346c0,2.4-2,4.4-4.4,4.4c-2.4,0-4.4-2-4.4-4.4c0-2.4,2-4.4,4.4-4.4C546.9,341.6,548.9,343.6,548.9,346z" class="gpull3"/><line id="svg-concept" x1="556.3" x2="548.9" y1="346.1" y2="346.1" class="gpull3"/><line id="svg-concept" x1="540.1" x2="532.6" y1="346.1" y2="346.1" class="gpull3"/></g><g><path d="M2.2,136.2c0-0.8,0.7-1.5,1.5-1.5h228.1c0.8,0,1.5,0.7,1.5,1.5v4.6c0,0-0.1,5.6-11.7,5.6h-99.3H13.9 c-11.6,0-11.7-5.6-11.7-5.6L2.2,136.2z" class="gpull5"/><path d="M207.9,127.3V8.4c0-3.4-2.7-6.1-6-6.1H34.8c-3.3,0-6,2.7-6,6.1v118.9H207.9z" class="gpull5"/><polyline points="233.3 140.8 122.2 140.8 2.2 140.8" class="gpull6"/><path d="M117.7,134.7h-17.6c0,0,0.3,2.5,3,2.5c2.8,0,14.6,0,14.6,0s11.8,0,14.6,0c2.8,0,3-2.5,3-2.5H117.7z" class="gpull6"/><rect width="162.1" height="104.7" x="36.9" y="15.3" class="gpull0"/><path id="svg-concept" d="M53.7,22c0,0.7-0.6,1.3-1.3,1.3c-0.7,0-1.3-0.6-1.3-1.3c0-0.7,0.6-1.3,1.3-1.3C53.2,20.8,53.7,21.3,53.7,22z" class="gpull2"/><path d="M59.7,22c0,0.7-0.6,1.3-1.3,1.3c-0.7,0-1.3-0.6-1.3-1.3c0-0.7,0.6-1.3,1.3-1.3C59.1,20.8,59.7,21.3,59.7,22z" class="gpull0"/><path d="M65.7,22c0,0.7-0.6,1.3-1.3,1.3c-0.7,0-1.3-0.6-1.3-1.3c0-0.7,0.6-1.3,1.3-1.3C65.1,20.8,65.7,21.3,65.7,22z" class="gpull0"/><path d="M36.9,27.9h43.9l2.7-5.6h31.8l2.5,5.6H199" class="gpull0"/><polyline points="42.3 32.7 40.6 34.5 42.3 36.2" class="gpull0"/><line x1="45.9" x2="40.6" y1="34.5" y2="34.5" class="gpull0"/><polyline points="52.8 36.2 54.5 34.5 52.8 32.7" class="gpull0"/><line x1="49.2" x2="54.5" y1="34.5" y2="34.5" class="gpull0"/><path d="M61.6,32.7c-1.1,0-2,0.9-2,2c0,1.1,0.9,2,2,2c1.1,0,2-0.9,2-2" class="gpull0"/><polygon points="61.6 33.2 61.6 32.1 62.7 32.7" class="gpull0"/><circle id="svg-concept" cx="100.4" cy="108.1" r="2.2" class="gpull2"/><line x1="100.4" x2="91.4" y1="55.6" y2="61.6" class="gpull7"/><line x1="91.4" x2="91.4" y1="61.6" y2="94.1" class="gpull7"/><line x1="100.4" x2="108.8" y1="60.6" y2="65.6" class="gpull7"/><line x1="108.8" x2="108.8" y1="65.6" y2="99.2" class="gpull7"/><path d="M91.4,98.5c-1.2,0-2.2-1-2.2-2.2c0-1.2,1-2.2,2.2-2.2c1.2,0,2.2,1,2.2,2.2C93.6,97.5,92.6,98.5,91.4,98.5z" class="gpull1"/><circle cx="108.8" cy="101.3" r="2.2" class="gpull1"/><line x1="91.8" x2="100.2" y1="74.8" y2="79.7" class="gpull7"/><line id="svg-concept" x1="100.4" x2="100.4" y1="106" y2="40.6" class="gpull3"/><line x1="125.4" x2="183.5" y1="61.6" y2="61.6" class="gpull7"/><line x1="125.4" x2="173.8" y1="70.8" y2="70.8" class="gpull7"/><line x1="125.4" x2="183.5" y1="94" y2="94" class="gpull7"/><line x1="125.4" x2="183.5" y1="82.8" y2="82.8" class="gpull7"/><line x1="125.4" x2="173.8" y1="103.1" y2="103.1" class="gpull7"/><line x1="50.1" x2="72.9" y1="61.6" y2="61.6" class="gpull7"/><line x1="50.1" x2="69.1" y1="70.8" y2="70.8" class="gpull7"/><line x1="50.1" x2="72.9" y1="94" y2="94" class="gpull7"/><line x1="50.1" x2="69.1" y1="103.1" y2="103.1" class="gpull7"/><path d="M36.9,40.6H199" class="gpull0"/></g></svg>