<svg xmlns="http://www.w3.org/2000/svg" xmlns:xlink="http://www.w3.org/1999/xlink" id="Layer_1" x="0" y="0" version="1.1" viewBox="0 0 1099.5 435.7" xml:space="preserve" style="enable-background:new 0 0 1099.5 435.7"><style type="text/css">.maxs0{fill:#fff;stroke:gray}.maxs0,.maxs1,.maxs2{stroke-linecap:round;stroke-linejoin:round;stroke-miterlimit:10}.maxs1{fill:#fff;stroke:#ee5586;stroke-width:3}.maxs2{fill:none;stroke:gray}.maxs4{fill:#ee5586}</style><path d="M190,15L10.6,3.7c-1.6,0-3,1.3-3,3v132.8c0,1.6,1.3,3,3,3H190c1.6,0,3-1.3,3-3V17.9C192.9,16.3,191.6,15,190,15	z" class="maxs0"/><path d="M637.5,24.1l-179.3-1.5c-1.6,0-3,1.3-3,3v113.8c0,1.6,1.3,3,3,3h179.3c1.6,0,3-1.3,3-3V27.1	C640.4,25.5,639.1,24.1,637.5,24.1z" class="maxs0"/><path d="M861.1,19.7l-179.3,3.7c-1.6,0-3,1.3-3,3v113.1c0,1.6,1.3,3,3,3h179.3c1.6,0,3-1.3,3-3V22.7	C864.1,21,862.8,19.7,861.1,19.7z" class="maxs0"/><path d="M1084.5,9l-179.3,9.2c-1.6,0-3,1.3-3,3v118.3c0,1.6,1.3,3,3,3h179.3c1.6,0,3-1.3,3-3V11.9	C1087.5,10.3,1086.2,9,1084.5,9z" class="maxs0"/><path d="M905.2,289.6l179.3,11.3c1.6,0,3-1.3,3-3V165.1c0-1.6-1.3-3-3-3H905.2c-1.6,0-3,1.3-3,3v121.5	C902.2,288.2,903.6,289.6,905.2,289.6z" class="maxs0"/><path d="M457.7,280.4l179.3,1.5c1.6,0,3-1.3,3-3V165.1c0-1.6-1.3-3-3-3H457.7c-1.6,0-3,1.3-3,3v112.4	C454.8,279.1,456.1,280.4,457.7,280.4z" class="maxs0"/><path d="M469.4,428.1l155.9,1.6c1.8,0,3.3-1.5,3.3-3.3L649.5,306c1.1-5.7,0-9.7-7.7-9.7H453.9c-7.2,0-9.2,4.3-8.6,10.1	l20.8,118.4C466.1,426.6,467.6,428.1,469.4,428.1z" class="maxs0"/><path d="M233.5,284.8l179.3-3.7c1.6,0,3-1.3,3-3V165.1c0-1.6-1.3-3-3-3H233.5c-1.6,0-3,1.3-3,3v116.8	C230.5,283.5,231.8,284.8,233.5,284.8z" class="maxs0"/><path d="M10.6,295.6l179.3-9.2c1.6,0,3-1.3,3-3V165.1c0-1.6-1.3-3-3-3H10.6c-1.6,0-3,1.3-3,3v127.5	C7.7,294.2,9,295.6,10.6,295.6z" class="maxs0"/><path d="M605,296.3H489.7c0-31.9,25.8-57.7,57.7-57.7S605,264.5,605,296.3z" class="maxs0"/><path d="M448,329c-137.9,2.3-284.4,9-443.9,19.6" class="maxs2"/><path d="M1094.2,348.6c-157.2-11.3-304.5-17.9-448.7-19.8" class="maxs2"/><circle id="svg-ico" cx="4" cy="348.6" r="3" class="maxs4"/><circle id="svg-ico" cx="1094.2" cy="348.6" r="3" class="maxs4"/><g><path id="svg-concept" d="M412.8,22.7L233.5,16c-1.6,0-3,1.3-3,3v120.5c0,1.6,1.3,3,3,3h179.3c1.6,0,3-1.3,3-3V25.6	C415.8,24,414.4,22.7,412.8,22.7z" class="maxs1"/><animate attributeName="opacity" begin="0s" dur="1s" repeatCount="indefinite" values="0;1;0"/></g><g><path id="svg-concept" d="M681.8,281.9l179.3,6.6c1.6,0,3-1.3,3-3V165.1c0-1.6-1.3-3-3-3H681.8c-1.6,0-3,1.3-3,3v113.8	C678.9,280.5,680.2,281.9,681.8,281.9z" class="maxs1"/><animate attributeName="opacity" begin="1s" dur="1s" repeatCount="indefinite" values="0;1;0"/></g></svg>