<svg xmlns="http://www.w3.org/2000/svg" xmlns:xlink="http://www.w3.org/1999/xlink" id="Layer_1" x="0" y="0" version="1.1" viewBox="0 0 1436.1 615" xml:space="preserve" style="enable-background:new 0 0 1436.1 615"><style type="text/css">.st0{opacity:.15;fill:none;stroke:#fff;stroke-linecap:round;stroke-linejoin:round;stroke-miterlimit:10;stroke-opacity:.35}</style><polyline points="54.2 412.9 102.5 461.2 54.2 509.5" class="st0"/><line x1="12.8" x2="48.3" y1="448.4" y2="412.9" class="st0"/><line x1="48.3" x2="12.8" y1="509.5" y2="474.1" class="st0"/><path d="M51.2,516.7c-2.3,0-4.2-1.9-4.2-4.2s1.9-4.2,4.2-4.2c2.3,0,4.2,1.9,4.2,4.2S53.6,516.7,51.2,516.7z" class="st0"/><path d="M51.2,414.2c-2.3,0-4.2-1.9-4.2-4.2c0-2.3,1.9-4.2,4.2-4.2c2.3,0,4.2,1.9,4.2,4.2	C55.4,412.3,53.6,414.2,51.2,414.2z" class="st0"/><path d="M47,615c0-2.3,1.9-4.2,4.2-4.2c2.3,0,4.2,1.9,4.2,4.2" class="st0"/><line x1="12.8" x2="48.3" y1="345.9" y2="310.5" class="st0"/><line x1="48.3" x2="12.8" y1="407" y2="371.6" class="st0"/><polyline points="54.2 310.5 102.5 358.7 54.2 407" class="st0"/><polyline points="54.2 208 102.5 256.2 54.2 304.5" class="st0"/><line x1="12.8" x2="48.3" y1="243.4" y2="208" class="st0"/><line x1="48.3" x2="12.8" y1="304.5" y2="269.1" class="st0"/><path d="M51.2,311.7c-2.3,0-4.2-1.9-4.2-4.2s1.9-4.2,4.2-4.2c2.3,0,4.2,1.9,4.2,4.2S53.6,311.7,51.2,311.7z" class="st0"/><line x1="12.6" x2="48.3" y1="551.1" y2="515.4" class="st0"/><line x1="48.3" x2="12.6" y1="612" y2="576.4" class="st0"/><polyline points="54.2 515.4 102.5 563.7 54.2 612" class="st0"/><line x1="0" x2="25.3" y1="615" y2="589.7" class="st0"/><line x1="0" x2="51.3" y1="563.7" y2="563.7" class="st0"/><line x1="64.1" x2="51.4" y1="551" y2="563.7" class="st0"/><line x1="64.1" x2="51.3" y1="576.5" y2="563.7" class="st0"/><line x1="25.6" x2=".1" y1="486.9" y2="512.5" class="st0"/><line x1="25.6" x2=".1" y1="538" y2="512.5" class="st0"/><line x1="25.6" x2=".1" y1="384.4" y2="410" class="st0"/><line x1="25.6" x2=".1" y1="435.6" y2="410" class="st0"/><line x1="25.6" x2=".1" y1="281.9" y2="307.5" class="st0"/><line x1="25.6" x2=".1" y1="333" y2="307.5" class="st0"/><line x1="0" x2="51.3" y1="461.2" y2="461.2" class="st0"/><line x1="64.1" x2="51.4" y1="448.4" y2="461.2" class="st0"/><line x1="64.1" x2="51.3" y1="474" y2="461.2" class="st0"/><line x1="55.4" x2="102.6" y1="512.5" y2="512.5" class="st0"/><line x1="55.4" x2="102.6" y1="615" y2="615" class="st0"/><line x1="55.4" x2="102.6" y1="409.9" y2="409.9" class="st0"/><line x1="55.4" x2="102.6" y1="307.4" y2="307.4" class="st0"/><line x1="55.4" x2="102.6" y1="205" y2="205" class="st0"/><line x1="55.4" x2="102.6" y1="102.5" y2="102.5" class="st0"/><line x1="0" x2="51.3" y1="358.7" y2="358.7" class="st0"/><line x1="64.1" x2="51.4" y1="346" y2="358.7" class="st0"/><line x1="64.1" x2="51.3" y1="371.5" y2="358.7" class="st0"/><line x1="0" x2="51.3" y1="256.2" y2="256.2" class="st0"/><line x1="64.1" x2="51.4" y1="243.5" y2="256.2" class="st0"/><line x1="64.1" x2="51.3" y1="269" y2="256.2" class="st0"/><path d="M51.2,209.2c-2.3,0-4.2-1.9-4.2-4.2c0-2.3,1.9-4.2,4.2-4.2c2.3,0,4.2,1.9,4.2,4.2	C55.4,207.3,53.6,209.2,51.2,209.2z" class="st0"/><line x1="12.8" x2="48.3" y1="140.9" y2="105.5" class="st0"/><line x1="48.3" x2="12.8" y1="202" y2="166.6" class="st0"/><polyline points="54.2 105.5 102.5 153.8 54.2 202" class="st0"/><polyline points="54.2 3 102.5 51.2 54.2 99.5" class="st0"/><line x1="12.8" x2="48.3" y1="38.5" y2="3" class="st0"/><line x1="48.3" x2="12.8" y1="99.5" y2="64.1" class="st0"/><path d="M51.2,106.7c-2.3,0-4.2-1.9-4.2-4.2c0-2.3,1.9-4.2,4.2-4.2c2.3,0,4.2,1.9,4.2,4.2	C55.4,104.8,53.6,106.7,51.2,106.7z" class="st0"/><path d="M55.4,0c0,2.3-1.9,4.2-4.2,4.2C48.9,4.2,47,2.3,47,0" class="st0"/><line x1="25.6" x2=".1" y1="179.4" y2="205" class="st0"/><line x1="25.6" x2=".1" y1="230.6" y2="205" class="st0"/><line x1="25.6" x2=".1" y1="76.9" y2="102.5" class="st0"/><line x1="25.6" x2=".1" y1="128.1" y2="102.5" class="st0"/><line x1="25.6" x2=".1" y1="25.6" y2="0" class="st0"/><line x1="0" x2="51.3" y1="153.8" y2="153.8" class="st0"/><line x1="64.1" x2="51.4" y1="141" y2="153.8" class="st0"/><line x1="64.1" x2="51.3" y1="166.5" y2="153.8" class="st0"/><line x1="0" x2="51.3" y1="51.2" y2="51.2" class="st0"/><line x1="64.6" x2="51.4" y1="38" y2="51.2" class="st0"/><line x1="64.1" x2="51.3" y1="64" y2="51.2" class="st0"/><polyline points="156.7 412.9 205 461.2 156.7 509.5" class="st0"/><line x1="115.4" x2="150.8" y1="448.4" y2="412.9" class="st0"/><line x1="150.8" x2="115.4" y1="509.5" y2="474.1" class="st0"/><path d="M153.8,516.7c-2.3,0-4.2-1.9-4.2-4.2s1.9-4.2,4.2-4.2c2.3,0,4.2,1.9,4.2,4.2S156.1,516.7,153.8,516.7z" class="st0"/><path d="M153.8,414.2c-2.3,0-4.2-1.9-4.2-4.2c0-2.3,1.9-4.2,4.2-4.2c2.3,0,4.2,1.9,4.2,4.2	C158,412.3,156.1,414.2,153.8,414.2z" class="st0"/><path d="M149.6,615c0-2.3,1.9-4.2,4.2-4.2c2.3,0,4.2,1.9,4.2,4.2" class="st0"/><line x1="115.4" x2="150.8" y1="345.9" y2="310.5" class="st0"/><line x1="150.8" x2="115.4" y1="407" y2="371.6" class="st0"/><polyline points="156.7 310.5 205 358.7 156.7 407" class="st0"/><polyline points="156.7 208 205 256.2 156.7 304.5" class="st0"/><line x1="115.4" x2="150.8" y1="243.4" y2="208" class="st0"/><line x1="150.8" x2="115.4" y1="304.5" y2="269.1" class="st0"/><path d="M153.8,311.7c-2.3,0-4.2-1.9-4.2-4.2s1.9-4.2,4.2-4.2c2.3,0,4.2,1.9,4.2,4.2S156.1,311.7,153.8,311.7z" class="st0"/><line x1="115.2" x2="150.8" y1="551.1" y2="515.4" class="st0"/><line x1="150.8" x2="115.2" y1="612" y2="576.4" class="st0"/><polyline points="156.7 515.4 205 563.7 156.7 612" class="st0"/><line x1="102.5" x2="127.8" y1="615" y2="589.7" class="st0"/><line x1="102.5" x2="153.9" y1="563.7" y2="563.7" class="st0"/><line x1="166.7" x2="153.9" y1="551" y2="563.7" class="st0"/><line x1="166.7" x2="153.9" y1="576.5" y2="563.7" class="st0"/><line x1="128.2" x2="102.6" y1="486.9" y2="512.5" class="st0"/><line x1="128.2" x2="102.6" y1="538" y2="512.5" class="st0"/><line x1="128.2" x2="102.6" y1="384.4" y2="410" class="st0"/><line x1="128.2" x2="102.6" y1="435.6" y2="410" class="st0"/><line x1="128.2" x2="102.6" y1="281.9" y2="307.5" class="st0"/><line x1="128.2" x2="102.6" y1="333" y2="307.5" class="st0"/><line x1="102.5" x2="153.9" y1="461.2" y2="461.2" class="st0"/><line x1="166.7" x2="153.9" y1="448.4" y2="461.2" class="st0"/><line x1="166.7" x2="153.9" y1="474" y2="461.2" class="st0"/><line x1="158" x2="205.1" y1="512.5" y2="512.5" class="st0"/><line x1="158" x2="205.1" y1="615" y2="615" class="st0"/><line x1="158" x2="205.1" y1="409.9" y2="409.9" class="st0"/><line x1="158" x2="205.1" y1="307.4" y2="307.4" class="st0"/><line x1="158" x2="205.1" y1="205" y2="205" class="st0"/><line x1="158" x2="205.1" y1="102.5" y2="102.5" class="st0"/><line x1="102.5" x2="153.9" y1="358.7" y2="358.7" class="st0"/><line x1="166.7" x2="153.9" y1="346" y2="358.7" class="st0"/><line x1="166.7" x2="153.9" y1="371.5" y2="358.7" class="st0"/><line x1="102.5" x2="153.9" y1="256.2" y2="256.2" class="st0"/><line x1="166.7" x2="153.9" y1="243.5" y2="256.2" class="st0"/><line x1="166.7" x2="153.9" y1="269" y2="256.2" class="st0"/><path d="M153.8,209.2c-2.3,0-4.2-1.9-4.2-4.2c0-2.3,1.9-4.2,4.2-4.2c2.3,0,4.2,1.9,4.2,4.2	C158,207.3,156.1,209.2,153.8,209.2z" class="st0"/><line x1="115.4" x2="150.8" y1="140.9" y2="105.5" class="st0"/><line x1="150.8" x2="115.4" y1="202" y2="166.6" class="st0"/><polyline points="156.7 105.5 205 153.8 156.7 202" class="st0"/><polyline points="156.7 3 205 51.2 156.7 99.5" class="st0"/><line x1="115.3" x2="150.8" y1="38.5" y2="3" class="st0"/><line x1="150.8" x2="115.4" y1="99.5" y2="64.1" class="st0"/><path d="M153.8,106.7c-2.3,0-4.2-1.9-4.2-4.2c0-2.3,1.9-4.2,4.2-4.2c2.3,0,4.2,1.9,4.2,4.2	C158,104.8,156.1,106.7,153.8,106.7z" class="st0"/><path d="M158,0c0,2.3-1.9,4.2-4.2,4.2c-2.3,0-4.2-1.9-4.2-4.2" class="st0"/><line x1="128.2" x2="102.6" y1="179.4" y2="205" class="st0"/><line x1="128.2" x2="102.6" y1="230.6" y2="205" class="st0"/><line x1="128.2" x2="102.6" y1="76.9" y2="102.5" class="st0"/><line x1="128.2" x2="102.6" y1="128.1" y2="102.5" class="st0"/><line x1="128.2" x2="102.6" y1="25.6" y2="0" class="st0"/><line x1="102.5" x2="153.9" y1="153.8" y2="153.8" class="st0"/><line x1="166.7" x2="153.9" y1="141" y2="153.8" class="st0"/><line x1="166.7" x2="153.9" y1="166.5" y2="153.8" class="st0"/><line x1="102.5" x2="153.9" y1="51.2" y2="51.2" class="st0"/><line x1="167.1" x2="153.9" y1="38" y2="51.2" class="st0"/><line x1="166.7" x2="153.9" y1="64" y2="51.2" class="st0"/><polyline points="259.2 412.9 307.5 461.2 259.2 509.5" class="st0"/><line x1="217.9" x2="253.3" y1="448.4" y2="412.9" class="st0"/><line x1="253.3" x2="217.9" y1="509.5" y2="474.1" class="st0"/><path d="M256.2,516.7c-2.3,0-4.2-1.9-4.2-4.2s1.9-4.2,4.2-4.2s4.2,1.9,4.2,4.2S258.6,516.7,256.2,516.7z" class="st0"/><path d="M256.2,414.2c-2.3,0-4.2-1.9-4.2-4.2c0-2.3,1.9-4.2,4.2-4.2s4.2,1.9,4.2,4.2	C260.4,412.3,258.6,414.2,256.2,414.2z" class="st0"/><path d="M252.1,615c0-2.3,1.9-4.2,4.2-4.2s4.2,1.9,4.2,4.2" class="st0"/><line x1="217.9" x2="253.3" y1="345.9" y2="310.5" class="st0"/><line x1="253.3" x2="217.9" y1="407" y2="371.6" class="st0"/><polyline points="259.2 310.5 307.5 358.7 259.2 407" class="st0"/><polyline points="259.2 208 307.5 256.2 259.2 304.5" class="st0"/><line x1="217.9" x2="253.3" y1="243.4" y2="208" class="st0"/><line x1="253.3" x2="217.9" y1="304.5" y2="269.1" class="st0"/><path d="M256.2,311.7c-2.3,0-4.2-1.9-4.2-4.2s1.9-4.2,4.2-4.2s4.2,1.9,4.2,4.2S258.6,311.7,256.2,311.7z" class="st0"/><line x1="217.6" x2="253.3" y1="551.1" y2="515.4" class="st0"/><line x1="253.3" x2="217.6" y1="612" y2="576.4" class="st0"/><polyline points="259.2 515.4 307.5 563.7 259.2 612" class="st0"/><line x1="205" x2="230.3" y1="615" y2="589.7" class="st0"/><line x1="205" x2="256.4" y1="563.7" y2="563.7" class="st0"/><line x1="269.1" x2="256.4" y1="551" y2="563.7" class="st0"/><line x1="269.1" x2="256.4" y1="576.5" y2="563.7" class="st0"/><line x1="230.6" x2="205.1" y1="486.9" y2="512.5" class="st0"/><line x1="230.6" x2="205.1" y1="538" y2="512.5" class="st0"/><line x1="230.6" x2="205.1" y1="384.4" y2="410" class="st0"/><line x1="230.6" x2="205.1" y1="435.6" y2="410" class="st0"/><line x1="230.6" x2="205.1" y1="281.9" y2="307.5" class="st0"/><line x1="230.6" x2="205.1" y1="333" y2="307.5" class="st0"/><line x1="205" x2="256.4" y1="461.2" y2="461.2" class="st0"/><line x1="269.1" x2="256.4" y1="448.4" y2="461.2" class="st0"/><line x1="269.1" x2="256.4" y1="474" y2="461.2" class="st0"/><line x1="260.4" x2="307.6" y1="512.5" y2="512.5" class="st0"/><line x1="260.4" x2="307.6" y1="615" y2="615" class="st0"/><line x1="260.4" x2="307.6" y1="409.9" y2="409.9" class="st0"/><line x1="260.4" x2="307.6" y1="307.4" y2="307.4" class="st0"/><line x1="260.4" x2="307.6" y1="205" y2="205" class="st0"/><line x1="260.4" x2="307.6" y1="102.5" y2="102.5" class="st0"/><line x1="205" x2="256.4" y1="358.7" y2="358.7" class="st0"/><line x1="269.1" x2="256.4" y1="346" y2="358.7" class="st0"/><line x1="269.1" x2="256.4" y1="371.5" y2="358.7" class="st0"/><line x1="205" x2="256.4" y1="256.2" y2="256.2" class="st0"/><line x1="269.1" x2="256.4" y1="243.5" y2="256.2" class="st0"/><line x1="269.1" x2="256.4" y1="269" y2="256.2" class="st0"/><path d="M256.2,209.2c-2.3,0-4.2-1.9-4.2-4.2c0-2.3,1.9-4.2,4.2-4.2s4.2,1.9,4.2,4.2	C260.4,207.3,258.6,209.2,256.2,209.2z" class="st0"/><line x1="217.9" x2="253.3" y1="140.9" y2="105.5" class="st0"/><line x1="253.3" x2="217.9" y1="202" y2="166.6" class="st0"/><polyline points="259.2 105.5 307.5 153.8 259.2 202" class="st0"/><polyline points="259.2 3 307.5 51.2 259.2 99.5" class="st0"/><line x1="217.8" x2="253.3" y1="38.5" y2="3" class="st0"/><line x1="253.3" x2="217.9" y1="99.5" y2="64.1" class="st0"/><path d="M256.2,106.7c-2.3,0-4.2-1.9-4.2-4.2c0-2.3,1.9-4.2,4.2-4.2s4.2,1.9,4.2,4.2	C260.4,104.8,258.6,106.7,256.2,106.7z" class="st0"/><path d="M260.4,0c0,2.3-1.9,4.2-4.2,4.2s-4.2-1.9-4.2-4.2" class="st0"/><line x1="230.6" x2="205.1" y1="179.4" y2="205" class="st0"/><line x1="230.6" x2="205.1" y1="230.6" y2="205" class="st0"/><line x1="230.6" x2="205.1" y1="76.9" y2="102.5" class="st0"/><line x1="230.6" x2="205.1" y1="128.1" y2="102.5" class="st0"/><line x1="230.6" x2="205.1" y1="25.6" y2="0" class="st0"/><line x1="205" x2="256.4" y1="153.8" y2="153.8" class="st0"/><line x1="269.1" x2="256.4" y1="141" y2="153.8" class="st0"/><line x1="269.1" x2="256.4" y1="166.5" y2="153.8" class="st0"/><line x1="205" x2="256.4" y1="51.2" y2="51.2" class="st0"/><line x1="269.6" x2="256.4" y1="38" y2="51.2" class="st0"/><line x1="269.1" x2="256.4" y1="64" y2="51.2" class="st0"/><polyline points="361.7 412.9 410 461.2 361.7 509.5" class="st0"/><line x1="320.4" x2="355.8" y1="448.4" y2="412.9" class="st0"/><line x1="355.8" x2="320.4" y1="509.5" y2="474.1" class="st0"/><path d="M358.8,516.7c-2.3,0-4.2-1.9-4.2-4.2s1.9-4.2,4.2-4.2s4.2,1.9,4.2,4.2S361.1,516.7,358.8,516.7z" class="st0"/><path d="M358.8,414.2c-2.3,0-4.2-1.9-4.2-4.2c0-2.3,1.9-4.2,4.2-4.2s4.2,1.9,4.2,4.2C363,412.3,361.1,414.2,358.8,414.2	z" class="st0"/><path d="M354.6,615c0-2.3,1.9-4.2,4.2-4.2s4.2,1.9,4.2,4.2" class="st0"/><line x1="320.4" x2="355.8" y1="345.9" y2="310.5" class="st0"/><line x1="355.8" x2="320.4" y1="407" y2="371.6" class="st0"/><polyline points="361.7 310.5 410 358.7 361.7 407" class="st0"/><polyline points="361.7 208 410 256.2 361.7 304.5" class="st0"/><line x1="320.4" x2="355.8" y1="243.4" y2="208" class="st0"/><line x1="355.8" x2="320.4" y1="304.5" y2="269.1" class="st0"/><path d="M358.8,311.7c-2.3,0-4.2-1.9-4.2-4.2s1.9-4.2,4.2-4.2s4.2,1.9,4.2,4.2S361.1,311.7,358.8,311.7z" class="st0"/><line x1="320.2" x2="355.8" y1="551.1" y2="515.4" class="st0"/><line x1="355.8" x2="320.2" y1="612" y2="576.4" class="st0"/><polyline points="361.7 515.4 410 563.7 361.7 612" class="st0"/><line x1="307.5" x2="332.8" y1="615" y2="589.7" class="st0"/><line x1="307.5" x2="358.9" y1="563.7" y2="563.7" class="st0"/><line x1="371.7" x2="358.9" y1="551" y2="563.7" class="st0"/><line x1="371.7" x2="358.9" y1="576.5" y2="563.7" class="st0"/><line x1="333.2" x2="307.6" y1="486.9" y2="512.5" class="st0"/><line x1="333.2" x2="307.6" y1="538" y2="512.5" class="st0"/><line x1="333.2" x2="307.6" y1="384.4" y2="410" class="st0"/><line x1="333.2" x2="307.6" y1="435.6" y2="410" class="st0"/><line x1="333.2" x2="307.6" y1="281.9" y2="307.5" class="st0"/><line x1="333.2" x2="307.6" y1="333" y2="307.5" class="st0"/><line x1="307.5" x2="358.9" y1="461.2" y2="461.2" class="st0"/><line x1="371.7" x2="358.9" y1="448.4" y2="461.2" class="st0"/><line x1="371.7" x2="358.9" y1="474" y2="461.2" class="st0"/><line x1="363" x2="410.1" y1="512.5" y2="512.5" class="st0"/><line x1="363" x2="410.1" y1="615" y2="615" class="st0"/><line x1="363" x2="410.1" y1="409.9" y2="409.9" class="st0"/><line x1="363" x2="410.1" y1="307.4" y2="307.4" class="st0"/><line x1="363" x2="410.1" y1="205" y2="205" class="st0"/><line x1="363" x2="410.1" y1="102.5" y2="102.5" class="st0"/><line x1="307.5" x2="358.9" y1="358.7" y2="358.7" class="st0"/><line x1="371.7" x2="358.9" y1="346" y2="358.7" class="st0"/><line x1="371.7" x2="358.9" y1="371.5" y2="358.7" class="st0"/><line x1="307.5" x2="358.9" y1="256.2" y2="256.2" class="st0"/><line x1="371.7" x2="358.9" y1="243.5" y2="256.2" class="st0"/><line x1="371.7" x2="358.9" y1="269" y2="256.2" class="st0"/><path d="M358.8,209.2c-2.3,0-4.2-1.9-4.2-4.2c0-2.3,1.9-4.2,4.2-4.2s4.2,1.9,4.2,4.2C363,207.3,361.1,209.2,358.8,209.2	z" class="st0"/><line x1="320.4" x2="355.8" y1="140.9" y2="105.5" class="st0"/><line x1="355.8" x2="320.4" y1="202" y2="166.6" class="st0"/><polyline points="361.7 105.5 410 153.8 361.7 202" class="st0"/><polyline points="361.7 3 410 51.2 361.7 99.5" class="st0"/><line x1="320.3" x2="355.8" y1="38.5" y2="3" class="st0"/><line x1="355.8" x2="320.4" y1="99.5" y2="64.1" class="st0"/><path d="M358.8,106.7c-2.3,0-4.2-1.9-4.2-4.2c0-2.3,1.9-4.2,4.2-4.2s4.2,1.9,4.2,4.2C363,104.8,361.1,106.7,358.8,106.7	z" class="st0"/><path d="M363,0c0,2.3-1.9,4.2-4.2,4.2s-4.2-1.9-4.2-4.2" class="st0"/><line x1="333.2" x2="307.6" y1="179.4" y2="205" class="st0"/><line x1="333.2" x2="307.6" y1="230.6" y2="205" class="st0"/><line x1="333.2" x2="307.6" y1="76.9" y2="102.5" class="st0"/><line x1="333.2" x2="307.6" y1="128.1" y2="102.5" class="st0"/><line x1="333.2" x2="307.6" y1="25.6" y2="0" class="st0"/><line x1="307.5" x2="358.9" y1="153.8" y2="153.8" class="st0"/><line x1="371.7" x2="358.9" y1="141" y2="153.8" class="st0"/><line x1="371.7" x2="358.9" y1="166.5" y2="153.8" class="st0"/><line x1="307.5" x2="358.9" y1="51.2" y2="51.2" class="st0"/><line x1="372.1" x2="358.9" y1="38" y2="51.2" class="st0"/><line x1="371.7" x2="358.9" y1="64" y2="51.2" class="st0"/><polyline points="464.2 412.9 512.5 461.2 464.2 509.5" class="st0"/><line x1="422.9" x2="458.3" y1="448.4" y2="412.9" class="st0"/><line x1="458.3" x2="422.9" y1="509.5" y2="474.1" class="st0"/><path d="M461.3,516.7c-2.3,0-4.2-1.9-4.2-4.2s1.9-4.2,4.2-4.2s4.2,1.9,4.2,4.2S463.6,516.7,461.3,516.7z" class="st0"/><path d="M461.3,414.2c-2.3,0-4.2-1.9-4.2-4.2c0-2.3,1.9-4.2,4.2-4.2s4.2,1.9,4.2,4.2	C465.5,412.3,463.6,414.2,461.3,414.2z" class="st0"/><path d="M457.1,615c0-2.3,1.9-4.2,4.2-4.2s4.2,1.9,4.2,4.2" class="st0"/><line x1="422.9" x2="458.3" y1="345.9" y2="310.5" class="st0"/><line x1="458.3" x2="422.9" y1="407" y2="371.6" class="st0"/><polyline points="464.2 310.5 512.5 358.7 464.2 407" class="st0"/><polyline points="464.2 208 512.5 256.2 464.2 304.5" class="st0"/><line x1="422.9" x2="458.3" y1="243.4" y2="208" class="st0"/><line x1="458.3" x2="422.9" y1="304.5" y2="269.1" class="st0"/><path d="M461.3,311.7c-2.3,0-4.2-1.9-4.2-4.2s1.9-4.2,4.2-4.2s4.2,1.9,4.2,4.2S463.6,311.7,461.3,311.7z" class="st0"/><line x1="422.6" x2="458.3" y1="551.1" y2="515.4" class="st0"/><line x1="458.3" x2="422.6" y1="612" y2="576.4" class="st0"/><polyline points="464.2 515.4 512.5 563.7 464.2 612" class="st0"/><line x1="410" x2="435.3" y1="615" y2="589.7" class="st0"/><line x1="410" x2="461.4" y1="563.7" y2="563.7" class="st0"/><line x1="474.1" x2="461.4" y1="551" y2="563.7" class="st0"/><line x1="474.1" x2="461.4" y1="576.5" y2="563.7" class="st0"/><line x1="435.6" x2="410.1" y1="486.9" y2="512.5" class="st0"/><line x1="435.6" x2="410.1" y1="538" y2="512.5" class="st0"/><line x1="435.6" x2="410.1" y1="384.4" y2="410" class="st0"/><line x1="435.6" x2="410.1" y1="435.6" y2="410" class="st0"/><line x1="435.6" x2="410.1" y1="281.9" y2="307.5" class="st0"/><line x1="435.6" x2="410.1" y1="333" y2="307.5" class="st0"/><line x1="410" x2="461.4" y1="461.2" y2="461.2" class="st0"/><line x1="474.1" x2="461.4" y1="448.4" y2="461.2" class="st0"/><line x1="474.1" x2="461.4" y1="474" y2="461.2" class="st0"/><line x1="465.5" x2="512.6" y1="512.5" y2="512.5" class="st0"/><line x1="465.5" x2="512.6" y1="615" y2="615" class="st0"/><line x1="465.5" x2="512.6" y1="409.9" y2="409.9" class="st0"/><line x1="465.5" x2="512.6" y1="307.4" y2="307.4" class="st0"/><line x1="465.5" x2="512.6" y1="205" y2="205" class="st0"/><line x1="465.5" x2="512.6" y1="102.5" y2="102.5" class="st0"/><line x1="410" x2="461.4" y1="358.7" y2="358.7" class="st0"/><line x1="474.1" x2="461.4" y1="346" y2="358.7" class="st0"/><line x1="474.1" x2="461.4" y1="371.5" y2="358.7" class="st0"/><line x1="410" x2="461.4" y1="256.2" y2="256.2" class="st0"/><line x1="474.1" x2="461.4" y1="243.5" y2="256.2" class="st0"/><line x1="474.1" x2="461.4" y1="269" y2="256.2" class="st0"/><path d="M461.3,209.2c-2.3,0-4.2-1.9-4.2-4.2c0-2.3,1.9-4.2,4.2-4.2s4.2,1.9,4.2,4.2	C465.5,207.3,463.6,209.2,461.3,209.2z" class="st0"/><line x1="422.9" x2="458.3" y1="140.9" y2="105.5" class="st0"/><line x1="458.3" x2="422.9" y1="202" y2="166.6" class="st0"/><polyline points="464.2 105.5 512.5 153.8 464.2 202" class="st0"/><polyline points="464.2 3 512.5 51.2 464.2 99.5" class="st0"/><line x1="422.8" x2="458.3" y1="38.5" y2="3" class="st0"/><line x1="458.3" x2="422.9" y1="99.5" y2="64.1" class="st0"/><path d="M461.3,106.7c-2.3,0-4.2-1.9-4.2-4.2c0-2.3,1.9-4.2,4.2-4.2s4.2,1.9,4.2,4.2	C465.5,104.8,463.6,106.7,461.3,106.7z" class="st0"/><path d="M465.5,0c0,2.3-1.9,4.2-4.2,4.2s-4.2-1.9-4.2-4.2" class="st0"/><line x1="435.6" x2="410.1" y1="179.4" y2="205" class="st0"/><line x1="435.6" x2="410.1" y1="230.6" y2="205" class="st0"/><line x1="435.6" x2="410.1" y1="76.9" y2="102.5" class="st0"/><line x1="435.6" x2="410.1" y1="128.1" y2="102.5" class="st0"/><line x1="435.6" x2="410.1" y1="25.6" y2="0" class="st0"/><line x1="410" x2="461.4" y1="153.8" y2="153.8" class="st0"/><line x1="474.1" x2="461.4" y1="141" y2="153.8" class="st0"/><line x1="474.1" x2="461.4" y1="166.5" y2="153.8" class="st0"/><line x1="410" x2="461.4" y1="51.2" y2="51.2" class="st0"/><polyline points="1284.3 412.9 1332.6 461.2 1284.3 509.5" class="st0"/><line x1="1243" x2="1278.4" y1="448.4" y2="412.9" class="st0"/><line x1="1278.4" x2="1243" y1="509.5" y2="474.1" class="st0"/><path d="M1281.4,516.7c-2.3,0-4.2-1.9-4.2-4.2s1.9-4.2,4.2-4.2c2.3,0,4.2,1.9,4.2,4.2S1283.7,516.7,1281.4,516.7z" class="st0"/><path d="M1281.4,414.2c-2.3,0-4.2-1.9-4.2-4.2c0-2.3,1.9-4.2,4.2-4.2c2.3,0,4.2,1.9,4.2,4.2	C1285.6,412.3,1283.7,414.2,1281.4,414.2z" class="st0"/><path d="M1277.2,615c0-2.3,1.9-4.2,4.2-4.2c2.3,0,4.2,1.9,4.2,4.2" class="st0"/><line x1="1243" x2="1278.4" y1="345.9" y2="310.5" class="st0"/><line x1="1278.4" x2="1243" y1="407" y2="371.6" class="st0"/><polyline points="1284.3 310.5 1332.6 358.7 1284.3 407" class="st0"/><polyline points="1284.3 208 1332.6 256.2 1284.3 304.5" class="st0"/><line x1="1243" x2="1278.4" y1="243.4" y2="208" class="st0"/><line x1="1278.4" x2="1243" y1="304.5" y2="269.1" class="st0"/><path d="M1281.4,311.7c-2.3,0-4.2-1.9-4.2-4.2s1.9-4.2,4.2-4.2c2.3,0,4.2,1.9,4.2,4.2S1283.7,311.7,1281.4,311.7z" class="st0"/><line x1="1242.8" x2="1278.4" y1="551.1" y2="515.4" class="st0"/><line x1="1278.4" x2="1242.8" y1="612" y2="576.4" class="st0"/><polyline points="1284.3 515.4 1332.6 563.7 1284.3 612" class="st0"/><line x1="1230.1" x2="1255.4" y1="615" y2="589.7" class="st0"/><line x1="1230.1" x2="1281.5" y1="563.7" y2="563.7" class="st0"/><line x1="1294.3" x2="1281.5" y1="551" y2="563.7" class="st0"/><line x1="1294.3" x2="1281.5" y1="576.5" y2="563.7" class="st0"/><line x1="1255.8" x2="1230.2" y1="486.9" y2="512.5" class="st0"/><line x1="1255.8" x2="1230.2" y1="538" y2="512.5" class="st0"/><line x1="1255.8" x2="1230.2" y1="384.4" y2="410" class="st0"/><line x1="1255.8" x2="1230.2" y1="435.6" y2="410" class="st0"/><line x1="1255.8" x2="1230.2" y1="281.9" y2="307.5" class="st0"/><line x1="1255.8" x2="1230.2" y1="333" y2="307.5" class="st0"/><line x1="1230.1" x2="1281.5" y1="461.2" y2="461.2" class="st0"/><line x1="1294.3" x2="1281.5" y1="448.4" y2="461.2" class="st0"/><line x1="1294.3" x2="1281.5" y1="474" y2="461.2" class="st0"/><line x1="1285.6" x2="1332.7" y1="512.5" y2="512.5" class="st0"/><line x1="1285.6" x2="1332.7" y1="615" y2="615" class="st0"/><line x1="1285.6" x2="1332.7" y1="409.9" y2="409.9" class="st0"/><line x1="1285.6" x2="1332.7" y1="307.4" y2="307.4" class="st0"/><line x1="1285.6" x2="1332.7" y1="205" y2="205" class="st0"/><line x1="1285.6" x2="1332.7" y1="102.5" y2="102.5" class="st0"/><line x1="1230.1" x2="1281.5" y1="358.7" y2="358.7" class="st0"/><line x1="1294.3" x2="1281.5" y1="346" y2="358.7" class="st0"/><line x1="1294.3" x2="1281.5" y1="371.5" y2="358.7" class="st0"/><line x1="1230.1" x2="1281.5" y1="256.2" y2="256.2" class="st0"/><line x1="1294.3" x2="1281.5" y1="243.5" y2="256.2" class="st0"/><line x1="1294.3" x2="1281.5" y1="269" y2="256.2" class="st0"/><path d="M1281.4,209.2c-2.3,0-4.2-1.9-4.2-4.2c0-2.3,1.9-4.2,4.2-4.2c2.3,0,4.2,1.9,4.2,4.2	C1285.6,207.3,1283.7,209.2,1281.4,209.2z" class="st0"/><line x1="1243" x2="1278.4" y1="140.9" y2="105.5" class="st0"/><line x1="1278.4" x2="1243" y1="202" y2="166.6" class="st0"/><polyline points="1284.3 105.5 1332.6 153.8 1284.3 202" class="st0"/><polyline points="1284.3 3 1332.6 51.2 1284.3 99.5" class="st0"/><line x1="1242.9" x2="1278.4" y1="38.5" y2="3" class="st0"/><line x1="1278.4" x2="1243" y1="99.5" y2="64.1" class="st0"/><path d="M1281.4,106.7c-2.3,0-4.2-1.9-4.2-4.2c0-2.3,1.9-4.2,4.2-4.2c2.3,0,4.2,1.9,4.2,4.2	C1285.6,104.8,1283.7,106.7,1281.4,106.7z" class="st0"/><path d="M1285.6,0c0,2.3-1.9,4.2-4.2,4.2c-2.3,0-4.2-1.9-4.2-4.2" class="st0"/><line x1="1255.8" x2="1230.2" y1="179.4" y2="205" class="st0"/><line x1="1255.8" x2="1230.2" y1="230.6" y2="205" class="st0"/><line x1="1255.8" x2="1230.2" y1="76.9" y2="102.5" class="st0"/><line x1="1255.8" x2="1230.2" y1="128.1" y2="102.5" class="st0"/><line x1="1255.8" x2="1230.2" y1="25.6" y2="0" class="st0"/><line x1="1230.1" x2="1281.5" y1="153.8" y2="153.8" class="st0"/><line x1="1294.3" x2="1281.5" y1="141" y2="153.8" class="st0"/><line x1="1294.3" x2="1281.5" y1="166.5" y2="153.8" class="st0"/><line x1="1230.1" x2="1281.5" y1="51.2" y2="51.2" class="st0"/><line x1="1294.7" x2="1281.5" y1="38" y2="51.2" class="st0"/><line x1="1294.3" x2="1281.5" y1="64" y2="51.2" class="st0"/><polyline points="1386.9 412.9 1435.1 461.2 1386.9 509.5" class="st0"/><line x1="1345.5" x2="1380.9" y1="448.4" y2="412.9" class="st0"/><line x1="1380.9" x2="1345.5" y1="509.5" y2="474.1" class="st0"/><path d="M1383.9,516.7c-2.3,0-4.2-1.9-4.2-4.2s1.9-4.2,4.2-4.2s4.2,1.9,4.2,4.2S1386.2,516.7,1383.9,516.7z" class="st0"/><path d="M1383.9,414.2c-2.3,0-4.2-1.9-4.2-4.2c0-2.3,1.9-4.2,4.2-4.2s4.2,1.9,4.2,4.2	C1388.1,412.3,1386.2,414.2,1383.9,414.2z" class="st0"/><path d="M1379.7,615c0-2.3,1.9-4.2,4.2-4.2s4.2,1.9,4.2,4.2" class="st0"/><line x1="1345.5" x2="1380.9" y1="345.9" y2="310.5" class="st0"/><line x1="1380.9" x2="1345.5" y1="407" y2="371.6" class="st0"/><polyline points="1386.8 310.5 1435.1 358.7 1386.9 407" class="st0"/><polyline points="1386.9 208 1435.1 256.2 1386.9 304.5" class="st0"/><line x1="1345.5" x2="1380.9" y1="243.4" y2="208" class="st0"/><line x1="1380.9" x2="1345.5" y1="304.5" y2="269.1" class="st0"/><path d="M1383.9,311.7c-2.3,0-4.2-1.9-4.2-4.2s1.9-4.2,4.2-4.2s4.2,1.9,4.2,4.2S1386.2,311.7,1383.9,311.7z" class="st0"/><line x1="1345.3" x2="1380.9" y1="551.1" y2="515.4" class="st0"/><line x1="1380.9" x2="1345.3" y1="612" y2="576.4" class="st0"/><polyline points="1386.8 515.4 1435.1 563.7 1386.9 612" class="st0"/><line x1="1332.7" x2="1357.9" y1="615" y2="589.7" class="st0"/><line x1="1332.7" x2="1384" y1="563.7" y2="563.7" class="st0"/><line x1="1396.8" x2="1384" y1="551" y2="563.7" class="st0"/><line x1="1396.8" x2="1384" y1="576.5" y2="563.7" class="st0"/><line x1="1358.3" x2="1332.7" y1="486.9" y2="512.5" class="st0"/><line x1="1358.3" x2="1332.7" y1="538" y2="512.5" class="st0"/><line x1="1358.3" x2="1332.7" y1="384.4" y2="410" class="st0"/><line x1="1358.3" x2="1332.7" y1="435.6" y2="410" class="st0"/><line x1="1358.3" x2="1332.7" y1="281.9" y2="307.5" class="st0"/><line x1="1358.3" x2="1332.7" y1="333" y2="307.5" class="st0"/><line x1="1332.7" x2="1384" y1="461.2" y2="461.2" class="st0"/><line x1="1396.8" x2="1384" y1="448.4" y2="461.2" class="st0"/><line x1="1396.8" x2="1384" y1="474" y2="461.2" class="st0"/><line x1="1388.1" x2="1435.2" y1="512.5" y2="512.5" class="st0"/><line x1="1388.1" x2="1435.2" y1="615" y2="615" class="st0"/><line x1="1388.1" x2="1435.2" y1="409.9" y2="409.9" class="st0"/><line x1="1388.1" x2="1435.2" y1="307.4" y2="307.4" class="st0"/><line x1="1388.1" x2="1435.2" y1="205" y2="205" class="st0"/><line x1="1388.1" x2="1435.2" y1="102.5" y2="102.5" class="st0"/><line x1="1332.7" x2="1384" y1="358.7" y2="358.7" class="st0"/><line x1="1396.8" x2="1384" y1="346" y2="358.7" class="st0"/><line x1="1396.8" x2="1384" y1="371.5" y2="358.7" class="st0"/><line x1="1332.7" x2="1384" y1="256.2" y2="256.2" class="st0"/><line x1="1396.8" x2="1384" y1="243.5" y2="256.2" class="st0"/><line x1="1396.8" x2="1384" y1="269" y2="256.2" class="st0"/><path d="M1383.9,209.2c-2.3,0-4.2-1.9-4.2-4.2c0-2.3,1.9-4.2,4.2-4.2s4.2,1.9,4.2,4.2	C1388.1,207.3,1386.2,209.2,1383.9,209.2z" class="st0"/><line x1="1345.5" x2="1380.9" y1="140.9" y2="105.5" class="st0"/><line x1="1380.9" x2="1345.5" y1="202" y2="166.6" class="st0"/><polyline points="1386.8 105.5 1435.1 153.8 1386.9 202" class="st0"/><polyline points="1386.9 3 1435.1 51.2 1386.9 99.5" class="st0"/><line x1="1345.4" x2="1380.9" y1="38.5" y2="3" class="st0"/><line x1="1380.9" x2="1345.5" y1="99.5" y2="64.1" class="st0"/><path d="M1383.9,106.7c-2.3,0-4.2-1.9-4.2-4.2c0-2.3,1.9-4.2,4.2-4.2s4.2,1.9,4.2,4.2	C1388.1,104.8,1386.2,106.7,1383.9,106.7z" class="st0"/><path d="M1388.1,0c0,2.3-1.9,4.2-4.2,4.2s-4.2-1.9-4.2-4.2" class="st0"/><line x1="1358.3" x2="1332.7" y1="179.4" y2="205" class="st0"/><line x1="1358.3" x2="1332.7" y1="230.6" y2="205" class="st0"/><line x1="1358.3" x2="1332.7" y1="76.9" y2="102.5" class="st0"/><line x1="1358.3" x2="1332.7" y1="128.1" y2="102.5" class="st0"/><line x1="1358.3" x2="1332.7" y1="25.6" y2="0" class="st0"/><line x1="1332.7" x2="1384" y1="153.8" y2="153.8" class="st0"/><line x1="1396.8" x2="1384" y1="141" y2="153.8" class="st0"/><line x1="1396.8" x2="1384" y1="166.5" y2="153.8" class="st0"/><line x1="1332.7" x2="1384" y1="51.2" y2="51.2" class="st0"/><line x1="1397.2" x2="1384" y1="38" y2="51.2" class="st0"/><line x1="1396.8" x2="1384" y1="64" y2="51.2" class="st0"/><line x1="474.6" x2="461.4" y1="38" y2="51.2" class="st0"/><line x1="474.1" x2="461.4" y1="64" y2="51.2" class="st0"/><polyline points="566.7 412.9 615 461.2 566.7 509.5" class="st0"/><line x1="525.4" x2="560.8" y1="448.4" y2="412.9" class="st0"/><line x1="560.8" x2="525.4" y1="509.5" y2="474.1" class="st0"/><path d="M563.8,516.7c-2.3,0-4.2-1.9-4.2-4.2s1.9-4.2,4.2-4.2c2.3,0,4.2,1.9,4.2,4.2S566.1,516.7,563.8,516.7z" class="st0"/><path d="M563.8,414.2c-2.3,0-4.2-1.9-4.2-4.2c0-2.3,1.9-4.2,4.2-4.2c2.3,0,4.2,1.9,4.2,4.2	C568,412.3,566.1,414.2,563.8,414.2z" class="st0"/><path d="M559.6,615c0-2.3,1.9-4.2,4.2-4.2c2.3,0,4.2,1.9,4.2,4.2" class="st0"/><line x1="525.4" x2="560.8" y1="345.9" y2="310.5" class="st0"/><line x1="560.8" x2="525.4" y1="407" y2="371.6" class="st0"/><polyline points="566.7 310.5 615 358.7 566.7 407" class="st0"/><polyline points="566.7 208 615 256.2 566.7 304.5" class="st0"/><line x1="525.4" x2="560.8" y1="243.4" y2="208" class="st0"/><line x1="560.8" x2="525.4" y1="304.5" y2="269.1" class="st0"/><path d="M563.8,311.7c-2.3,0-4.2-1.9-4.2-4.2s1.9-4.2,4.2-4.2c2.3,0,4.2,1.9,4.2,4.2S566.1,311.7,563.8,311.7z" class="st0"/><line x1="525.2" x2="560.8" y1="551.1" y2="515.4" class="st0"/><line x1="560.8" x2="525.2" y1="612" y2="576.4" class="st0"/><polyline points="566.7 515.4 615 563.7 566.7 612" class="st0"/><line x1="512.5" x2="537.8" y1="615" y2="589.7" class="st0"/><line x1="512.5" x2="563.9" y1="563.7" y2="563.7" class="st0"/><line x1="576.7" x2="563.9" y1="551" y2="563.7" class="st0"/><line x1="576.7" x2="563.9" y1="576.5" y2="563.7" class="st0"/><line x1="538.2" x2="512.6" y1="486.9" y2="512.5" class="st0"/><line x1="538.2" x2="512.6" y1="538" y2="512.5" class="st0"/><line x1="538.2" x2="512.6" y1="384.4" y2="410" class="st0"/><line x1="538.2" x2="512.6" y1="435.6" y2="410" class="st0"/><line x1="538.2" x2="512.6" y1="281.9" y2="307.5" class="st0"/><line x1="538.2" x2="512.6" y1="333" y2="307.5" class="st0"/><line x1="512.5" x2="563.9" y1="461.2" y2="461.2" class="st0"/><line x1="576.7" x2="563.9" y1="448.4" y2="461.2" class="st0"/><line x1="576.7" x2="563.9" y1="474" y2="461.2" class="st0"/><line x1="568" x2="615.1" y1="512.5" y2="512.5" class="st0"/><line x1="568" x2="615.1" y1="615" y2="615" class="st0"/><line x1="568" x2="615.1" y1="409.9" y2="409.9" class="st0"/><line x1="568" x2="615.1" y1="307.4" y2="307.4" class="st0"/><line x1="568" x2="615.1" y1="205" y2="205" class="st0"/><line x1="568" x2="615.1" y1="102.5" y2="102.5" class="st0"/><line x1="512.5" x2="563.9" y1="358.7" y2="358.7" class="st0"/><line x1="576.7" x2="563.9" y1="346" y2="358.7" class="st0"/><line x1="576.7" x2="563.9" y1="371.5" y2="358.7" class="st0"/><line x1="512.5" x2="563.9" y1="256.2" y2="256.2" class="st0"/><line x1="576.7" x2="563.9" y1="243.5" y2="256.2" class="st0"/><line x1="576.7" x2="563.9" y1="269" y2="256.2" class="st0"/><path d="M563.8,209.2c-2.3,0-4.2-1.9-4.2-4.2c0-2.3,1.9-4.2,4.2-4.2c2.3,0,4.2,1.9,4.2,4.2	C568,207.3,566.1,209.2,563.8,209.2z" class="st0"/><line x1="525.4" x2="560.8" y1="140.9" y2="105.5" class="st0"/><line x1="560.8" x2="525.4" y1="202" y2="166.6" class="st0"/><polyline points="566.7 105.5 615 153.8 566.7 202" class="st0"/><polyline points="566.7 3 615 51.2 566.7 99.5" class="st0"/><line x1="525.3" x2="560.8" y1="38.5" y2="3" class="st0"/><line x1="560.8" x2="525.4" y1="99.5" y2="64.1" class="st0"/><path d="M563.8,106.7c-2.3,0-4.2-1.9-4.2-4.2c0-2.3,1.9-4.2,4.2-4.2c2.3,0,4.2,1.9,4.2,4.2	C568,104.8,566.1,106.7,563.8,106.7z" class="st0"/><path d="M568,0c0,2.3-1.9,4.2-4.2,4.2c-2.3,0-4.2-1.9-4.2-4.2" class="st0"/><line x1="538.2" x2="512.6" y1="179.4" y2="205" class="st0"/><line x1="538.2" x2="512.6" y1="230.6" y2="205" class="st0"/><line x1="538.2" x2="512.6" y1="76.9" y2="102.5" class="st0"/><line x1="538.2" x2="512.6" y1="128.1" y2="102.5" class="st0"/><line x1="538.2" x2="512.6" y1="25.6" y2="0" class="st0"/><line x1="512.5" x2="563.9" y1="153.8" y2="153.8" class="st0"/><line x1="576.7" x2="563.9" y1="141" y2="153.8" class="st0"/><line x1="576.7" x2="563.9" y1="166.5" y2="153.8" class="st0"/><line x1="512.5" x2="563.9" y1="51.2" y2="51.2" class="st0"/><line x1="577.1" x2="563.9" y1="38" y2="51.2" class="st0"/><line x1="576.7" x2="563.9" y1="64" y2="51.2" class="st0"/><polyline points="669.3 412.9 717.5 461.2 669.3 509.5" class="st0"/><line x1="627.9" x2="663.3" y1="448.4" y2="412.9" class="st0"/><line x1="663.3" x2="627.9" y1="509.5" y2="474.1" class="st0"/><path d="M666.3,516.7c-2.3,0-4.2-1.9-4.2-4.2s1.9-4.2,4.2-4.2c2.3,0,4.2,1.9,4.2,4.2S668.6,516.7,666.3,516.7z" class="st0"/><path d="M666.3,414.2c-2.3,0-4.2-1.9-4.2-4.2c0-2.3,1.9-4.2,4.2-4.2c2.3,0,4.2,1.9,4.2,4.2	C670.5,412.3,668.6,414.2,666.3,414.2z" class="st0"/><path d="M662.1,615c0-2.3,1.9-4.2,4.2-4.2c2.3,0,4.2,1.9,4.2,4.2" class="st0"/><line x1="627.9" x2="663.4" y1="345.9" y2="310.5" class="st0"/><line x1="663.3" x2="627.9" y1="407" y2="371.6" class="st0"/><polyline points="669.3 310.5 717.5 358.7 669.3 407" class="st0"/><polyline points="669.3 208 717.5 256.2 669.3 304.5" class="st0"/><line x1="627.9" x2="663.3" y1="243.4" y2="208" class="st0"/><line x1="663.3" x2="627.9" y1="304.5" y2="269.1" class="st0"/><path d="M666.3,311.7c-2.3,0-4.2-1.9-4.2-4.2s1.9-4.2,4.2-4.2c2.3,0,4.2,1.9,4.2,4.2S668.6,311.7,666.3,311.7z" class="st0"/><line x1="627.7" x2="663.4" y1="551.1" y2="515.4" class="st0"/><line x1="663.3" x2="627.7" y1="612" y2="576.4" class="st0"/><polyline points="669.3 515.4 717.5 563.7 669.3 612" class="st0"/><line x1="615.1" x2="640.3" y1="615" y2="589.7" class="st0"/><line x1="615.1" x2="666.4" y1="563.7" y2="563.7" class="st0"/><line x1="679.2" x2="666.4" y1="551" y2="563.7" class="st0"/><line x1="679.2" x2="666.4" y1="576.5" y2="563.7" class="st0"/><line x1="640.7" x2="615.1" y1="486.9" y2="512.5" class="st0"/><line x1="640.7" x2="615.1" y1="538" y2="512.5" class="st0"/><line x1="640.7" x2="615.1" y1="384.4" y2="410" class="st0"/><line x1="640.7" x2="615.1" y1="435.6" y2="410" class="st0"/><line x1="640.7" x2="615.1" y1="281.9" y2="307.5" class="st0"/><line x1="640.7" x2="615.1" y1="333" y2="307.5" class="st0"/><line x1="615.1" x2="666.4" y1="461.2" y2="461.2" class="st0"/><line x1="679.2" x2="666.4" y1="448.4" y2="461.2" class="st0"/><line x1="679.2" x2="666.4" y1="474" y2="461.2" class="st0"/><line x1="670.5" x2="717.7" y1="512.5" y2="512.5" class="st0"/><line x1="670.5" x2="717.7" y1="615" y2="615" class="st0"/><line x1="670.5" x2="717.7" y1="409.9" y2="409.9" class="st0"/><line x1="670.5" x2="717.7" y1="307.4" y2="307.4" class="st0"/><line x1="670.5" x2="717.7" y1="205" y2="205" class="st0"/><line x1="670.5" x2="717.7" y1="102.5" y2="102.5" class="st0"/><line x1="615.1" x2="666.4" y1="358.7" y2="358.7" class="st0"/><line x1="679.2" x2="666.4" y1="346" y2="358.7" class="st0"/><line x1="679.2" x2="666.4" y1="371.5" y2="358.7" class="st0"/><line x1="615.1" x2="666.4" y1="256.2" y2="256.2" class="st0"/><line x1="679.2" x2="666.4" y1="243.5" y2="256.2" class="st0"/><line x1="679.2" x2="666.4" y1="269" y2="256.2" class="st0"/><path d="M666.3,209.2c-2.3,0-4.2-1.9-4.2-4.2c0-2.3,1.9-4.2,4.2-4.2c2.3,0,4.2,1.9,4.2,4.2	C670.5,207.3,668.6,209.2,666.3,209.2z" class="st0"/><line x1="627.9" x2="663.4" y1="140.9" y2="105.5" class="st0"/><line x1="663.3" x2="627.9" y1="202" y2="166.6" class="st0"/><polyline points="669.3 105.5 717.5 153.8 669.3 202" class="st0"/><polyline points="669.3 3 717.5 51.2 669.3 99.5" class="st0"/><line x1="627.8" x2="663.3" y1="38.5" y2="3" class="st0"/><line x1="663.3" x2="627.9" y1="99.5" y2="64.1" class="st0"/><path d="M666.3,106.7c-2.3,0-4.2-1.9-4.2-4.2c0-2.3,1.9-4.2,4.2-4.2c2.3,0,4.2,1.9,4.2,4.2	C670.5,104.8,668.6,106.7,666.3,106.7z" class="st0"/><path d="M670.5,0c0,2.3-1.9,4.2-4.2,4.2c-2.3,0-4.2-1.9-4.2-4.2" class="st0"/><line x1="640.7" x2="615.1" y1="179.4" y2="205" class="st0"/><line x1="640.7" x2="615.1" y1="230.6" y2="205" class="st0"/><line x1="640.7" x2="615.1" y1="76.9" y2="102.5" class="st0"/><line x1="640.7" x2="615.1" y1="128.1" y2="102.5" class="st0"/><line x1="640.7" x2="615.1" y1="25.6" y2="0" class="st0"/><line x1="615.1" x2="666.4" y1="153.8" y2="153.8" class="st0"/><line x1="679.2" x2="666.4" y1="141" y2="153.8" class="st0"/><line x1="679.2" x2="666.4" y1="166.5" y2="153.8" class="st0"/><line x1="615.1" x2="666.4" y1="51.2" y2="51.2" class="st0"/><line x1="679.7" x2="666.4" y1="38" y2="51.2" class="st0"/><line x1="679.2" x2="666.4" y1="64" y2="51.2" class="st0"/><polyline points="771.8 412.9 820.1 461.2 771.8 509.5" class="st0"/><line x1="730.4" x2="765.9" y1="448.4" y2="412.9" class="st0"/><line x1="765.9" x2="730.4" y1="509.5" y2="474.1" class="st0"/><path d="M768.8,516.7c-2.3,0-4.2-1.9-4.2-4.2s1.9-4.2,4.2-4.2c2.3,0,4.2,1.9,4.2,4.2S771.1,516.7,768.8,516.7z" class="st0"/><path d="M768.8,414.2c-2.3,0-4.2-1.9-4.2-4.2c0-2.3,1.9-4.2,4.2-4.2c2.3,0,4.2,1.9,4.2,4.2	C773,412.3,771.1,414.2,768.8,414.2z" class="st0"/><path d="M764.6,615c0-2.3,1.9-4.2,4.2-4.2c2.3,0,4.2,1.9,4.2,4.2" class="st0"/><line x1="730.4" x2="765.9" y1="345.9" y2="310.5" class="st0"/><line x1="765.9" x2="730.4" y1="407" y2="371.6" class="st0"/><polyline points="771.8 310.5 820.1 358.7 771.8 407" class="st0"/><polyline points="771.8 208 820.1 256.2 771.8 304.5" class="st0"/><line x1="730.4" x2="765.9" y1="243.4" y2="208" class="st0"/><line x1="765.9" x2="730.4" y1="304.5" y2="269.1" class="st0"/><path d="M768.8,311.7c-2.3,0-4.2-1.9-4.2-4.2s1.9-4.2,4.2-4.2c2.3,0,4.2,1.9,4.2,4.2S771.1,311.7,768.8,311.7z" class="st0"/><line x1="730.2" x2="765.9" y1="551.1" y2="515.4" class="st0"/><line x1="765.9" x2="730.2" y1="612" y2="576.4" class="st0"/><polyline points="771.8 515.4 820.1 563.7 771.8 612" class="st0"/><line x1="717.6" x2="742.9" y1="615" y2="589.7" class="st0"/><line x1="717.6" x2="768.9" y1="563.7" y2="563.7" class="st0"/><line x1="781.7" x2="768.9" y1="551" y2="563.7" class="st0"/><line x1="781.7" x2="768.9" y1="576.5" y2="563.7" class="st0"/><line x1="743.2" x2="717.7" y1="486.9" y2="512.5" class="st0"/><line x1="743.2" x2="717.6" y1="538" y2="512.5" class="st0"/><line x1="743.2" x2="717.7" y1="384.4" y2="410" class="st0"/><line x1="743.2" x2="717.6" y1="435.6" y2="410" class="st0"/><line x1="743.2" x2="717.7" y1="281.9" y2="307.5" class="st0"/><line x1="743.2" x2="717.6" y1="333" y2="307.5" class="st0"/><line x1="717.6" x2="768.9" y1="461.2" y2="461.2" class="st0"/><line x1="781.7" x2="768.9" y1="448.4" y2="461.2" class="st0"/><line x1="781.7" x2="768.9" y1="474" y2="461.2" class="st0"/><line x1="773" x2="820.2" y1="512.5" y2="512.5" class="st0"/><line x1="773" x2="820.2" y1="615" y2="615" class="st0"/><line x1="773" x2="820.2" y1="409.9" y2="409.9" class="st0"/><line x1="773" x2="820.2" y1="307.4" y2="307.4" class="st0"/><line x1="773" x2="820.2" y1="205" y2="205" class="st0"/><line x1="773" x2="820.2" y1="102.5" y2="102.5" class="st0"/><line x1="717.6" x2="768.9" y1="358.7" y2="358.7" class="st0"/><line x1="781.7" x2="768.9" y1="346" y2="358.7" class="st0"/><line x1="781.7" x2="768.9" y1="371.5" y2="358.7" class="st0"/><line x1="717.6" x2="768.9" y1="256.2" y2="256.2" class="st0"/><line x1="781.7" x2="768.9" y1="243.5" y2="256.2" class="st0"/><line x1="781.7" x2="768.9" y1="269" y2="256.2" class="st0"/><path d="M768.8,209.2c-2.3,0-4.2-1.9-4.2-4.2c0-2.3,1.9-4.2,4.2-4.2c2.3,0,4.2,1.9,4.2,4.2	C773,207.3,771.1,209.2,768.8,209.2z" class="st0"/><line x1="730.4" x2="765.9" y1="140.9" y2="105.5" class="st0"/><line x1="765.9" x2="730.4" y1="202" y2="166.6" class="st0"/><polyline points="771.8 105.5 820.1 153.8 771.8 202" class="st0"/><polyline points="771.8 3 820.1 51.2 771.8 99.5" class="st0"/><line x1="730.4" x2="765.9" y1="38.5" y2="3" class="st0"/><line x1="765.9" x2="730.4" y1="99.5" y2="64.1" class="st0"/><path d="M768.8,106.7c-2.3,0-4.2-1.9-4.2-4.2c0-2.3,1.9-4.2,4.2-4.2c2.3,0,4.2,1.9,4.2,4.2	C773,104.8,771.1,106.7,768.8,106.7z" class="st0"/><path d="M773,0c0,2.3-1.9,4.2-4.2,4.2c-2.3,0-4.2-1.9-4.2-4.2" class="st0"/><line x1="743.2" x2="717.7" y1="179.4" y2="205" class="st0"/><line x1="743.2" x2="717.6" y1="230.6" y2="205" class="st0"/><line x1="743.2" x2="717.7" y1="76.9" y2="102.5" class="st0"/><line x1="743.2" x2="717.6" y1="128.1" y2="102.5" class="st0"/><line x1="743.2" x2="717.6" y1="25.6" y2="0" class="st0"/><line x1="717.6" x2="768.9" y1="153.8" y2="153.8" class="st0"/><line x1="781.7" x2="768.9" y1="141" y2="153.8" class="st0"/><line x1="781.7" x2="768.9" y1="166.5" y2="153.8" class="st0"/><line x1="717.6" x2="768.9" y1="51.2" y2="51.2" class="st0"/><line x1="782.2" x2="768.9" y1="38" y2="51.2" class="st0"/><line x1="781.7" x2="768.9" y1="64" y2="51.2" class="st0"/><polyline points="874.3 412.9 922.6 461.2 874.3 509.5" class="st0"/><line x1="832.9" x2="868.3" y1="448.4" y2="412.9" class="st0"/><line x1="868.3" x2="832.9" y1="509.5" y2="474.1" class="st0"/><path d="M871.3,516.7c-2.3,0-4.2-1.9-4.2-4.2s1.9-4.2,4.2-4.2c2.3,0,4.2,1.9,4.2,4.2S873.6,516.7,871.3,516.7z" class="st0"/><path d="M871.3,414.2c-2.3,0-4.2-1.9-4.2-4.2c0-2.3,1.9-4.2,4.2-4.2c2.3,0,4.2,1.9,4.2,4.2	C875.5,412.3,873.6,414.2,871.3,414.2z" class="st0"/><path d="M867.1,615c0-2.3,1.9-4.2,4.2-4.2c2.3,0,4.2,1.9,4.2,4.2" class="st0"/><line x1="832.9" x2="868.4" y1="345.9" y2="310.5" class="st0"/><line x1="868.3" x2="832.9" y1="407" y2="371.6" class="st0"/><polyline points="874.3 310.5 922.6 358.7 874.3 407" class="st0"/><polyline points="874.3 208 922.6 256.2 874.3 304.5" class="st0"/><line x1="832.9" x2="868.3" y1="243.4" y2="208" class="st0"/><line x1="868.3" x2="832.9" y1="304.5" y2="269.1" class="st0"/><path d="M871.3,311.7c-2.3,0-4.2-1.9-4.2-4.2s1.9-4.2,4.2-4.2c2.3,0,4.2,1.9,4.2,4.2S873.6,311.7,871.3,311.7z" class="st0"/><line x1="832.7" x2="868.4" y1="551.1" y2="515.4" class="st0"/><line x1="868.3" x2="832.7" y1="612" y2="576.4" class="st0"/><polyline points="874.3 515.4 922.6 563.7 874.3 612" class="st0"/><line x1="820.1" x2="845.3" y1="615" y2="589.7" class="st0"/><line x1="820.1" x2="871.4" y1="563.7" y2="563.7" class="st0"/><line x1="884.2" x2="871.4" y1="551" y2="563.7" class="st0"/><line x1="884.2" x2="871.4" y1="576.5" y2="563.7" class="st0"/><line x1="845.7" x2="820.1" y1="486.9" y2="512.5" class="st0"/><line x1="845.7" x2="820.1" y1="538" y2="512.5" class="st0"/><line x1="845.7" x2="820.1" y1="384.4" y2="410" class="st0"/><line x1="845.7" x2="820.1" y1="435.6" y2="410" class="st0"/><line x1="845.7" x2="820.1" y1="281.9" y2="307.5" class="st0"/><line x1="845.7" x2="820.1" y1="333" y2="307.5" class="st0"/><line x1="820.1" x2="871.4" y1="461.2" y2="461.2" class="st0"/><line x1="884.2" x2="871.4" y1="448.4" y2="461.2" class="st0"/><line x1="884.2" x2="871.4" y1="474" y2="461.2" class="st0"/><line x1="875.5" x2="922.7" y1="512.5" y2="512.5" class="st0"/><line x1="875.5" x2="922.7" y1="615" y2="615" class="st0"/><line x1="875.5" x2="922.7" y1="409.9" y2="409.9" class="st0"/><line x1="875.5" x2="922.7" y1="307.4" y2="307.4" class="st0"/><line x1="875.5" x2="922.7" y1="205" y2="205" class="st0"/><line x1="875.5" x2="922.7" y1="102.5" y2="102.5" class="st0"/><line x1="820.1" x2="871.4" y1="358.7" y2="358.7" class="st0"/><line x1="884.2" x2="871.4" y1="346" y2="358.7" class="st0"/><line x1="884.2" x2="871.4" y1="371.5" y2="358.7" class="st0"/><line x1="820.1" x2="871.4" y1="256.2" y2="256.2" class="st0"/><line x1="884.2" x2="871.4" y1="243.5" y2="256.2" class="st0"/><line x1="884.2" x2="871.4" y1="269" y2="256.2" class="st0"/><path d="M871.3,209.2c-2.3,0-4.2-1.9-4.2-4.2c0-2.3,1.9-4.2,4.2-4.2c2.3,0,4.2,1.9,4.2,4.2	C875.5,207.3,873.6,209.2,871.3,209.2z" class="st0"/><line x1="832.9" x2="868.4" y1="140.9" y2="105.5" class="st0"/><line x1="868.3" x2="832.9" y1="202" y2="166.6" class="st0"/><polyline points="874.3 105.5 922.6 153.8 874.3 202" class="st0"/><polyline points="874.3 3 922.6 51.2 874.3 99.5" class="st0"/><line x1="832.9" x2="868.3" y1="38.5" y2="3" class="st0"/><line x1="868.3" x2="832.9" y1="99.5" y2="64.1" class="st0"/><path d="M871.3,106.7c-2.3,0-4.2-1.9-4.2-4.2c0-2.3,1.9-4.2,4.2-4.2c2.3,0,4.2,1.9,4.2,4.2	C875.5,104.8,873.6,106.7,871.3,106.7z" class="st0"/><path d="M875.5,0c0,2.3-1.9,4.2-4.2,4.2c-2.3,0-4.2-1.9-4.2-4.2" class="st0"/><line x1="845.7" x2="820.1" y1="179.4" y2="205" class="st0"/><line x1="845.7" x2="820.1" y1="230.6" y2="205" class="st0"/><line x1="845.7" x2="820.1" y1="76.9" y2="102.5" class="st0"/><line x1="845.7" x2="820.1" y1="128.1" y2="102.5" class="st0"/><line x1="845.7" x2="820.1" y1="25.6" y2="0" class="st0"/><line x1="820.1" x2="871.4" y1="153.8" y2="153.8" class="st0"/><line x1="884.2" x2="871.4" y1="141" y2="153.8" class="st0"/><line x1="884.2" x2="871.4" y1="166.5" y2="153.8" class="st0"/><line x1="820.1" x2="871.4" y1="51.2" y2="51.2" class="st0"/><line x1="884.7" x2="871.4" y1="38" y2="51.2" class="st0"/><line x1="884.2" x2="871.4" y1="64" y2="51.2" class="st0"/><polyline points="976.8 412.9 1025.1 461.2 976.8 509.5" class="st0"/><line x1="935.4" x2="970.9" y1="448.4" y2="412.9" class="st0"/><line x1="970.9" x2="935.4" y1="509.5" y2="474.1" class="st0"/><path d="M973.8,516.7c-2.3,0-4.2-1.9-4.2-4.2s1.9-4.2,4.2-4.2c2.3,0,4.2,1.9,4.2,4.2S976.1,516.7,973.8,516.7z" class="st0"/><path d="M973.8,414.2c-2.3,0-4.2-1.9-4.2-4.2c0-2.3,1.9-4.2,4.2-4.2c2.3,0,4.2,1.9,4.2,4.2	C978,412.3,976.1,414.2,973.8,414.2z" class="st0"/><path d="M969.6,615c0-2.3,1.9-4.2,4.2-4.2c2.3,0,4.2,1.9,4.2,4.2" class="st0"/><line x1="935.4" x2="970.9" y1="345.9" y2="310.5" class="st0"/><line x1="970.9" x2="935.4" y1="407" y2="371.6" class="st0"/><polyline points="976.8 310.5 1025.1 358.7 976.8 407" class="st0"/><polyline points="976.8 208 1025.1 256.2 976.8 304.5" class="st0"/><line x1="935.4" x2="970.9" y1="243.4" y2="208" class="st0"/><line x1="970.9" x2="935.4" y1="304.5" y2="269.1" class="st0"/><path d="M973.8,311.7c-2.3,0-4.2-1.9-4.2-4.2s1.9-4.2,4.2-4.2c2.3,0,4.2,1.9,4.2,4.2S976.1,311.7,973.8,311.7z" class="st0"/><line x1="935.2" x2="970.9" y1="551.1" y2="515.4" class="st0"/><line x1="970.9" x2="935.2" y1="612" y2="576.4" class="st0"/><polyline points="976.8 515.4 1025.1 563.7 976.8 612" class="st0"/><line x1="922.6" x2="947.9" y1="615" y2="589.7" class="st0"/><line x1="922.6" x2="973.9" y1="563.7" y2="563.7" class="st0"/><line x1="986.7" x2="973.9" y1="551" y2="563.7" class="st0"/><line x1="986.7" x2="973.9" y1="576.5" y2="563.7" class="st0"/><line x1="948.2" x2="922.7" y1="486.9" y2="512.5" class="st0"/><line x1="948.2" x2="922.7" y1="538" y2="512.5" class="st0"/><line x1="948.2" x2="922.7" y1="384.4" y2="410" class="st0"/><line x1="948.2" x2="922.7" y1="435.6" y2="410" class="st0"/><line x1="948.2" x2="922.7" y1="281.9" y2="307.5" class="st0"/><line x1="948.2" x2="922.7" y1="333" y2="307.5" class="st0"/><line x1="922.6" x2="973.9" y1="461.2" y2="461.2" class="st0"/><line x1="986.7" x2="973.9" y1="448.4" y2="461.2" class="st0"/><line x1="986.7" x2="973.9" y1="474" y2="461.2" class="st0"/><line x1="978" x2="1025.2" y1="512.5" y2="512.5" class="st0"/><line x1="978" x2="1025.2" y1="615" y2="615" class="st0"/><line x1="978" x2="1025.2" y1="409.9" y2="409.9" class="st0"/><line x1="978" x2="1025.2" y1="307.4" y2="307.4" class="st0"/><line x1="978" x2="1025.2" y1="205" y2="205" class="st0"/><line x1="978" x2="1025.2" y1="102.5" y2="102.5" class="st0"/><line x1="922.6" x2="973.9" y1="358.7" y2="358.7" class="st0"/><line x1="986.7" x2="973.9" y1="346" y2="358.7" class="st0"/><line x1="986.7" x2="973.9" y1="371.5" y2="358.7" class="st0"/><line x1="922.6" x2="973.9" y1="256.2" y2="256.2" class="st0"/><line x1="986.7" x2="973.9" y1="243.5" y2="256.2" class="st0"/><line x1="986.7" x2="973.9" y1="269" y2="256.2" class="st0"/><path d="M973.8,209.2c-2.3,0-4.2-1.9-4.2-4.2c0-2.3,1.9-4.2,4.2-4.2c2.3,0,4.2,1.9,4.2,4.2	C978,207.3,976.1,209.2,973.8,209.2z" class="st0"/><line x1="935.4" x2="970.9" y1="140.9" y2="105.5" class="st0"/><line x1="970.9" x2="935.4" y1="202" y2="166.6" class="st0"/><polyline points="976.8 105.5 1025.1 153.8 976.8 202" class="st0"/><polyline points="976.8 3 1025.1 51.2 976.8 99.5" class="st0"/><line x1="935.4" x2="970.9" y1="38.5" y2="3" class="st0"/><line x1="970.9" x2="935.4" y1="99.5" y2="64.1" class="st0"/><path d="M973.8,106.7c-2.3,0-4.2-1.9-4.2-4.2c0-2.3,1.9-4.2,4.2-4.2c2.3,0,4.2,1.9,4.2,4.2	C978,104.8,976.1,106.7,973.8,106.7z" class="st0"/><path d="M978,0c0,2.3-1.9,4.2-4.2,4.2c-2.3,0-4.2-1.9-4.2-4.2" class="st0"/><line x1="948.2" x2="922.7" y1="179.4" y2="205" class="st0"/><line x1="948.2" x2="922.7" y1="230.6" y2="205" class="st0"/><line x1="948.2" x2="922.7" y1="76.9" y2="102.5" class="st0"/><line x1="948.2" x2="922.7" y1="128.1" y2="102.5" class="st0"/><line x1="948.2" x2="922.7" y1="25.6" y2="0" class="st0"/><line x1="922.6" x2="973.9" y1="153.8" y2="153.8" class="st0"/><line x1="986.7" x2="973.9" y1="141" y2="153.8" class="st0"/><line x1="986.7" x2="973.9" y1="166.5" y2="153.8" class="st0"/><line x1="922.6" x2="973.9" y1="51.2" y2="51.2" class="st0"/><line x1="987.2" x2="973.9" y1="38" y2="51.2" class="st0"/><line x1="986.7" x2="973.9" y1="64" y2="51.2" class="st0"/><polyline points="1079.3 412.9 1127.6 461.2 1079.3 509.5" class="st0"/><line x1="1037.9" x2="1073.4" y1="448.4" y2="412.9" class="st0"/><line x1="1073.4" x2="1037.9" y1="509.5" y2="474.1" class="st0"/><path d="M1076.3,516.7c-2.3,0-4.2-1.9-4.2-4.2s1.9-4.2,4.2-4.2c2.3,0,4.2,1.9,4.2,4.2S1078.6,516.7,1076.3,516.7z" class="st0"/><path d="M1076.3,414.2c-2.3,0-4.2-1.9-4.2-4.2c0-2.3,1.9-4.2,4.2-4.2c2.3,0,4.2,1.9,4.2,4.2	C1080.5,412.3,1078.6,414.2,1076.3,414.2z" class="st0"/><path d="M1072.1,615c0-2.3,1.9-4.2,4.2-4.2c2.3,0,4.2,1.9,4.2,4.2" class="st0"/><line x1="1037.9" x2="1073.4" y1="345.9" y2="310.5" class="st0"/><line x1="1073.4" x2="1037.9" y1="407" y2="371.6" class="st0"/><polyline points="1079.3 310.5 1127.6 358.7 1079.3 407" class="st0"/><polyline points="1079.3 208 1127.6 256.2 1079.3 304.5" class="st0"/><line x1="1037.9" x2="1073.4" y1="243.4" y2="208" class="st0"/><line x1="1073.4" x2="1037.9" y1="304.5" y2="269.1" class="st0"/><path d="M1076.3,311.7c-2.3,0-4.2-1.9-4.2-4.2s1.9-4.2,4.2-4.2c2.3,0,4.2,1.9,4.2,4.2S1078.6,311.7,1076.3,311.7z" class="st0"/><line x1="1037.7" x2="1073.4" y1="551.1" y2="515.4" class="st0"/><line x1="1073.4" x2="1037.7" y1="612" y2="576.4" class="st0"/><polyline points="1079.3 515.4 1127.6 563.7 1079.3 612" class="st0"/><line x1="1025.1" x2="1050.3" y1="615" y2="589.7" class="st0"/><line x1="1025.1" x2="1076.4" y1="563.7" y2="563.7" class="st0"/><line x1="1089.2" x2="1076.4" y1="551" y2="563.7" class="st0"/><line x1="1089.2" x2="1076.4" y1="576.5" y2="563.7" class="st0"/><line x1="1050.7" x2="1025.1" y1="486.9" y2="512.5" class="st0"/><line x1="1050.7" x2="1025.1" y1="538" y2="512.5" class="st0"/><line x1="1050.7" x2="1025.1" y1="384.4" y2="410" class="st0"/><line x1="1050.7" x2="1025.1" y1="435.6" y2="410" class="st0"/><line x1="1050.7" x2="1025.1" y1="281.9" y2="307.5" class="st0"/><line x1="1050.7" x2="1025.1" y1="333" y2="307.5" class="st0"/><line x1="1025.1" x2="1076.4" y1="461.2" y2="461.2" class="st0"/><line x1="1089.2" x2="1076.4" y1="448.4" y2="461.2" class="st0"/><line x1="1089.2" x2="1076.4" y1="474" y2="461.2" class="st0"/><line x1="1080.5" x2="1127.7" y1="512.5" y2="512.5" class="st0"/><line x1="1080.5" x2="1127.7" y1="615" y2="615" class="st0"/><line x1="1080.5" x2="1127.7" y1="409.9" y2="409.9" class="st0"/><line x1="1080.5" x2="1127.7" y1="307.4" y2="307.4" class="st0"/><line x1="1080.5" x2="1127.7" y1="205" y2="205" class="st0"/><line x1="1080.5" x2="1127.7" y1="102.5" y2="102.5" class="st0"/><line x1="1025.1" x2="1076.4" y1="358.7" y2="358.7" class="st0"/><line x1="1089.2" x2="1076.4" y1="346" y2="358.7" class="st0"/><line x1="1089.2" x2="1076.4" y1="371.5" y2="358.7" class="st0"/><line x1="1025.1" x2="1076.4" y1="256.2" y2="256.2" class="st0"/><line x1="1089.2" x2="1076.4" y1="243.5" y2="256.2" class="st0"/><line x1="1089.2" x2="1076.4" y1="269" y2="256.2" class="st0"/><path d="M1076.3,209.2c-2.3,0-4.2-1.9-4.2-4.2c0-2.3,1.9-4.2,4.2-4.2c2.3,0,4.2,1.9,4.2,4.2	C1080.5,207.3,1078.6,209.2,1076.3,209.2z" class="st0"/><line x1="1037.9" x2="1073.4" y1="140.9" y2="105.5" class="st0"/><line x1="1073.4" x2="1037.9" y1="202" y2="166.6" class="st0"/><polyline points="1079.3 105.5 1127.6 153.8 1079.3 202" class="st0"/><polyline points="1079.3 3 1127.6 51.2 1079.3 99.5" class="st0"/><line x1="1037.9" x2="1073.4" y1="38.5" y2="3" class="st0"/><line x1="1073.4" x2="1037.9" y1="99.5" y2="64.1" class="st0"/><path d="M1076.3,106.7c-2.3,0-4.2-1.9-4.2-4.2c0-2.3,1.9-4.2,4.2-4.2c2.3,0,4.2,1.9,4.2,4.2	C1080.5,104.8,1078.6,106.7,1076.3,106.7z" class="st0"/><path d="M1080.5,0c0,2.3-1.9,4.2-4.2,4.2c-2.3,0-4.2-1.9-4.2-4.2" class="st0"/><line x1="1050.7" x2="1025.1" y1="179.4" y2="205" class="st0"/><line x1="1050.7" x2="1025.1" y1="230.6" y2="205" class="st0"/><line x1="1050.7" x2="1025.1" y1="76.9" y2="102.5" class="st0"/><line x1="1050.7" x2="1025.1" y1="128.1" y2="102.5" class="st0"/><line x1="1050.7" x2="1025.1" y1="25.6" y2="0" class="st0"/><line x1="1025.1" x2="1076.4" y1="153.8" y2="153.8" class="st0"/><line x1="1089.2" x2="1076.4" y1="141" y2="153.8" class="st0"/><line x1="1089.2" x2="1076.4" y1="166.5" y2="153.8" class="st0"/><line x1="1025.1" x2="1076.4" y1="51.2" y2="51.2" class="st0"/><line x1="1089.7" x2="1076.4" y1="38" y2="51.2" class="st0"/><line x1="1089.2" x2="1076.4" y1="64" y2="51.2" class="st0"/><polyline points="1181.8 412.9 1230.1 461.2 1181.8 509.5" class="st0"/><line x1="1140.4" x2="1175.9" y1="448.4" y2="412.9" class="st0"/><line x1="1175.9" x2="1140.4" y1="509.5" y2="474.1" class="st0"/><path d="M1178.8,516.7c-2.3,0-4.2-1.9-4.2-4.2s1.9-4.2,4.2-4.2c2.3,0,4.2,1.9,4.2,4.2S1181.2,516.7,1178.8,516.7z" class="st0"/><path d="M1178.8,414.2c-2.3,0-4.2-1.9-4.2-4.2c0-2.3,1.9-4.2,4.2-4.2c2.3,0,4.2,1.9,4.2,4.2	C1183,412.3,1181.2,414.2,1178.8,414.2z" class="st0"/><path d="M1174.6,615c0-2.3,1.9-4.2,4.2-4.2c2.3,0,4.2,1.9,4.2,4.2" class="st0"/><line x1="1140.4" x2="1175.9" y1="345.9" y2="310.5" class="st0"/><line x1="1175.9" x2="1140.4" y1="407" y2="371.6" class="st0"/><polyline points="1181.8 310.5 1230.1 358.7 1181.8 407" class="st0"/><polyline points="1181.8 208 1230.1 256.2 1181.8 304.5" class="st0"/><line x1="1140.4" x2="1175.9" y1="243.4" y2="208" class="st0"/><line x1="1175.9" x2="1140.4" y1="304.5" y2="269.1" class="st0"/><path d="M1178.8,311.7c-2.3,0-4.2-1.9-4.2-4.2s1.9-4.2,4.2-4.2c2.3,0,4.2,1.9,4.2,4.2S1181.2,311.7,1178.8,311.7z" class="st0"/><line x1="1140.2" x2="1175.9" y1="551.1" y2="515.4" class="st0"/><line x1="1175.9" x2="1140.2" y1="612" y2="576.4" class="st0"/><polyline points="1181.8 515.4 1230.1 563.7 1181.8 612" class="st0"/><line x1="1127.6" x2="1152.9" y1="615" y2="589.7" class="st0"/><line x1="1127.6" x2="1178.9" y1="563.7" y2="563.7" class="st0"/><line x1="1191.7" x2="1179" y1="551" y2="563.7" class="st0"/><line x1="1191.7" x2="1178.9" y1="576.5" y2="563.7" class="st0"/><line x1="1153.2" x2="1127.7" y1="486.9" y2="512.5" class="st0"/><line x1="1153.2" x2="1127.7" y1="538" y2="512.5" class="st0"/><line x1="1153.2" x2="1127.7" y1="384.4" y2="410" class="st0"/><line x1="1153.2" x2="1127.7" y1="435.6" y2="410" class="st0"/><line x1="1153.2" x2="1127.7" y1="281.9" y2="307.5" class="st0"/><line x1="1153.2" x2="1127.7" y1="333" y2="307.5" class="st0"/><line x1="1127.6" x2="1178.9" y1="461.2" y2="461.2" class="st0"/><line x1="1191.7" x2="1179" y1="448.4" y2="461.2" class="st0"/><line x1="1191.7" x2="1178.9" y1="474" y2="461.2" class="st0"/><line x1="1183" x2="1230.2" y1="512.5" y2="512.5" class="st0"/><line x1="1183" x2="1230.2" y1="615" y2="615" class="st0"/><line x1="1183" x2="1230.2" y1="409.9" y2="409.9" class="st0"/><line x1="1183" x2="1230.2" y1="307.4" y2="307.4" class="st0"/><line x1="1183" x2="1230.2" y1="205" y2="205" class="st0"/><line x1="1183" x2="1230.2" y1="102.5" y2="102.5" class="st0"/><line x1="1127.6" x2="1178.9" y1="358.7" y2="358.7" class="st0"/><line x1="1191.7" x2="1179" y1="346" y2="358.7" class="st0"/><line x1="1191.7" x2="1178.9" y1="371.5" y2="358.7" class="st0"/><line x1="1127.6" x2="1178.9" y1="256.2" y2="256.2" class="st0"/><line x1="1191.7" x2="1179" y1="243.5" y2="256.2" class="st0"/><line x1="1191.7" x2="1178.9" y1="269" y2="256.2" class="st0"/><path d="M1178.8,209.2c-2.3,0-4.2-1.9-4.2-4.2c0-2.3,1.9-4.2,4.2-4.2c2.3,0,4.2,1.9,4.2,4.2	C1183,207.3,1181.2,209.2,1178.8,209.2z" class="st0"/><line x1="1140.4" x2="1175.9" y1="140.9" y2="105.5" class="st0"/><line x1="1175.9" x2="1140.4" y1="202" y2="166.6" class="st0"/><polyline points="1181.8 105.5 1230.1 153.8 1181.8 202" class="st0"/><polyline points="1181.8 3 1230.1 51.2 1181.8 99.5" class="st0"/><line x1="1140.4" x2="1175.9" y1="38.5" y2="3" class="st0"/><line x1="1175.9" x2="1140.4" y1="99.5" y2="64.1" class="st0"/><path d="M1178.8,106.7c-2.3,0-4.2-1.9-4.2-4.2c0-2.3,1.9-4.2,4.2-4.2c2.3,0,4.2,1.9,4.2,4.2	C1183,104.8,1181.2,106.7,1178.8,106.7z" class="st0"/><path d="M1183,0c0,2.3-1.9,4.2-4.2,4.2c-2.3,0-4.2-1.9-4.2-4.2" class="st0"/><line x1="1153.2" x2="1127.7" y1="179.4" y2="205" class="st0"/><line x1="1153.2" x2="1127.7" y1="230.6" y2="205" class="st0"/><line x1="1153.2" x2="1127.7" y1="76.9" y2="102.5" class="st0"/><line x1="1153.2" x2="1127.7" y1="128.1" y2="102.5" class="st0"/><line x1="1153.2" x2="1127.7" y1="25.6" y2="0" class="st0"/><line x1="1127.6" x2="1178.9" y1="153.8" y2="153.8" class="st0"/><line x1="1191.7" x2="1179" y1="141" y2="153.8" class="st0"/><line x1="1191.7" x2="1178.9" y1="166.5" y2="153.8" class="st0"/><line x1="1127.6" x2="1178.9" y1="51.2" y2="51.2" class="st0"/><line x1="1192.2" x2="1179" y1="38" y2="51.2" class="st0"/><line x1="1191.7" x2="1178.9" y1="64" y2="51.2" class="st0"/></svg>