<svg xmlns="http://www.w3.org/2000/svg" xmlns:xlink="http://www.w3.org/1999/xlink" id="Layer_1" x="0" y="0" version="1.1" viewBox="0 0 693.4 556" xml:space="preserve" style="enable-background:new 0 0 693.4 556"><style type="text/css">.perf0{fill:#fff}.perf1,.perf2{fill:none;stroke:#ee5586;stroke-linecap:round;stroke-linejoin:round;stroke-miterlimit:10}.perf2{stroke:gray}.perf3{fill:#ee5586}.perf4,.perf5,.perf6{stroke-linejoin:round;stroke-miterlimit:10}.perf4{fill:#fff;stroke:gray;stroke-linecap:round}.perf5,.perf6{stroke:#ee5586;stroke-width:3}.perf5{fill:none;stroke-linecap:round}.perf6{fill:#fff}</style><circle cx="344.4" cy="347.6" r="184.2" class="perf0"/><g><path d="M57.2,378.6c0,4.4-3.5,7.9-7.9,7.9c-4.3,0-7.9-3.5-7.9-7.9s3.5-7.9,7.9-7.9S57.2,374.2,57.2,378.6z" class="perf0"/></g><g><path d="M57.5,315.9c0,4.4-3.5,7.9-7.9,7.9c-4.3,0-7.9-3.5-7.9-7.9s3.5-7.9,7.9-7.9C54,308.1,57.5,311.6,57.5,315.9z" class="perf0"/><animate fill="freeze" stroke="gray" accumulate="none" additive="replace" attributeName="stroke" calcMode="linear" dur="1s" restart="always" values="#808080;#ee5486;#ee5486;#808080"/></g><g><path d="M71,254.7c0,4.4-3.5,7.9-7.9,7.9c-4.3,0-7.9-3.5-7.9-7.9s3.5-7.9,7.9-7.9C67.5,246.9,71,250.4,71,254.7z" class="perf0"/><animate fill="freeze" stroke="gray" accumulate="none" additive="replace" attributeName="stroke" calcMode="linear" dur="1s" restart="always" values="#808080;#ee5486;#ee5486;#808080"/></g><g><path d="M95.8,198.2c0,4.4-3.5,7.9-7.9,7.9c-4.3,0-7.9-3.5-7.9-7.9s3.5-7.9,7.9-7.9C92.2,190.3,95.8,193.9,95.8,198.2z" class="perf0"/><animate fill="freeze" stroke="gray" accumulate="none" additive="replace" attributeName="stroke" calcMode="linear" dur="1s" restart="always" values="#808080;#ee5486;#ee5486;#808080"/></g><g><path d="M132.7,148.3c0,4.4-3.5,7.9-7.9,7.9c-4.3,0-7.9-3.5-7.9-7.9s3.5-7.9,7.9-7.9 C129.1,140.4,132.7,143.9,132.7,148.3z" class="perf0"/><animate fill="freeze" stroke="gray" accumulate="none" additive="replace" attributeName="stroke" calcMode="linear" dur="2s" restart="always" values="#808080;#ee5486;#ee5486;#808080"/></g><g><path d="M179.1,107.3c0,4.4-3.5,7.9-7.9,7.9c-4.3,0-7.9-3.5-7.9-7.9s3.5-7.9,7.9-7.9C175.5,99.5,179.1,103,179.1,107.3 z" class="perf0"/><animate fill="freeze" stroke="gray" accumulate="none" additive="replace" attributeName="stroke" calcMode="linear" dur="2s" restart="always" values="#808080;#ee5486;#ee5486;#808080"/></g><g><path d="M232.3,76c0,4.4-3.5,7.9-7.9,7.9c-4.3,0-7.9-3.5-7.9-7.9s3.5-7.9,7.9-7.9S232.3,71.6,232.3,76z" class="perf0"/><animate fill="freeze" stroke="gray" accumulate="none" additive="replace" attributeName="stroke" calcMode="linear" dur="2s" restart="always" values="#808080;#ee5486;#ee5486;#808080"/></g><g><path d="M291.7,57.5c0,4.4-3.5,7.9-7.9,7.9c-4.3,0-7.9-3.5-7.9-7.9s3.5-7.9,7.9-7.9C288.2,49.7,291.7,53.2,291.7,57.5z" class="perf0"/><animate fill="freeze" stroke="gray" accumulate="none" additive="replace" attributeName="stroke" calcMode="linear" dur="2s" restart="always" values="#808080;#ee5486;#ee5486;#808080"/></g><g><path d="M353.1,51c0,4.4-3.5,7.9-7.9,7.9c-4.3,0-7.9-3.5-7.9-7.9s3.5-7.9,7.9-7.9C349.6,43.2,353.1,46.7,353.1,51z" class="perf0"/><animate fill="freeze" stroke="gray" accumulate="none" additive="replace" attributeName="stroke" calcMode="linear" dur="3s" restart="always" values="#808080;#ee5486;#ee5486;#808080"/></g><g><path d="M414.3,57.5c0,4.4-3.5,7.9-7.9,7.9c-4.3,0-7.9-3.5-7.9-7.9s3.5-7.9,7.9-7.9S414.3,53.1,414.3,57.5z" class="perf0"/><animate fill="freeze" stroke="gray" accumulate="none" additive="replace" attributeName="stroke" calcMode="linear" dur="3s" restart="always" values="#808080;#ee5486;#ee5486;#808080"/></g><g><path d="M473.2,76.4c0,4.4-3.5,7.9-7.9,7.9c-4.3,0-7.9-3.5-7.9-7.9s3.5-7.9,7.9-7.9C469.6,68.6,473.2,72.1,473.2,76.4z" class="perf0"/><animate fill="freeze" stroke="gray" accumulate="none" additive="replace" attributeName="stroke" calcMode="linear" dur="3s" restart="always" values="#808080;#ee5486;#ee5486;#808080"/></g><g><path d="M526.8,107.7c0,4.4-3.5,7.9-7.9,7.9c-4.3,0-7.9-3.5-7.9-7.9s3.5-7.9,7.9-7.9 C523.3,99.9,526.8,103.4,526.8,107.7z" class="perf0"/><animate fill="freeze" stroke="gray" accumulate="none" additive="replace" attributeName="stroke" calcMode="linear" dur="3s" restart="always" values="#808080;#ee5486;#ee5486;#808080"/></g><g><path d="M573,148.7c0,4.4-3.5,7.9-7.9,7.9c-4.3,0-7.9-3.5-7.9-7.9s3.5-7.9,7.9-7.9C569.5,140.9,573,144.4,573,148.7z" class="perf0"/><animate fill="freeze" stroke="gray" accumulate="none" additive="replace" attributeName="stroke" calcMode="linear" dur="3s" restart="always" values="#808080;#ee5486;#ee5486;#808080"/></g><g><path id="svg-ico" d="M609.4,199c0,4.4-3.5,7.9-7.9,7.9c-4.3,0-7.9-3.5-7.9-7.9s3.5-7.9,7.9-7.9C605.8,191.1,609.4,194.6,609.4,199z" class="perf3"/></g><g><path id="svg-ico" d="M634.5,255.1c0,4.4-3.5,7.9-7.9,7.9c-4.3,0-7.9-3.5-7.9-7.9s3.5-7.9,7.9-7.9 C631,247.2,634.5,250.7,634.5,255.1z" class="perf3"/></g><g><path id="svg-ico" d="M647.4,316c0,4.4-3.5,7.9-7.9,7.9c-4.3,0-7.9-3.5-7.9-7.9s3.5-7.9,7.9-7.9S647.4,311.6,647.4,316z" class="perf3"/></g><g><path id="svg-ico" d="M646.9,378.1c0,4.4-3.5,7.9-7.9,7.9c-4.3,0-7.9-3.5-7.9-7.9s3.5-7.9,7.9-7.9S646.9,373.7,646.9,378.1z" class="perf3"/></g><g><path id="svg-concept" d="M300.1,179.5c0,0,35.6,50.9,37.5,139.6" class="perf1"/><path id="svg-concept" d="M238.6,209.6c0,0,52.5,33.2,88.5,114.4" class="perf1"/><path id="svg-concept" d="M193.6,261c0,0,61.2,10.6,125.6,71.7" class="perf1"/><path id="svg-concept" d="M172,324.6c0,0,60.6-13.4,143.4,18.8" class="perf1"/><path id="svg-concept" d="M176.4,392.6c0,0,50.9-35.5,139.6-37.4" class="perf1"/><path id="svg-concept" d="M206.9,454c0,0,33.3-52.3,114.6-88.1" class="perf1"/><path id="svg-concept" d="M494,435.5c0,0-60.9-10.7-124.8-72.3" class="perf1"/><path id="svg-concept" d="M516.4,370.8c0,0-60.3,13.6-143.1-18.6" class="perf1"/><path id="svg-concept" d="M512.1,302.7c0,0-50.6,35.7-139.3,37.7" class="perf1"/><path id="svg-concept" d="M482.5,242.3c0,0-33.3,52.2-114.7,87.7" class="perf1"/><path id="svg-concept" d="M431.5,197.2c0,0-11,61-72.7,124.9" class="perf1"/><path id="svg-concept" d="M366.6,175.2c0,0,13.2,60.7-19.2,143.3" class="perf1"/><path id="svg-concept" d="M258.3,498.8c0,0,10.6-61.2,71.8-125.5" class="perf1"/><path id="svg-concept" d="M322.8,520.3c0,0-13.7-60.6,18.2-143.4" class="perf1"/><path id="svg-concept" d="M389.5,515.6c0,0-35.7-55.1-37.5-139.6" class="perf1"/><path id="svg-concept" d="M449.9,485.9c0,0-52.3-33.4-88-114.7" class="perf1"/><animateTransform fill="remove" accumulate="none" additive="replace" attributeName="transform" begin="0s" calcMode="linear" dur="2s" from="0 343 350" repeatCount="indefinite" restart="always" to="360 347 345" type="rotate"/></g><g><line x1="345.2" x2="345.2" y1="8.1" y2="27.5" class="perf2"/><line x1="6.6" x2="26" y1="311.5" y2="313.5" class="perf2"/><line x1="6.6" x2="25.9" y1="382.7" y2="380.7" class="perf2"/><line x1="21.7" x2="40.3" y1="241.3" y2="247.4" class="perf2"/><line x1="51" x2="67.7" y1="176.9" y2="186.6" class="perf2"/><line x1="93" x2="107.3" y1="119.6" y2="132.5" class="perf2"/><line x1="145.8" x2="157.1" y1="72.4" y2="88" class="perf2"/><line x1="207" x2="214.9" y1="37.1" y2="54.8" class="perf2"/><line x1="274.2" x2="278.2" y1="15.2" y2="34.3" class="perf2"/><path d="M6.6,382.7c-1.2-11.5-1.8-35-1.8-35C4.8,160.1,156.9,8.1,344.4,8.1S684,160.2,684,347.7 c0,11.7-0.6,23.3-1.8,34.7" class="perf2"/><line x1="5.2" x2="14.2" y1="365.2" y2="364.8" class="perf2"/><line x1="4.8" x2="13.7" y1="347.1" y2="347.1" class="perf2"/><line x1="5.3" x2="14.2" y1="328.7" y2="329.2" class="perf2"/><line x1="9" x2="17.9" y1="293.8" y2="295.2" class="perf2"/><line x1="12.3" x2="20.7" y1="276.6" y2="278.4" class="perf2"/><line x1="16.4" x2="25" y1="259.3" y2="261.7" class="perf2"/><line x1="28.1" x2="36.4" y1="223.7" y2="227" class="perf2"/><line x1="34.7" x2="42.8" y1="208.2" y2="211.8" class="perf2"/><line x1="42.3" x2="50.2" y1="192.4" y2="196.4" class="perf2"/><line x1="60.9" x2="68.4" y1="160.6" y2="165.5" class="perf2"/><line x1="70.7" x2="77.9" y1="146.6" y2="151.9" class="perf2"/><line x1="81.7" x2="88.6" y1="132.4" y2="138.1" class="perf2"/><line x1="106.6" x2="112.9" y1="105.3" y2="111.6" class="perf2"/><line x1="118.9" x2="124.7" y1="94.1" y2="100.5" class="perf2"/><line x1="132" x2="137.5" y1="82.7" y2="89.7" class="perf2"/><line x1="160.5" x2="165.1" y1="62.5" y2="69.7" class="perf2"/><line x1="175.5" x2="179.9" y1="53" y2="60.7" class="perf2"/><line x1="190.9" x2="195" y1="44.7" y2="52.6" class="perf2"/><line x1="223.1" x2="226.3" y1="30.4" y2="38.7" class="perf2"/><line x1="239.3" x2="242.1" y1="24.7" y2="33.1" class="perf2"/><line x1="256.4" x2="258.7" y1="19.6" y2="28.2" class="perf2"/><line x1="292" x2="293.3" y1="12.4" y2="20.9" class="perf2"/><line x1="310.6" x2="311.5" y1="9.7" y2="18.6" class="perf2"/><line x1="328.3" x2="328.7" y1="8.5" y2="17" class="perf2"/><line x1="682.2" x2="662.7" y1="311.6" y2="313.7" class="perf2"/><line x1="682.3" x2="662.9" y1="382.5" y2="380.4" class="perf2"/><line x1="667.2" x2="648.7" y1="241.8" y2="247.9" class="perf2"/><line x1="638.4" x2="621.5" y1="177.5" y2="187.3" class="perf2"/><line x1="596.7" x2="582.2" y1="120.3" y2="133.3" class="perf2"/><line x1="544.2" x2="532.7" y1="73" y2="88.8" class="perf2"/><line x1="483.2" x2="475.3" y1="37.6" y2="55.4" class="perf2"/><line x1="416.2" x2="412.1" y1="15.7" y2="34.7" class="perf2"/><line x1="683.7" x2="674.6" y1="365.2" y2="364.7" class="perf2"/><line x1="684.1" x2="675" y1="347.1" y2="347.1" class="perf2"/><line x1="683.6" x2="674.5" y1="328.8" y2="329.3" class="perf2"/><line x1="679.9" x2="670.9" y1="294.1" y2="295.5" class="perf2"/><line x1="676.7" x2="667.9" y1="276.9" y2="278.8" class="perf2"/><line x1="672.5" x2="663.9" y1="259.8" y2="262.1" class="perf2"/><line x1="660.9" x2="652.5" y1="224.2" y2="227.5" class="perf2"/><line x1="654.5" x2="646.2" y1="208.8" y2="212.5" class="perf2"/><line x1="646.9" x2="638.9" y1="193" y2="197.1" class="perf2"/><line x1="628.4" x2="620.9" y1="161.3" y2="166.3" class="perf2"/><line x1="618.7" x2="611.5" y1="147.3" y2="152.7" class="perf2"/><line x1="607.8" x2="600.8" y1="133.2" y2="138.9" class="perf2"/><line x1="583.1" x2="576.8" y1="106" y2="112.4" class="perf2"/><line x1="571" x2="565" y1="94.7" y2="101.4" class="perf2"/><line x1="557.9" x2="552.2" y1="83.5" y2="90.5" class="perf2"/><line x1="529.7" x2="524.8" y1="63" y2="70.5" class="perf2"/><line x1="514.6" x2="510.1" y1="53.7" y2="61.5" class="perf2"/><line x1="499.2" x2="495.1" y1="45.3" y2="53.3" class="perf2"/><line x1="467.2" x2="463.9" y1="30.9" y2="39.3" class="perf2"/><line x1="451" x2="448.2" y1="25.1" y2="33.6" class="perf2"/><line x1="433.9" x2="431.6" y1="20" y2="28.6" class="perf2"/><line x1="398.4" x2="397.1" y1="12.4" y2="21.2" class="perf2"/><line x1="379.8" x2="378.9" y1="9.9" y2="18.8" class="perf2"/><line x1="362.1" x2="361.7" y1="8.5" y2="17.4" class="perf2"/><circle id="svg-ico" cx="6.8" cy="382.7" r="3" class="perf3"/><circle id="svg-ico" cx="6.7" cy="311.5" r="3" class="perf3"/><circle id="svg-ico" cx="21.8" cy="241.3" r="3" class="perf3"/><circle id="svg-ico" cx="51.2" cy="177" r="3" class="perf3"/><circle id="svg-ico" cx="93.2" cy="119.7" r="3" class="perf3"/><circle id="svg-ico" cx="146" cy="72.6" r="3" class="perf3"/><circle id="svg-ico" cx="207.2" cy="37.4" r="3" class="perf3"/><circle id="svg-ico" cx="274.2" cy="15.4" r="3" class="perf3"/><circle id="svg-ico" cx="345.2" cy="8.1" r="3" class="perf3"/><circle id="svg-ico" cx="416.1" cy="16.1" r="3" class="perf3"/><circle id="svg-ico" cx="483" cy="37.9" r="3" class="perf3"/><circle id="svg-ico" cx="544" cy="73.2" r="3" class="perf3"/><circle id="svg-ico" cx="596.3" cy="120.6" r="3" class="perf3"/><circle id="svg-ico" cx="638.2" cy="177.6" r="3" class="perf3"/><circle id="svg-ico" cx="666.9" cy="241.9" r="3" class="perf3"/><circle id="svg-ico" cx="681.8" cy="311.7" r="3" class="perf3"/><circle id="svg-ico" cx="682" cy="382.4" r="3" class="perf3"/><path d="M284.4,184.4" class="perf4"/></g><path d="M180.9,288.2" class="perf4"/><g><path d="M480.4,483.7c75.2-75.2,75.2-197.1,0-272.2c-75.2-75.2-197.1-75.2-272.2,0s-75.2,197.1,0,272.2 C283.3,558.9,405.2,558.9,480.4,483.7z M222.1,439.8c25.4-25.4,25.4-66.5,0-91.9c-13.9-13.9-32.6-20.2-50.8-18.8 c4.2-38.1,21-75.1,50.2-104.3s66.2-45.9,104.3-50.2c-1.4,18.2,4.9,36.9,18.8,50.8c25.4,25.4,66.5,25.4,91.9,0 c5.3-5.3,9.5-11.3,12.6-17.8c6.9,5.1,13.6,10.8,19.9,17.1c52.4,52.4,64.6,129.8,36.7,193.8c-25.3-17.3-60.1-14.8-82.6,7.7 s-25,57.3-7.7,82.6c-64,28-141.4,15.7-193.8-36.7c-6.3-6.3-12-12.9-17.1-19.9C210.7,449.3,216.7,445.1,222.1,439.8z" class="perf4"/><path d="M457.6,450.5c0,3.5-2.9,6.4-6.4,6.4s-6.4-2.9-6.4-6.4s2.9-6.4,6.4-6.4S457.6,447,457.6,450.5z" class="perf4"/><path d="M453.5,450.5c0,1.3-1.1,2.4-2.4,2.4s-2.4-1.1-2.4-2.4s1.1-2.4,2.4-2.4C452.5,448.1,453.5,449.2,453.5,450.5z" class="perf4"/><line x1="457.6" x2="453.5" y1="450.5" y2="450.5" class="perf2"/><line x1="448.7" x2="444.7" y1="450.5" y2="450.5" class="perf2"/><path d="M387.2,206.9c0,3.5-2.9,6.4-6.4,6.4s-6.4-2.9-6.4-6.4s2.9-6.4,6.4-6.4C384.4,200.4,387.2,203.3,387.2,206.9z" class="perf4"/><path d="M383.2,206.9c0,1.3-1.1,2.4-2.4,2.4s-2.4-1.1-2.4-2.4c0-1.3,1.1-2.4,2.4-2.4S383.2,205.5,383.2,206.9z" class="perf4"/><line x1="387.2" x2="383.2" y1="206.9" y2="206.9" class="perf2"/><line x1="378.4" x2="374.4" y1="206.9" y2="206.9" class="perf2"/><path d="M210.9,382.7c0,3.5-2.9,6.4-6.4,6.4s-6.4-2.9-6.4-6.4s2.9-6.4,6.4-6.4C208.1,376.3,210.9,379.2,210.9,382.7z" class="perf4"/><path d="M206.9,382.7c0,1.3-1.1,2.4-2.4,2.4c-1.3,0-2.4-1.1-2.4-2.4s1.1-2.4,2.4-2.4 C205.8,380.3,206.9,381.4,206.9,382.7z" class="perf4"/><line x1="210.9" x2="206.9" y1="382.7" y2="382.7" class="perf2"/><line x1="202.1" x2="198.1" y1="382.7" y2="382.7" class="perf2"/><path id="svg-concept" d="M151.9,355.3c-0.1-2.5-0.1-5.1-0.1-7.6c0-106.3,86.2-192.5,192.5-192.5s192.5,86.2,192.5,192.5 s-86.2,192.5-192.5,192.5C240.5,540.1,155.9,458,151.9,355.3" class="perf5"/><path d="M365.1,368.4c-11.5,11.5-30,11.5-41.5,0c-11.4-11.4-11.4-30,0-41.5c11.5-11.5,30-11.4,41.4,0 C376.5,338.4,376.6,356.9,365.1,368.4z" class="perf4"/><path d="M352.1,355.4c-4.2,4.2-11.1,4.3-15.4,0c-4.2-4.2-4.2-11.1,0-15.4c4.2-4.2,11.1-4.2,15.4,0 C356.3,344.2,356.3,351.1,352.1,355.4z" class="perf2"/><line x1="365.1" x2="352" y1="368.4" y2="355.4" class="perf2"/><line x1="334.7" x2="321.7" y1="342" y2="329" class="perf2"/></g><g><path id="svg-concept" d="M155.3,378l-35-4.5c-3.8-0.5-4.4-5.8-0.8-7.1l33.4-12.4" class="perf6"/><animateTransform fill="freeze" accumulate="none" additive="replace" attributeName="transform" calcMode="linear" dur="2s" from="0 346 348" restart="always" to="192 344 349" type="rotate"/></g></svg>