<svg xmlns="http://www.w3.org/2000/svg" xmlns:xlink="http://www.w3.org/1999/xlink" id="Layer_1" x="0" y="0" version="1.1" viewBox="0 0 543.5 398.4" xml:space="preserve" style="enable-background:new 0 0 543.5 398.4"><style type="text/css">.ranking0{fill:#fff;stroke:gray}.ranking0,.ranking1,.ranking2{stroke-linecap:round;stroke-linejoin:round;stroke-miterlimit:10}.ranking1{fill:#fff;stroke:#ee5586;stroke-width:2}.ranking2{fill:none;stroke:gray;stroke-dasharray:5}.ranking3{fill:#fff}.ranking4{fill:none;stroke:gray;stroke-linecap:round;stroke-linejoin:round;stroke-miterlimit:10}</style><g><polygon points="273.3 393.5 29 304.4 273.3 232 517 304.4" class="ranking0"/><polygon id="svg-concept" points="273.3 353.2 2.9 254.5 273.3 174.3 543.1 254.5" class="ranking1"/><line x1="11.9" x2="536.6" y1="254.5" y2="254.5" class="ranking2"/><line x1="273.3" x2="273.3" y1="350.4" y2="184.5" class="ranking2"/></g><g><polygon id="svg-concept" points="173.8 31.1 173.8 246.1 218.3 262.5 218.3 262.7 262.9 246.3 262.8 31.1 218.3 15.3" class="ranking1"/><line id="svg-concept" x1="173.8" x2="218.3" y1="31.1" y2="47.7" class="ranking1"/><line id="svg-concept" x1="218.3" x2="262.8" y1="47.7" y2="31.1" class="ranking1"/><line id="svg-concept" x1="218.3" x2="218.3" y1="47.7" y2="262.7" class="ranking1"/></g><g><polygon points="172.2 27.4 172.3 250 218.4 267 218.4 267 264.5 249.1 264.5 27.4 218.4 11" class="ranking3"/><animateMotion fill="freeze" begin="0s" dur="3s" path="M0, 0 0 -260"/></g><g><polygon points="273.5 282 273.5 219 318 202.9 362.5 219.3 362.5 282 318 298.2" class="ranking0"/><polyline points="273.5 282 228.8 266.6 228.8 127.4 273.5 111 318 127.4 318 202.9 273.5 219 318 235" class="ranking0"/><line x1="318" x2="362.5" y1="235" y2="219.3" class="ranking4"/><line x1="318" x2="318" y1="235" y2="298.2" class="ranking4"/><line x1="228.8" x2="273.5" y1="127.4" y2="143.2" class="ranking4"/><line x1="318" x2="273.5" y1="127.4" y2="143.2" class="ranking4"/><line x1="273.5" x2="273.5" y1="143.2" y2="282" class="ranking4"/></g></svg>