<svg xmlns="http://www.w3.org/2000/svg" xmlns:xlink="http://www.w3.org/1999/xlink" id="animaclock" x="0" y="0" version="1.1" viewBox="0 0 644.6 630.5" xml:space="preserve" style="enable-background:new 0 0 644.6 630.5"><style type="text/css">.soon0,.soon1{fill:none}.soon0,.soon1,.soon2{stroke-miterlimit:10}.soon0{stroke:#ee5586;stroke-width:2;stroke-linecap:round;stroke-linejoin:round}.soon1{stroke:gray}.soon2{fill:#fff;stroke:#ee5586;stroke-linecap:round;stroke-linejoin:round}.soon3,.soon4{fill:none;stroke-miterlimit:10}.soon3{stroke:#ee5586;stroke-width:3;stroke-linecap:round;stroke-linejoin:round}.soon4{stroke:#d7d7d7}.soon5{fill:#fff;stroke:gray;stroke-width:2}.soon5,.soon6,.soon7{stroke-linecap:round;stroke-linejoin:round;stroke-miterlimit:10}.soon6{fill:#fff;stroke:#ee5586;stroke-width:3}.soon7{fill:none;stroke:gray}.soon8{fill:#ee5586}</style><path id="svg-concept" d="M610.3,353c0,134.8-109.3,244.1-244.1,244.1c-134.8,0-244.1-109.3-244.1-244.1c0-134.8,109.3-244.1,244.1-244.1	C501,108.9,610.3,218.2,610.3,353z" class="soon0"/><path d="M639.4,353.4c0,150.6-122.1,272.7-272.7,272.7C216.1,626.1,94,504,94,353.4C94,202.8,216.1,80.7,366.7,80.7	C517.3,80.7,639.4,202.8,639.4,353.4z" class="soon1"/><path id="svg-concept" d="M372.9,597.1c0,3-2.4,5.4-5.4,5.4c-3,0-5.4-2.4-5.4-5.4c0-3,2.4-5.4,5.4-5.4	C370.5,591.7,372.9,594.1,372.9,597.1z" class="soon2"/><g><line x1="367.4" x2="367.4" y1="128.2" y2="150.4" class="soon1"/><line x1="413.2" x2="408.7" y1="133.4" y2="154.9" class="soon4"/><line x1="457.8" x2="448.9" y1="147.9" y2="168.1" class="soon4"/><line x1="498.3" x2="485.4" y1="171.3" y2="189.2" class="soon4"/><line x1="533.1" x2="516.7" y1="202.7" y2="217.5" class="soon4"/><line x1="560.6" x2="541.6" y1="240.5" y2="251.6" class="soon4"/><line x1="579.7" x2="558.8" y1="283.3" y2="290.2" class="soon4"/><line x1="589.4" x2="567.6" y1="329.1" y2="331.4" class="soon4"/><line x1="589.4" x2="569.3" y1="375.7" y2="373.6" class="soon1"/><line x1="579.6" x2="558.9" y1="422" y2="415.3" class="soon4"/><line x1="560.6" x2="541.9" y1="464.6" y2="453.8" class="soon4"/><line x1="533" x2="517" y1="502.5" y2="488.1" class="soon4"/><line x1="498.2" x2="485.6" y1="533.9" y2="516.5" class="soon4"/><line x1="457.7" x2="449.1" y1="557.3" y2="537.8" class="soon4"/><line x1="413.3" x2="408.9" y1="571.7" y2="551" class="soon4"/><line x1="143.6" x2="164.8" y1="329.1" y2="331.3" class="soon4"/><line x1="153.4" x2="173.9" y1="282.8" y2="289.4" class="soon4"/><line x1="172.4" x2="191.2" y1="240.2" y2="251" class="soon4"/><line x1="200.1" x2="216.3" y1="202.2" y2="216.9" class="soon4"/><line x1="234.9" x2="247.7" y1="170.9" y2="188.7" class="soon4"/><line x1="275.3" x2="284.2" y1="147.5" y2="167.7" class="soon4"/><line x1="319.8" x2="324.5" y1="133.4" y2="154.8" class="soon4"/><line x1="366.2" x2="366.2" y1="576.6" y2="555.5" class="soon1"/><line x1="320.1" x2="324.3" y1="571.5" y2="551.1" class="soon4"/><line x1="275.5" x2="283.8" y1="557" y2="538" class="soon4"/><line x1="235" x2="247.1" y1="533.5" y2="516.7" class="soon4"/><line x1="200.2" x2="215.5" y1="502.2" y2="488.3" class="soon4"/><line x1="172.7" x2="190.6" y1="464.3" y2="453.9" class="soon4"/><line x1="153.6" x2="173.4" y1="421.5" y2="415" class="soon4"/><line x1="143.9" x2="164.7" y1="375.8" y2="373.5" class="soon1"/></g><g><line id="svg-concept" x1="367.4" x2="366.8" y1="175.5" y2="353" class="soon3"/><animateTransform fill="remove" attributeName="transform" dur="3s" from="0 365 355" repeatCount="indefinite" to="360 368 355" type="rotate"/></g><g><line id="svg-concept" x1="464.8" x2="366.8" y1="353" y2="353" class="soon3"/><animateTransform fill="remove" attributeName="transform" dur="10s" from="0 365 355" repeatCount="indefinite" to="360 368 355" type="rotate"/></g><path id="svg-concept" d="M372.2,353c0,3-2.4,5.4-5.4,5.4c-3,0-5.4-2.4-5.4-5.4c0-3,2.4-5.4,5.4-5.4C369.8,347.6,372.2,350,372.2,353z" class="soon2"/><g><g><path d="M216.7,234.9h16.5c4.4,0,7.9,3.6,7.9,7.9v221.4c0,4.4-3.5,7.9-7.9,7.9H11.8c-4.4,0-7.9-3.5-7.9-7.9V242.8 c0-4.4,3.5-7.9,7.9-7.9h15.5h39.5h110.2C176.9,234.9,216.7,234.9,216.7,234.9z" class="soon5"/><path id="svg-concept" d="M66.7,234.9" class="soon6"/><path id="svg-concept" d="M27.3,234.9" class="soon6"/><line id="svg-ico" x1="3.9" x2="241" y1="392.5" y2="392.5" class="soon7"/><line id="svg-ico" x1="3.2" x2="240.3" y1="353.4" y2="353.4" class="soon7"/><line id="svg-ico" x1="3.2" x2="240.3" y1="431.6" y2="431.6" class="soon7"/><line id="svg-ico" x1="3.9" x2="241" y1="313.5" y2="313.5" class="soon7"/><line id="svg-ico" x1="83" x2="83" y1="313.8" y2="472" class="soon7"/><line id="svg-ico" x1="162" x2="162" y1="313.8" y2="472" class="soon7"/><line id="svg-ico" x1="54.9" x2="30.9" y1="361" y2="385" class="soon7"/><line id="svg-ico" x1="135.9" x2="111.9" y1="399.2" y2="423.2" class="soon7"/></g><g><circle id="svg-ico" cx="147.8" cy="364.8" r="2.5" class="soon8"/><animate fill="remove" accumulate="none" additive="replace" attributeName="opacity" beg="0" calcMode="linear" dur="1s" repeatCount="indefinite" restart="always" values="0;1;0"/></g></g><path d="M381.8,62.1h-30.1c-0.8,0-1.4-0.6-1.4-1.4v-9.8c0-0.8,0.6-1.4,1.4-1.4h30.1c0.8,0,1.4,0.6,1.4,1.4v9.8	C383.2,61.4,382.5,62.1,381.8,62.1z" class="soon1"/><path d="M502.1,105.5L475.2,92c-0.7-0.3-1-1.2-0.6-1.9l4.4-8.8c0.3-0.7,1.2-1,1.9-0.6l26.9,13.5c0.7,0.3,1,1.2,0.6,1.9	l-4.4,8.8C503.7,105.6,502.8,105.9,502.1,105.5z" class="soon1"/><polyline points="358.9 62.1 358.9 80.7 373.8 80.7 373.8 62.1" class="soon1"/><path d="M358.9,75.1c-17.2-3.3-30.2-18.5-30.2-36.7c0-20.6,16.7-37.3,37.3-37.3s37.3,16.7,37.3,37.3	c0,17.9-12.6,32.9-29.5,36.5" class="soon1"/></svg>