<svg xmlns="http://www.w3.org/2000/svg" xmlns:xlink="http://www.w3.org/1999/xlink" id="Layer_1" x="0" y="0" version="1.1" viewBox="0 0 1100 452.3" xml:space="preserve" style="enable-background:new 0 0 1100 452.3"><style type="text/css">.ssd0{fill:#fff}.ssd1{stroke:gray;stroke-linecap:round;stroke-linejoin:round;stroke-miterlimit:10}.ssd1,.ssd2{fill:none}.ssd2,.ssd3{stroke-linecap:round;stroke-linejoin:round;stroke-miterlimit:10}.ssd2{stroke:#efefef}.ssd3{fill:#fff;stroke:gray}.ssd4{fill:#fff;stroke-width:2}.ssd4,.ssd5,.ssd6{stroke:#ee5586;stroke-linecap:round;stroke-linejoin:round;stroke-miterlimit:10}.ssd5{fill:none;stroke-width:2}.ssd6{stroke-width:3}.ssd6,.ssd7{fill:none}.ssd8{fill:#ee5586}.ssd9{font-family:&apos;OpenSans-Light&apos;}.ssd10{font-size:36px}</style><path d="M337,292.7c-0.9-2.8-1.7-5.6-2.5-8.5C302.4,165,373,42.4,492.2,10.3S733.9,48.8,766,167.9	s-38.5,241.8-157.6,273.8C492.1,473.1,372.5,406.7,337,292.7" class="ssd0"/><line x1="116.2" x2=".3" y1="226.5" y2="226.5" class="ssd1"/><line x1="182.4" x2="182.4" y1="279.9" y2="173.2" class="ssd2"/><g><rect width="12.9" height="66.2" x="136" y="193.4" class="ssd3" transform="matrix(-1 -1.224647e-16 1.224647e-16 -1 284.9089 453.0388)"/><rect width="31.1" height="12.9" x="50.3" y="220.4" class="ssd3" transform="matrix(-1 -1.224647e-16 1.224647e-16 -1 131.656 453.6707)"/><path id="svg-concept" d="M82.6,184.2h52c0.7,0,1.3,0.6,1.3,1.3v82.1c0,0.7-0.6,1.3-1.3,1.3h-52c-0.7,0-1.3-0.6-1.3-1.3v-82.1 C81.4,184.8,82,184.2,82.6,184.2z" class="ssd4"/><animateMotion fill="freeze" begin="0s" dur="2s" path="M0, 0 65 0 -65"/></g><path d="M388.2,165.9" class="ssd3"/><g><path id="svg-concept" d="M450,50.2c0,0,55.2,46.3,84.2,145.2" class="ssd5"/><path id="svg-concept" d="M390.2,102.5c0,0,68.8,21.4,133.7,101.5" class="ssd5"/><path id="svg-concept" d="M355.3,173.7c0,0,71.8-6.6,162.4,42.5" class="ssd5"/><path id="svg-concept" d="M350.3,251.5c0,0,63.9-33.3,166.3-22.2" class="ssd5"/><path id="svg-concept" d="M375.8,326.4c0,0,46.3-55.2,145.2-84" class="ssd5"/><path id="svg-concept" d="M428.5,386c0,0,21.5-68.7,101.8-133.3" class="ssd5"/><path id="svg-concept" d="M744.7,278.6c0,0-71.4,6.3-161.7-43.4" class="ssd5"/><path id="svg-concept" d="M750.2,199.3c0,0-63.5,33.4-166,22.3" class="ssd5"/><path id="svg-concept" d="M724.8,124.3c0,0-45.9,55.2-144.8,84.3" class="ssd5"/><path id="svg-concept" d="M673.5,65.5c0,0-21.6,68.5-102,132.9" class="ssd5"/><path id="svg-concept" d="M602.6,30.4c0,0,6.1,71.7-43.7,162" class="ssd5"/><path id="svg-concept" d="M523.2,25.3c0,0,33.2,64,21.8,166.4" class="ssd5"/><path id="svg-concept" d="M499.6,420.7c0,0-6.6-71.8,42.6-162.3" class="ssd5"/><path id="svg-concept" d="M578.4,425.2c0,0-33.6-63.7-22.9-166.2" class="ssd5"/><path id="svg-concept" d="M651.6,399.9c0,0-56.7-51-84.2-145.1" class="ssd5"/><path id="svg-concept" d="M710.4,348.4c0,0-68.7-21.7-133.3-102" class="ssd5"/><animateTransform attributeName="transform" begin="2s" dur="3s" from="0 555 222" repeatCount="indefinite" to="360 546 227" type="rotate"/><animateTransform attributeName="transform" begin="5s" dur="1.5s" from="0 555 222" repeatCount="indefinite" to="360 546 227" type="rotate"/></g><g><path d="M743.9,336.7c61.6-106.9,24.8-243.5-82.2-305.1C554.8-29.9,418.2,6.9,356.6,113.8s-24.8,243.5,82.2,305.1 C545.8,480.5,682.3,443.7,743.9,336.7z M441.1,365.5c20.8-36.1,8.4-82.2-27.8-103c-19.8-11.4-42.6-12.8-62.6-5.8 c-6.7-44,0.8-90.4,24.7-132S435.8,53.3,477.2,37c4,20.8,16.6,39.9,36.5,51.3c36.1,20.8,82.2,8.4,103-27.8 c4.4-7.6,7.2-15.6,8.8-23.7c9.3,3.7,18.5,8,27.4,13.2c74.5,42.9,111.6,125.9,99.6,206.1c-33.6-11.8-71.9,1.6-90.3,33.6 s-10.8,71.8,16.3,94.9C615.2,435.3,524.8,445,450.2,402c-8.9-5.1-17.3-10.9-25.2-17.1C431.3,379.6,436.8,373,441.1,365.5z" class="ssd3"/><g><path d="M708.3,306.4c1.1,4-1.3,8.1-5.3,9.1c-4,1.1-8.1-1.3-9.1-5.3c-1.1-4,1.3-8,5.3-9.1 C703.2,300.1,707.2,302.4,708.3,306.4z" class="ssd3"/><path d="M703.8,307.6c0.4,1.5-0.5,3-1.9,3.4c-1.5,0.4-3-0.5-3.4-2c-0.4-1.5,0.5-3,1.9-3.4 C701.9,305.3,703.4,306.2,703.8,307.6z" class="ssd3"/><line x1="708.3" x2="703.8" y1="306.4" y2="307.6" class="ssd3"/><line x1="698.4" x2="693.9" y1="309.1" y2="310.3" class="ssd3"/></g><g><path d="M555.9,54.6c1.1,4-1.3,8.1-5.3,9.1c-4,1.1-8.1-1.3-9.1-5.3s1.3-8,5.3-9.1C550.8,48.2,554.9,50.6,555.9,54.6z" class="ssd3"/><path d="M551.4,55.8c0.4,1.5-0.5,3-1.9,3.4c-1.5,0.4-3-0.5-3.4-2c-0.4-1.5,0.5-3,1.9-3.4 C549.5,53.4,551,54.3,551.4,55.8z" class="ssd3"/><line x1="555.9" x2="551.4" y1="54.6" y2="55.8" class="ssd3"/><line x1="546.1" x2="541.6" y1="57.2" y2="58.5" class="ssd3"/></g><g><path d="M411.5,304.9c1.1,4-1.3,8.1-5.3,9.1c-4,1.1-8.1-1.3-9.1-5.3c-1.1-4,1.3-8,5.3-9.1 C406.3,298.5,410.4,300.9,411.5,304.9z" class="ssd3"/><path d="M406.9,306.1c0.4,1.5-0.5,3-1.9,3.4c-1.5,0.4-3-0.5-3.4-2c-0.4-1.5,0.5-3,1.9-3.4 C405,303.7,406.5,304.6,406.9,306.1z" class="ssd3"/><line x1="411.5" x2="406.9" y1="304.9" y2="306.1" class="ssd3"/><line x1="401.6" x2="397.1" y1="307.5" y2="308.7" class="ssd3"/></g></g><path d="M579.9,242.3c-9.4,16.3-30.2,21.9-46.5,12.5c-16.3-9.4-21.9-30.2-12.5-46.5c9.4-16.3,30.1-21.9,46.4-12.5	C583.7,205.2,589.3,226,579.9,242.3z" class="ssd3"/><path d="M561.4,231.6c-3.5,6-11.2,8.1-17.2,4.7c-6-3.5-8.1-11.2-4.6-17.2c3.5-6,11.2-8.1,17.2-4.6	C562.7,217.9,564.8,225.6,561.4,231.6z" class="ssd1"/><line x1="579.9" x2="561.3" y1="242.3" y2="231.7" class="ssd1"/><line x1="537.8" x2="519.4" y1="221.9" y2="211.3" class="ssd1"/><path id="svg-concept" d="M337,291.9c-0.9-2.8-1.7-5.6-2.5-8.5C302.4,164.2,373,41.6,492.2,9.5S733.9,48,766,167.2S727.5,408.9,608.4,441	C492.1,472.3,372.5,405.9,337,291.9" class="ssd6"/><line x1="984.3" x2="1100.3" y1="225.6" y2="225.6" class="ssd1"/><line x1="918.1" x2="918.1" y1="172.2" y2="279" class="ssd2"/><g><rect width="12.9" height="66.2" x="951.6" y="192.5" class="ssd3"/><rect width="31.1" height="12.9" x="1019.1" y="218.8" class="ssd3"/><path id="svg-concept" d="M1017.9,267.9h-52c-0.7,0-1.3-0.6-1.3-1.3v-82.1c0-0.7,0.6-1.3,1.3-1.3h52c0.7,0,1.3,0.6,1.3,1.3v82.1 C1019.1,267.3,1018.6,267.9,1017.9,267.9z" class="ssd4"/><animateMotion fill="freeze" begin="3s" dur="2s" path="M0, 0 -65 0 65"/></g><path d="M710.8,286.3" class="ssd3"/><g><path d="M187,97.1h193.4c2.5,0,4.6,2.1,4.6,4.6v248.6c0,2.5-2.1,4.6-4.6,4.6H187c-2.5,0-4.6-2.1-4.6-4.6v-70.5h19.1 V173.2h-19.1v-71.4C182.4,99.2,184.5,97.1,187,97.1z" class="ssd3"/><rect width="106.5" height="106.5" x="240.2" y="173.2" class="ssd3"/><rect width="106.5" height="32.3" x="240.2" y="210" class="ssd7"/><text id="svg-ico" class="ssd8 ssd9 ssd10" transform="matrix(1 0 0 1 255.073 237.3931)">HDD</text><g><path d="M361.8,127.2c0,3.5-2.9,6.4-6.4,6.4c-3.5,0-6.4-2.9-6.4-6.4s2.9-6.4,6.4-6.4 C359,120.8,361.8,123.6,361.8,127.2z" class="ssd3"/><path d="M357.8,127.2c0,1.3-1.1,2.4-2.4,2.4c-1.3,0-2.4-1.1-2.4-2.4s1.1-2.4,2.4-2.4 C356.7,124.8,357.8,125.8,357.8,127.2z" class="ssd3"/><line x1="361.8" x2="357.8" y1="127.2" y2="127.2" class="ssd3"/><line x1="353" x2="349" y1="127.2" y2="127.2" class="ssd3"/></g><g><path d="M218.9,127.2c0,3.5-2.9,6.4-6.4,6.4c-3.5,0-6.4-2.9-6.4-6.4s2.9-6.4,6.4-6.4 C216,120.8,218.9,123.6,218.9,127.2z" class="ssd3"/><path d="M214.8,127.2c0,1.3-1.1,2.4-2.4,2.4c-1.3,0-2.4-1.1-2.4-2.4s1.1-2.4,2.4-2.4 C213.8,124.8,214.8,125.8,214.8,127.2z" class="ssd3"/><line x1="218.9" x2="214.8" y1="127.2" y2="127.2" class="ssd3"/><line x1="210.1" x2="206" y1="127.2" y2="127.2" class="ssd3"/></g><g><path d="M361.8,324.9c0,3.5-2.9,6.4-6.4,6.4c-3.5,0-6.4-2.9-6.4-6.4s2.9-6.4,6.4-6.4 C359,318.5,361.8,321.4,361.8,324.9z" class="ssd3"/><path d="M357.8,324.9c0,1.3-1.1,2.4-2.4,2.4c-1.3,0-2.4-1.1-2.4-2.4c0-1.3,1.1-2.4,2.4-2.4 C356.7,322.6,357.8,323.6,357.8,324.9z" class="ssd3"/><line x1="361.8" x2="357.8" y1="325" y2="325" class="ssd3"/><line x1="353" x2="349" y1="325" y2="325" class="ssd3"/></g><g><path d="M218.9,324.9c0,3.5-2.9,6.4-6.4,6.4c-3.5,0-6.4-2.9-6.4-6.4s2.9-6.4,6.4-6.4 C216,318.5,218.9,321.4,218.9,324.9z" class="ssd3"/><path d="M214.8,324.9c0,1.3-1.1,2.4-2.4,2.4c-1.3,0-2.4-1.1-2.4-2.4c0-1.3,1.1-2.4,2.4-2.4 C213.8,322.6,214.8,323.6,214.8,324.9z" class="ssd3"/><line x1="218.9" x2="214.8" y1="325" y2="325" class="ssd3"/><line x1="210.1" x2="206" y1="325" y2="325" class="ssd3"/></g></g><g><path d="M913.5,355H720.1c-2.5,0-4.6-2.1-4.6-4.6V101.8c0-2.5,2.1-4.6,4.6-4.6h193.4c2.5,0,4.6,2.1,4.6,4.6v70.5H899 V279h19.1v71.4C918.1,352.9,916,355,913.5,355z" class="ssd3"/><rect width="106.5" height="106.5" x="753.9" y="172.5" class="ssd3" transform="matrix(-1 -1.224647e-16 1.224647e-16 -1 1614.1855 451.4172)"/><g><path d="M738.7,325c0-3.5,2.9-6.4,6.4-6.4c3.5,0,6.4,2.9,6.4,6.4s-2.9,6.4-6.4,6.4C741.6,331.4,738.7,328.5,738.7,325 z" class="ssd3"/><path d="M742.7,325c0-1.3,1.1-2.4,2.4-2.4c1.3,0,2.4,1.1,2.4,2.4c0,1.3-1.1,2.4-2.4,2.4 C743.8,327.3,742.7,326.3,742.7,325z" class="ssd3"/><line x1="738.7" x2="742.7" y1="324.9" y2="324.9" class="ssd3"/><line x1="747.5" x2="751.5" y1="324.9" y2="324.9" class="ssd3"/></g><g><path d="M881.7,325c0-3.5,2.9-6.4,6.4-6.4c3.5,0,6.4,2.9,6.4,6.4s-2.9,6.4-6.4,6.4C884.5,331.4,881.7,328.5,881.7,325 z" class="ssd3"/><path d="M885.7,325c0-1.3,1.1-2.4,2.4-2.4c1.3,0,2.4,1.1,2.4,2.4c0,1.3-1.1,2.4-2.4,2.4 C886.8,327.3,885.7,326.3,885.7,325z" class="ssd3"/><line x1="881.7" x2="885.7" y1="324.9" y2="324.9" class="ssd3"/><line x1="890.5" x2="894.5" y1="324.9" y2="324.9" class="ssd3"/></g><g><path d="M738.7,127.2c0-3.5,2.9-6.4,6.4-6.4c3.5,0,6.4,2.9,6.4,6.4s-2.9,6.4-6.4,6.4 C741.6,133.6,738.7,130.7,738.7,127.2z" class="ssd3"/><path d="M742.7,127.2c0-1.3,1.1-2.4,2.4-2.4c1.3,0,2.4,1.1,2.4,2.4s-1.1,2.4-2.4,2.4 C743.8,129.5,742.7,128.5,742.7,127.2z" class="ssd3"/><line x1="738.7" x2="742.7" y1="127.2" y2="127.2" class="ssd3"/><line x1="747.5" x2="751.5" y1="127.2" y2="127.2" class="ssd3"/></g><g><path d="M881.7,127.2c0-3.5,2.9-6.4,6.4-6.4c3.5,0,6.4,2.9,6.4,6.4s-2.9,6.4-6.4,6.4 C884.5,133.6,881.7,130.7,881.7,127.2z" class="ssd3"/><path d="M885.7,127.2c0-1.3,1.1-2.4,2.4-2.4c1.3,0,2.4,1.1,2.4,2.4s-1.1,2.4-2.4,2.4 C886.8,129.5,885.7,128.5,885.7,127.2z" class="ssd3"/><line x1="881.7" x2="885.7" y1="127.2" y2="127.2" class="ssd3"/><line x1="890.5" x2="894.5" y1="127.2" y2="127.2" class="ssd3"/></g><rect width="106.5" height="32.3" x="754.2" y="210" class="ssd7"/><text id="svg-ico" class="ssd8 ssd9 ssd10" transform="matrix(1 0 0 1 775.1111 237.3931)">SSD</text></g></svg>